<svg width="456" height="40" viewBox="0 0 456 40" fill="none" xmlns="http://www.w3.org/2000/svg">
<line x1="352" y1="19.5" x2="416" y2="19.5" stroke="#1E120E"/>
<rect x="19.209" width="20.791" height="20.113" fill="#FE4400"/>
<circle cx="20" cy="20" r="20" fill="#FE4400"/>
<rect x="123.209" width="20.791" height="20.113" fill="#FE4400"/>
<circle cx="124" cy="20" r="20" fill="#FE4400"/>
<rect x="227.209" width="20.791" height="20.113" fill="#FE4400"/>
<circle cx="228" cy="20" r="20" fill="#FE4400"/>
<rect x="331.209" width="20.791" height="20.113" fill="#FE4400"/>
<circle cx="332" cy="20" r="20" fill="#FE4400"/>
<rect x="435.209" width="20.791" height="20.113" fill="#FE4400"/>
<circle cx="436" cy="20" r="20" fill="#FE4400"/>
<line x1="40" y1="19.5" x2="104" y2="19.5" stroke="#1E120E"/>
<line x1="144" y1="19.5" x2="208" y2="19.5" stroke="#1E120E"/>
<line x1="248" y1="19.5" x2="312" y2="19.5" stroke="#1E120E"/>
<path d="M21.5801 27H18.7578V16.1211L15.3887 17.166V14.8711L21.2773 12.7617H21.5801V27Z" fill="#F3F1F0"/>
<path d="M128.471 27H118.725V25.0664L123.324 20.1641C123.956 19.474 124.421 18.8717 124.721 18.3574C125.027 17.8431 125.18 17.3548 125.18 16.8926C125.18 16.2611 125.02 15.7663 124.701 15.4082C124.382 15.0436 123.926 14.8613 123.334 14.8613C122.696 14.8613 122.191 15.0827 121.82 15.5254C121.456 15.9616 121.273 16.5378 121.273 17.2539H118.441C118.441 16.388 118.646 15.597 119.057 14.8809C119.473 14.1647 120.059 13.6048 120.814 13.2012C121.57 12.791 122.426 12.5859 123.383 12.5859C124.848 12.5859 125.984 12.9375 126.791 13.6406C127.605 14.3438 128.012 15.3366 128.012 16.6191C128.012 17.3223 127.829 18.0384 127.465 18.7676C127.1 19.4967 126.475 20.3464 125.59 21.3164L122.357 24.7246H128.471V27Z" fill="#F3F1F0"/>
<path d="M226.596 18.6406H228.1C228.816 18.6406 229.346 18.4616 229.691 18.1035C230.036 17.7454 230.209 17.2702 230.209 16.6777C230.209 16.1048 230.036 15.6589 229.691 15.3398C229.353 15.0208 228.884 14.8613 228.285 14.8613C227.745 14.8613 227.292 15.0111 226.928 15.3105C226.563 15.6035 226.381 15.9876 226.381 16.4629H223.559C223.559 15.7207 223.757 15.0566 224.154 14.4707C224.558 13.8783 225.118 13.416 225.834 13.084C226.557 12.752 227.351 12.5859 228.217 12.5859C229.721 12.5859 230.899 12.9473 231.752 13.6699C232.605 14.3861 233.031 15.3757 233.031 16.6387C233.031 17.2897 232.833 17.8887 232.436 18.4355C232.038 18.9824 231.518 19.4023 230.873 19.6953C231.674 19.9818 232.27 20.4115 232.66 20.9844C233.057 21.5573 233.256 22.2344 233.256 23.0156C233.256 24.2786 232.794 25.291 231.869 26.0527C230.951 26.8145 229.734 27.1953 228.217 27.1953C226.798 27.1953 225.635 26.821 224.73 26.0723C223.832 25.3236 223.383 24.334 223.383 23.1035H226.205C226.205 23.6374 226.404 24.0736 226.801 24.4121C227.204 24.7507 227.699 24.9199 228.285 24.9199C228.956 24.9199 229.48 24.7441 229.857 24.3926C230.242 24.0345 230.434 23.5625 230.434 22.9766C230.434 21.5573 229.652 20.8477 228.09 20.8477H226.596V18.6406Z" fill="#F3F1F0"/>
<path d="M334.779 21.8672H336.391V24.1426H334.779V27.2188H331.957V24.1426H326.127L326 22.3652L331.928 13H334.779V21.8672ZM328.812 21.8672H331.957V16.8477L331.771 17.1699L328.812 21.8672Z" fill="#F3F1F0"/>
<path d="M432.325 19.5039L433.063 13H440.235V15.1182H435.146L434.83 17.8691C435.434 17.5469 436.075 17.3857 436.755 17.3857C437.974 17.3857 438.929 17.7637 439.62 18.5195C440.312 19.2754 440.657 20.333 440.657 21.6924C440.657 22.5186 440.481 23.2598 440.13 23.916C439.784 24.5664 439.286 25.0732 438.636 25.4365C437.985 25.7939 437.218 25.9727 436.333 25.9727C435.56 25.9727 434.842 25.8174 434.18 25.5068C433.518 25.1904 432.993 24.748 432.606 24.1797C432.226 23.6113 432.023 22.9639 432 22.2373H434.514C434.566 22.7705 434.751 23.1865 435.067 23.4854C435.39 23.7783 435.809 23.9248 436.324 23.9248C436.898 23.9248 437.341 23.7197 437.651 23.3096C437.962 22.8936 438.117 22.3076 438.117 21.5518C438.117 20.8252 437.938 20.2686 437.581 19.8818C437.224 19.4951 436.717 19.3018 436.061 19.3018C435.457 19.3018 434.968 19.46 434.593 19.7764L434.347 20.0049L432.325 19.5039Z" fill="#F3F1F0"/>
</svg>
