<svg width="570" height="439" viewBox="0 0 570 439" fill="none" xmlns="http://www.w3.org/2000/svg">
<rect x="0.5" y="0.5" width="569" height="438" rx="7.5" fill="#F3F1F0" stroke="#FE662E"/>
<g clip-path="url(#clip0)">
<path d="M396.856 317C419.34 317 437.567 315.61 437.567 313.895C437.567 312.18 419.34 310.79 396.856 310.79C374.372 310.79 356.145 312.18 356.145 313.895C356.145 315.61 374.372 317 396.856 317Z" fill="#85858A"/>
<path d="M412.631 224.999L408.694 235.981C408.395 236.813 408.394 237.723 408.689 238.557C408.985 239.39 409.559 240.095 410.316 240.554C410.866 240.887 411.491 241.077 412.134 241.105C412.777 241.133 413.417 240.999 413.994 240.715C414.572 240.431 415.069 240.006 415.439 239.48C415.809 238.953 416.041 238.342 416.112 237.703L417.362 226.576L426.824 195.297L418.676 191.354L412.631 224.999Z" fill="#A0616A"/>
<path d="M409.345 307.927H415.128V251.678L401.985 251.415L409.345 307.927Z" fill="#A0616A"/>
<path d="M383.586 307.927H389.368V251.678L376.226 251.415L383.586 307.927Z" fill="#A0616A"/>
<path d="M416.048 257.592L401.065 256.014L397.911 239.455L392.128 256.277L374.255 254.437L381.614 226.575C395.068 217.434 407.845 217.634 419.99 226.575L416.048 257.592Z" fill="#2F2E41"/>
<path d="M390.646 310.322C390.735 311.036 390.659 311.761 390.424 312.441C390.188 313.12 389.8 313.737 389.289 314.243C388.778 314.749 388.157 315.13 387.475 315.358C386.793 315.587 386.068 315.655 385.355 315.558L374.702 314.113C373.749 313.965 372.894 313.444 372.325 312.666C371.756 311.888 371.518 310.916 371.665 309.963C371.797 309.103 372.233 308.319 372.893 307.753C373.553 307.187 374.394 306.875 375.263 306.875H377.02L382.799 301.61C382.855 305.197 385.497 304.4 389.861 304.05L390.646 310.322Z" fill="#2F2E41"/>
<path d="M416.405 310.322C416.494 311.036 416.418 311.761 416.183 312.441C415.948 313.12 415.559 313.737 415.048 314.243C414.537 314.749 413.916 315.13 413.234 315.358C412.552 315.587 411.827 315.655 411.114 315.558L400.461 314.113C399.508 313.965 398.654 313.444 398.084 312.666C397.515 311.888 397.277 310.916 397.424 309.963C397.556 309.103 397.992 308.319 398.652 307.753C399.312 307.187 400.153 306.875 401.022 306.875H402.779L408.558 301.61C408.615 305.197 411.256 304.4 415.621 304.05L416.405 310.322Z" fill="#2F2E41"/>
<path d="M395.874 161.915C400.991 161.915 405.139 157.766 405.139 152.649C405.139 147.532 400.991 143.384 395.874 143.384C390.757 143.384 386.609 147.532 386.609 152.649C386.609 157.766 390.757 161.915 395.874 161.915Z" fill="#A0616A"/>
<path d="M407.637 168.223L396.071 169.275V159.023L402.117 155.344L407.637 168.223Z" fill="#A0616A"/>
<path d="M421.305 230.519C409.67 221.999 395.699 222.865 380.3 229.467C387.277 209.717 390.249 191.31 384.769 175.739C384.769 172.988 385.684 170.315 387.372 168.142C389.059 165.969 391.421 164.419 394.087 163.737L396.071 163.229L405.797 163.755L414.929 169.109C416.791 170.2 418.337 171.758 419.415 173.629C420.492 175.5 421.064 177.619 421.074 179.778L421.305 230.519Z" fill="#85858A"/>
<path d="M376.358 222.896L372.421 233.878C372.122 234.71 372.121 235.62 372.416 236.453C372.712 237.286 373.286 237.992 374.042 238.45C374.593 238.784 375.218 238.973 375.861 239.002C376.504 239.03 377.144 238.896 377.721 238.612C378.299 238.328 378.796 237.903 379.166 237.376C379.536 236.85 379.768 236.239 379.839 235.599L381.089 224.473L390.551 193.194L382.403 189.251L376.358 222.896Z" fill="#A0616A"/>
<path d="M428.927 201.343H416.048V169.801C418.275 171.038 420.21 172.74 421.722 174.792C423.234 176.843 424.287 179.195 424.809 181.69L428.927 201.343Z" fill="#85858A"/>
<path d="M388.81 147.633C388.244 147.9 387.62 148.022 386.995 147.988C386.37 147.955 385.763 147.766 385.229 147.439C384.706 147.094 384.312 146.586 384.106 145.995C383.9 145.404 383.895 144.761 384.09 144.166C384.481 143.162 385.469 142.533 386.429 142.041C388.545 140.958 390.812 140.201 393.154 139.795C394.271 139.601 395.454 139.495 396.509 139.908C397.031 140.112 397.5 140.436 398.018 140.65C398.971 141.043 400.035 141.044 401.043 141.258C402.076 141.483 403.048 141.928 403.894 142.562C404.74 143.196 405.44 144.004 405.947 144.932C406.279 145.563 406.534 146.232 406.706 146.924C407.192 148.818 407.186 150.804 406.688 152.695C405.894 155.69 403.875 158.441 404.057 161.534C402.564 160.665 401.864 158.895 400.618 157.699C399.691 156.815 398.492 156.272 397.216 156.158C396.868 156.172 396.523 156.084 396.223 155.905C396.006 155.693 395.856 155.421 395.791 155.124L394.387 150.725C394.101 149.83 393.756 148.857 392.948 148.377C392.45 148.125 391.9 147.991 391.341 147.987C390.005 147.889 388.664 147.902 387.33 148.024" fill="#2F2E41"/>
<path d="M391.866 195.56L376.883 189.777L383.687 171.444C384.48 169.309 385.871 167.448 387.695 166.084C389.518 164.72 391.697 163.912 393.968 163.755L391.866 195.56Z" fill="#85858A"/>
<path d="M311.263 248.271H146.716C145.935 248.27 145.186 247.959 144.634 247.407C144.082 246.855 143.771 246.106 143.77 245.326V65.8555C143.771 65.0746 144.082 64.3259 144.634 63.7738C145.186 63.2216 145.935 62.911 146.716 62.9102H311.263C312.044 62.911 312.792 63.2216 313.344 63.7738C313.897 64.3259 314.207 65.0746 314.208 65.8555V245.326C314.207 246.106 313.897 246.855 313.344 247.407C312.792 247.959 312.044 248.27 311.263 248.271ZM146.716 64.0883C146.247 64.0888 145.798 64.2752 145.467 64.6065C145.135 64.9378 144.949 65.387 144.949 65.8555V245.326C144.949 245.794 145.135 246.243 145.467 246.575C145.798 246.906 146.247 247.092 146.716 247.093H311.263C311.731 247.092 312.18 246.906 312.512 246.575C312.843 246.243 313.029 245.794 313.03 245.326V65.8555C313.029 65.387 312.843 64.9378 312.512 64.6065C312.18 64.2752 311.731 64.0888 311.263 64.0883H146.716Z" fill="#85858A"/>
<path d="M180.671 129.807C182.806 129.807 184.536 128.077 184.536 125.942C184.536 123.807 182.806 122.076 180.671 122.076C178.536 122.076 176.805 123.807 176.805 125.942C176.805 128.077 178.536 129.807 180.671 129.807Z" fill="#85858A"/>
<path d="M196.777 129.807C198.912 129.807 200.642 128.077 200.642 125.942C200.642 123.807 198.912 122.076 196.777 122.076C194.642 122.076 192.911 123.807 192.911 125.942C192.911 128.077 194.642 129.807 196.777 129.807Z" fill="#85858A"/>
<path d="M212.883 129.807C215.018 129.807 216.749 128.077 216.749 125.942C216.749 123.807 215.018 122.076 212.883 122.076C210.748 122.076 209.018 123.807 209.018 125.942C209.018 128.077 210.748 129.807 212.883 129.807Z" fill="#FE4400"/>
<path d="M228.989 129.807C231.124 129.807 232.855 128.077 232.855 125.942C232.855 123.807 231.124 122.076 228.989 122.076C226.854 122.076 225.124 123.807 225.124 125.942C225.124 128.077 226.854 129.807 228.989 129.807Z" fill="#FE4400"/>
<path d="M245.095 129.807C247.23 129.807 248.961 128.077 248.961 125.942C248.961 123.807 247.23 122.076 245.095 122.076C242.961 122.076 241.23 123.807 241.23 125.942C241.23 128.077 242.961 129.807 245.095 129.807Z" fill="#FE4400"/>
<path d="M261.202 129.807C263.336 129.807 265.067 128.077 265.067 125.942C265.067 123.807 263.336 122.076 261.202 122.076C259.067 122.076 257.336 123.807 257.336 125.942C257.336 128.077 259.067 129.807 261.202 129.807Z" fill="#85858A"/>
<path d="M277.308 129.807C279.443 129.807 281.173 128.077 281.173 125.942C281.173 123.807 279.443 122.076 277.308 122.076C275.173 122.076 273.442 123.807 273.442 125.942C273.442 128.077 275.173 129.807 277.308 129.807Z" fill="#85858A"/>
<path d="M180.671 142.047C182.806 142.047 184.536 140.317 184.536 138.182C184.536 136.047 182.806 134.316 180.671 134.316C178.536 134.316 176.805 136.047 176.805 138.182C176.805 140.317 178.536 142.047 180.671 142.047Z" fill="#85858A"/>
<path d="M196.777 142.047C198.912 142.047 200.642 140.317 200.642 138.182C200.642 136.047 198.912 134.316 196.777 134.316C194.642 134.316 192.911 136.047 192.911 138.182C192.911 140.317 194.642 142.047 196.777 142.047Z" fill="#85858A"/>
<path d="M212.883 142.047C215.018 142.047 216.749 140.317 216.749 138.182C216.749 136.047 215.018 134.316 212.883 134.316C210.748 134.316 209.018 136.047 209.018 138.182C209.018 140.317 210.748 142.047 212.883 142.047Z" fill="#85858A"/>
<path d="M228.989 142.047C231.124 142.047 232.855 140.317 232.855 138.182C232.855 136.047 231.124 134.316 228.989 134.316C226.854 134.316 225.124 136.047 225.124 138.182C225.124 140.317 226.854 142.047 228.989 142.047Z" fill="#85858A"/>
<path d="M245.095 142.047C247.23 142.047 248.961 140.317 248.961 138.182C248.961 136.047 247.23 134.316 245.095 134.316C242.961 134.316 241.23 136.047 241.23 138.182C241.23 140.317 242.961 142.047 245.095 142.047Z" fill="#85858A"/>
<path d="M261.202 142.047C263.336 142.047 265.067 140.317 265.067 138.182C265.067 136.047 263.336 134.316 261.202 134.316C259.067 134.316 257.336 136.047 257.336 138.182C257.336 140.317 259.067 142.047 261.202 142.047Z" fill="#85858A"/>
<path d="M277.308 142.047C279.443 142.047 281.173 140.317 281.173 138.182C281.173 136.047 279.443 134.316 277.308 134.316C275.173 134.316 273.442 136.047 273.442 138.182C273.442 140.317 275.173 142.047 277.308 142.047Z" fill="#85858A"/>
<path d="M180.671 154.289C182.806 154.289 184.536 152.558 184.536 150.423C184.536 148.288 182.806 146.558 180.671 146.558C178.536 146.558 176.805 148.288 176.805 150.423C176.805 152.558 178.536 154.289 180.671 154.289Z" fill="#FE4400"/>
<path d="M196.777 154.289C198.912 154.289 200.642 152.558 200.642 150.423C200.642 148.288 198.912 146.558 196.777 146.558C194.642 146.558 192.911 148.288 192.911 150.423C192.911 152.558 194.642 154.289 196.777 154.289Z" fill="#FE4400"/>
<path d="M212.883 154.289C215.018 154.289 216.749 152.558 216.749 150.423C216.749 148.288 215.018 146.558 212.883 146.558C210.748 146.558 209.018 148.288 209.018 150.423C209.018 152.558 210.748 154.289 212.883 154.289Z" fill="#FE4400"/>
<path d="M228.989 154.289C231.124 154.289 232.855 152.558 232.855 150.423C232.855 148.288 231.124 146.558 228.989 146.558C226.854 146.558 225.124 148.288 225.124 150.423C225.124 152.558 226.854 154.289 228.989 154.289Z" fill="#85858A"/>
<path d="M245.095 154.289C247.23 154.289 248.961 152.558 248.961 150.423C248.961 148.288 247.23 146.558 245.095 146.558C242.961 146.558 241.23 148.288 241.23 150.423C241.23 152.558 242.961 154.289 245.095 154.289Z" fill="#85858A"/>
<path d="M261.202 154.289C263.336 154.289 265.067 152.558 265.067 150.423C265.067 148.288 263.336 146.558 261.202 146.558C259.067 146.558 257.336 148.288 257.336 150.423C257.336 152.558 259.067 154.289 261.202 154.289Z" fill="#85858A"/>
<path d="M277.308 154.289C279.443 154.289 281.173 152.558 281.173 150.423C281.173 148.288 279.443 146.558 277.308 146.558C275.173 146.558 273.442 148.288 273.442 150.423C273.442 152.558 275.173 154.289 277.308 154.289Z" fill="#85858A"/>
<path d="M180.671 166.529C182.806 166.529 184.536 164.798 184.536 162.663C184.536 160.528 182.806 158.798 180.671 158.798C178.536 158.798 176.805 160.528 176.805 162.663C176.805 164.798 178.536 166.529 180.671 166.529Z" fill="#85858A"/>
<path d="M196.777 166.529C198.912 166.529 200.642 164.798 200.642 162.663C200.642 160.528 198.912 158.798 196.777 158.798C194.642 158.798 192.911 160.528 192.911 162.663C192.911 164.798 194.642 166.529 196.777 166.529Z" fill="#85858A"/>
<path d="M180.671 178.77C182.806 178.77 184.536 177.039 184.536 174.905C184.536 172.77 182.806 171.039 180.671 171.039C178.536 171.039 176.805 172.77 176.805 174.905C176.805 177.039 178.536 178.77 180.671 178.77Z" fill="#85858A"/>
<path d="M196.777 178.77C198.912 178.77 200.642 177.039 200.642 174.905C200.642 172.77 198.912 171.039 196.777 171.039C194.642 171.039 192.911 172.77 192.911 174.905C192.911 177.039 194.642 178.77 196.777 178.77Z" fill="#85858A"/>
<path d="M212.883 178.77C215.018 178.77 216.749 177.039 216.749 174.905C216.749 172.77 215.018 171.039 212.883 171.039C210.748 171.039 209.018 172.77 209.018 174.905C209.018 177.039 210.748 178.77 212.883 178.77Z" fill="#85858A"/>
<path d="M212.883 166.529C215.018 166.529 216.749 164.798 216.749 162.663C216.749 160.528 215.018 158.798 212.883 158.798C210.748 158.798 209.018 160.528 209.018 162.663C209.018 164.798 210.748 166.529 212.883 166.529Z" fill="#85858A"/>
<path d="M228.989 166.529C231.124 166.529 232.855 164.798 232.855 162.663C232.855 160.528 231.124 158.798 228.989 158.798C226.854 158.798 225.124 160.528 225.124 162.663C225.124 164.798 226.854 166.529 228.989 166.529Z" fill="#FE4400"/>
<path d="M245.095 166.529C247.23 166.529 248.961 164.798 248.961 162.663C248.961 160.528 247.23 158.798 245.095 158.798C242.961 158.798 241.23 160.528 241.23 162.663C241.23 164.798 242.961 166.529 245.095 166.529Z" fill="#FE4400"/>
<path d="M261.202 166.529C263.336 166.529 265.067 164.798 265.067 162.663C265.067 160.528 263.336 158.798 261.202 158.798C259.067 158.798 257.336 160.528 257.336 162.663C257.336 164.798 259.067 166.529 261.202 166.529Z" fill="#FE4400"/>
<path d="M277.308 166.529C279.443 166.529 281.173 164.798 281.173 162.663C281.173 160.528 279.443 158.798 277.308 158.798C275.173 158.798 273.442 160.528 273.442 162.663C273.442 164.798 275.173 166.529 277.308 166.529Z" fill="#85858A"/>
<path d="M199.728 91.7738C199.115 91.7838 198.531 92.0343 198.101 92.4711C197.671 92.9079 197.431 93.4961 197.431 94.1088C197.431 94.7216 197.671 95.3098 198.101 95.7466C198.531 96.1834 199.115 96.4338 199.728 96.4439H258.276C258.582 96.4493 258.887 96.3941 259.173 96.2816C259.458 96.1691 259.719 96.0014 259.94 95.788C260.16 95.5747 260.337 95.32 260.459 95.0385C260.581 94.757 260.647 94.4541 260.652 94.1472C260.657 93.8404 260.601 93.5355 260.488 93.2501C260.375 92.9647 260.207 92.7043 259.994 92.4839C259.78 92.2635 259.525 92.0873 259.244 91.9655C258.962 91.8436 258.659 91.7785 258.352 91.7738C258.327 91.7733 258.301 91.7733 258.276 91.7738H199.728Z" fill="#3F3D56"/>
<path d="M271.553 91.1229C271.51 91.1655 271.476 91.2162 271.453 91.2719C271.43 91.3277 271.418 91.3874 271.418 91.4478C271.418 91.5081 271.43 91.5679 271.453 91.6236C271.476 91.6794 271.51 91.73 271.553 91.7727L273.525 93.7452H268.661C268.539 93.7452 268.423 93.7937 268.336 93.8798C268.25 93.966 268.202 94.0829 268.202 94.2047C268.202 94.3266 268.25 94.4435 268.336 94.5297C268.423 94.6158 268.539 94.6642 268.661 94.6642H273.525L271.553 96.6368C271.51 96.6795 271.476 96.7301 271.453 96.7859C271.43 96.8416 271.418 96.9014 271.418 96.9617C271.418 97.022 271.43 97.0818 271.453 97.1375C271.476 97.1933 271.51 97.244 271.553 97.2866C271.596 97.3293 271.646 97.3631 271.702 97.3862C271.758 97.4093 271.817 97.4212 271.878 97.4212C271.938 97.4212 271.998 97.4093 272.054 97.3862C272.109 97.3631 272.16 97.3293 272.203 97.2866L274.96 94.5297C275.046 94.4435 275.094 94.3266 275.094 94.2047C275.094 94.0829 275.046 93.966 274.96 93.8798L272.203 91.1229C272.16 91.0802 272.109 91.0464 272.054 91.0233C271.998 91.0002 271.938 90.9883 271.878 90.9883C271.817 90.9883 271.758 91.0002 271.702 91.0233C271.646 91.0464 271.596 91.0802 271.553 91.1229Z" fill="#85858A"/>
<path d="M186.426 91.1229C186.468 91.1655 186.502 91.2162 186.525 91.2719C186.548 91.3277 186.56 91.3874 186.56 91.4478C186.56 91.5081 186.548 91.5679 186.525 91.6236C186.502 91.6794 186.468 91.73 186.426 91.7727L184.453 93.7453H189.317C189.439 93.7453 189.556 93.7937 189.642 93.8798C189.728 93.966 189.777 94.0829 189.777 94.2048C189.777 94.3266 189.728 94.4435 189.642 94.5297C189.556 94.6158 189.439 94.6643 189.317 94.6643H184.453L186.426 96.6368C186.512 96.723 186.56 96.8398 186.56 96.9617C186.56 97.0836 186.512 97.2005 186.426 97.2866C186.34 97.3728 186.223 97.4212 186.101 97.4212C185.979 97.4212 185.862 97.3728 185.776 97.2866L183.019 94.5297C182.933 94.4435 182.884 94.3266 182.884 94.2048C182.884 94.0829 182.933 93.966 183.019 93.8798L185.776 91.1229C185.819 91.0802 185.869 91.0464 185.925 91.0233C185.981 91.0002 186.04 90.9883 186.101 90.9883C186.161 90.9883 186.221 91.0002 186.277 91.0233C186.332 91.0464 186.383 91.0802 186.426 91.1229Z" fill="#85858A"/>
<path d="M196.455 203.441C195.354 203.441 194.265 203.657 193.248 204.077C192.231 204.498 191.307 205.115 190.529 205.892C189.751 206.67 189.133 207.594 188.712 208.61C188.291 209.627 188.074 210.716 188.074 211.817C188.074 212.917 188.291 214.006 188.712 215.023C189.133 216.039 189.751 216.963 190.529 217.741C191.307 218.519 192.231 219.135 193.248 219.556C194.265 219.977 195.354 220.193 196.455 220.192H261.524C262.624 220.193 263.714 219.977 264.731 219.556C265.747 219.135 266.671 218.519 267.45 217.741C268.228 216.963 268.845 216.039 269.267 215.023C269.688 214.006 269.905 212.917 269.905 211.817C269.905 210.716 269.688 209.627 269.267 208.61C268.845 207.594 268.228 206.67 267.45 205.892C266.671 205.115 265.747 204.498 264.731 204.077C263.714 203.657 262.624 203.441 261.524 203.441H196.455Z" fill="#85858A"/>
<path d="M146.459 78.9185C143.797 78.9185 141.195 78.1292 138.982 76.6502C136.768 75.1713 135.043 73.0693 134.025 70.6099C133.006 68.1505 132.739 65.4443 133.259 62.8335C133.778 60.2227 135.06 57.8244 136.942 55.9421C138.824 54.0598 141.223 52.778 143.833 52.2586C146.444 51.7393 149.151 52.0058 151.61 53.0245C154.069 54.0432 156.171 55.7683 157.65 57.9817C159.129 60.1951 159.919 62.7973 159.919 65.4593C159.915 69.0276 158.495 72.4487 155.972 74.972C153.449 77.4952 150.028 78.9145 146.459 78.9185Z" fill="#FE4400"/>
<path d="M151.77 64.132H147.787V60.149C147.787 59.7969 147.647 59.4592 147.398 59.2102C147.149 58.9612 146.811 58.8213 146.459 58.8213C146.107 58.8213 145.769 58.9612 145.52 59.2102C145.271 59.4592 145.132 59.7969 145.132 60.149V64.132H141.149C140.796 64.132 140.459 64.2719 140.21 64.5209C139.961 64.7699 139.821 65.1076 139.821 65.4597C139.821 65.8118 139.961 66.1495 140.21 66.3985C140.459 66.6475 140.796 66.7873 141.149 66.7873H145.132V70.7704C145.132 71.1225 145.271 71.4602 145.52 71.7092C145.769 71.9582 146.107 72.0981 146.459 72.0981C146.811 72.0981 147.149 71.9582 147.398 71.7092C147.647 71.4602 147.787 71.1225 147.787 70.7704V66.7873H151.77C152.122 66.7873 152.46 66.6475 152.709 66.3985C152.958 66.1495 153.098 65.8118 153.098 65.4597C153.098 65.1076 152.958 64.7699 152.709 64.5209C152.46 64.2719 152.122 64.132 151.77 64.132Z" fill="white"/>
</g>
<path d="M94.88 366.32V370.76H102.656V373.88H94.88V380H90.992V363.2H103.688V366.32H94.88ZM116.681 376.4H108.881L107.393 380H103.409L110.897 363.2H114.737L122.249 380H118.169L116.681 376.4ZM115.457 373.448L112.793 367.016L110.129 373.448H115.457ZM137.6 376.832V380H122.912V377.48L132.128 366.368H123.104V363.2H137.24V365.72L128.048 376.832H137.6ZM153.102 376.88V380H140.094V363.2H152.79V366.32H143.958V369.968H151.758V372.992H143.958V376.88H153.102ZM166.899 380L163.659 375.32H163.467H160.083V380H156.195V363.2H163.467C164.955 363.2 166.243 363.448 167.331 363.944C168.435 364.44 169.283 365.144 169.875 366.056C170.467 366.968 170.763 368.048 170.763 369.296C170.763 370.544 170.459 371.624 169.851 372.536C169.259 373.432 168.411 374.12 167.307 374.6L171.075 380H166.899ZM166.827 369.296C166.827 368.352 166.523 367.632 165.915 367.136C165.307 366.624 164.419 366.368 163.251 366.368H160.083V372.224H163.251C164.419 372.224 165.307 371.968 165.915 371.456C166.523 370.944 166.827 370.224 166.827 369.296ZM188.104 380.288C185.704 380.288 183.832 379.624 182.488 378.296C181.16 376.968 180.496 375.072 180.496 372.608V363.2H184.384V372.464C184.384 375.472 185.632 376.976 188.128 376.976C189.344 376.976 190.272 376.616 190.912 375.896C191.552 375.16 191.872 374.016 191.872 372.464V363.2H195.712V372.608C195.712 375.072 195.04 376.968 193.696 378.296C192.368 379.624 190.504 380.288 188.104 380.288ZM214.843 380L214.819 369.92L209.875 378.224H208.123L203.203 370.136V380H199.555V363.2H202.771L209.059 373.64L215.251 363.2H218.443L218.491 380H214.843ZM233.54 376.4H225.74L224.252 380H220.268L227.756 363.2H231.596L239.108 380H235.028L233.54 376.4ZM232.316 373.448L229.652 367.016L226.988 373.448H232.316ZM263.056 363.2V380H259.864L251.488 369.8V380H247.648V363.2H250.864L259.216 373.4V363.2H263.056ZM275.167 380.288C273.423 380.288 271.847 379.912 270.439 379.16C269.047 378.408 267.951 377.376 267.151 376.064C266.367 374.736 265.975 373.248 265.975 371.6C265.975 369.952 266.367 368.472 267.151 367.16C267.951 365.832 269.047 364.792 270.439 364.04C271.847 363.288 273.423 362.912 275.167 362.912C276.911 362.912 278.479 363.288 279.871 364.04C281.263 364.792 282.359 365.832 283.159 367.16C283.959 368.472 284.359 369.952 284.359 371.6C284.359 373.248 283.959 374.736 283.159 376.064C282.359 377.376 281.263 378.408 279.871 379.16C278.479 379.912 276.911 380.288 275.167 380.288ZM275.167 376.976C276.159 376.976 277.055 376.752 277.855 376.304C278.655 375.84 279.279 375.2 279.727 374.384C280.191 373.568 280.423 372.64 280.423 371.6C280.423 370.56 280.191 369.632 279.727 368.816C279.279 368 278.655 367.368 277.855 366.92C277.055 366.456 276.159 366.224 275.167 366.224C274.175 366.224 273.279 366.456 272.479 366.92C271.679 367.368 271.047 368 270.583 368.816C270.135 369.632 269.911 370.56 269.911 371.6C269.911 372.64 270.135 373.568 270.583 374.384C271.047 375.2 271.679 375.84 272.479 376.304C273.279 376.752 274.175 376.976 275.167 376.976ZM302.871 363.2L295.599 380H291.759L284.511 363.2H288.711L293.823 375.2L299.007 363.2H302.871ZM314.775 376.4H306.975L305.487 380H301.503L308.991 363.2H312.831L320.343 380H316.263L314.775 376.4ZM313.551 373.448L310.887 367.016L308.223 373.448H313.551ZM339.587 380L336.347 375.32H336.155H332.771V380H328.883V363.2H336.155C337.643 363.2 338.931 363.448 340.019 363.944C341.123 364.44 341.971 365.144 342.563 366.056C343.155 366.968 343.451 368.048 343.451 369.296C343.451 370.544 343.147 371.624 342.539 372.536C341.947 373.432 341.099 374.12 339.995 374.6L343.763 380H339.587ZM339.515 369.296C339.515 368.352 339.211 367.632 338.603 367.136C337.995 366.624 337.107 366.368 335.939 366.368H332.771V372.224H335.939C337.107 372.224 337.995 371.968 338.603 371.456C339.211 370.944 339.515 370.224 339.515 369.296ZM359.539 376.88V380H346.531V363.2H359.227V366.32H350.395V369.968H358.195V372.992H350.395V376.88H359.539ZM368.153 380.288C366.825 380.288 365.537 380.112 364.289 379.76C363.057 379.392 362.065 378.92 361.313 378.344L362.633 375.416C363.353 375.944 364.209 376.368 365.201 376.688C366.193 377.008 367.185 377.168 368.177 377.168C369.281 377.168 370.097 377.008 370.625 376.688C371.153 376.352 371.417 375.912 371.417 375.368C371.417 374.968 371.257 374.64 370.937 374.384C370.633 374.112 370.233 373.896 369.737 373.736C369.257 373.576 368.601 373.4 367.769 373.208C366.489 372.904 365.441 372.6 364.625 372.296C363.809 371.992 363.105 371.504 362.513 370.832C361.937 370.16 361.649 369.264 361.649 368.144C361.649 367.168 361.913 366.288 362.441 365.504C362.969 364.704 363.761 364.072 364.817 363.608C365.889 363.144 367.193 362.912 368.729 362.912C369.801 362.912 370.849 363.04 371.873 363.296C372.897 363.552 373.793 363.92 374.561 364.4L373.361 367.352C371.809 366.472 370.257 366.032 368.705 366.032C367.617 366.032 366.809 366.208 366.281 366.56C365.769 366.912 365.513 367.376 365.513 367.952C365.513 368.528 365.809 368.96 366.401 369.248C367.009 369.52 367.929 369.792 369.161 370.064C370.441 370.368 371.489 370.672 372.305 370.976C373.121 371.28 373.817 371.76 374.393 372.416C374.985 373.072 375.281 373.96 375.281 375.08C375.281 376.04 375.009 376.92 374.465 377.72C373.937 378.504 373.137 379.128 372.065 379.592C370.993 380.056 369.689 380.288 368.153 380.288ZM390.945 376.88V380H377.937V363.2H390.633V366.32H381.801V369.968H389.601V372.992H381.801V376.88H390.945ZM404.743 380L401.503 375.32H401.311H397.927V380H394.039V363.2H401.311C402.799 363.2 404.087 363.448 405.175 363.944C406.279 364.44 407.127 365.144 407.719 366.056C408.311 366.968 408.607 368.048 408.607 369.296C408.607 370.544 408.303 371.624 407.695 372.536C407.103 373.432 406.255 374.12 405.151 374.6L408.919 380H404.743ZM404.671 369.296C404.671 368.352 404.367 367.632 403.759 367.136C403.151 366.624 402.263 366.368 401.095 366.368H397.927V372.224H401.095C402.263 372.224 403.151 371.968 403.759 371.456C404.367 370.944 404.671 370.224 404.671 369.296ZM427.839 363.2L420.567 380H416.727L409.479 363.2H413.679L418.791 375.2L423.975 363.2H427.839ZM439.744 376.4H431.944L430.456 380H426.471L433.96 363.2H437.8L445.312 380H441.232L439.744 376.4ZM438.52 373.448L435.856 367.016L433.192 373.448H438.52Z" fill="#FE4400"/>
<path d="M458 370.5H456.5V373.5H458V370.5ZM483.061 373.061C483.646 372.475 483.646 371.525 483.061 370.939L473.515 361.393C472.929 360.808 471.979 360.808 471.393 361.393C470.808 361.979 470.808 362.929 471.393 363.515L479.879 372L471.393 380.485C470.808 381.071 470.808 382.021 471.393 382.607C471.979 383.192 472.929 383.192 473.515 382.607L483.061 373.061ZM458 373.5H482V370.5H458V373.5Z" fill="#FE4400"/>
<defs>
<clipPath id="clip0">
<rect width="304.567" height="265" fill="white" transform="translate(133 52)"/>
</clipPath>
</defs>
</svg>
