<svg width="570" height="439" viewBox="0 0 570 439" fill="none" xmlns="http://www.w3.org/2000/svg">
<rect x="0.5" y="0.5" width="569" height="438" rx="7.5" fill="#F3F1F0" stroke="#FE662E"/>
<g clip-path="url(#clip0)">
<path d="M422.582 53.1729H117.13V248.798H422.582V53.1729Z" fill="#85858A"/>
<path d="M413.848 77.709H125.865V237.224H413.848V77.709Z" fill="white"/>
<path d="M422.452 53H117V65.9767H422.452V53Z" fill="#FE4400"/>
<path d="M126.643 62.0398C127.972 62.0398 129.048 60.9629 129.048 59.6346C129.048 58.3063 127.972 57.2295 126.643 57.2295C125.315 57.2295 124.238 58.3063 124.238 59.6346C124.238 60.9629 125.315 62.0398 126.643 62.0398Z" fill="white"/>
<path d="M135.773 62.0398C137.101 62.0398 138.178 60.9629 138.178 59.6346C138.178 58.3063 137.101 57.2295 135.773 57.2295C134.444 57.2295 133.367 58.3063 133.367 59.6346C133.367 60.9629 134.444 62.0398 135.773 62.0398Z" fill="white"/>
<path d="M144.902 62.0398C146.23 62.0398 147.307 60.9629 147.307 59.6346C147.307 58.3063 146.23 57.2295 144.902 57.2295C143.573 57.2295 142.497 58.3063 142.497 59.6346C142.497 60.9629 143.573 62.0398 144.902 62.0398Z" fill="white"/>
<path d="M300.468 94.2607H238.803V129.057H300.468V94.2607Z" fill="#FE4400"/>
<path d="M300.468 138.747H238.803V176.187H300.468V138.747Z" fill="#85858A"/>
<path d="M300.468 185.877H238.803V220.674H300.468V185.877Z" fill="#85858A"/>
<path d="M387.68 94.2607H313.682V149.351H387.68V94.2607Z" fill="#85858A"/>
<path d="M225.852 94.2598H151.854V149.35H225.852V94.2598Z" fill="#85858A"/>
<path d="M387.68 165.584H313.682V220.674H387.68V165.584Z" fill="#85858A"/>
<path d="M225.852 165.583H151.854V220.673H225.852V165.583Z" fill="#85858A"/>
<path d="M359.174 153.308V141.448C359.174 137.233 360.848 133.191 363.829 130.21C366.809 127.23 370.851 125.556 375.066 125.556C379.281 125.556 383.324 127.23 386.304 130.21C389.285 133.191 390.959 137.233 390.959 141.448V153.308C390.958 153.874 390.733 154.417 390.333 154.817C389.933 155.217 389.39 155.443 388.824 155.443H361.309C360.743 155.443 360.2 155.217 359.8 154.817C359.4 154.417 359.174 153.874 359.174 153.308Z" fill="#2F2E41"/>
<path d="M398.566 307.655L392.961 309.206L384.31 288.324L392.583 286.034L398.566 307.655Z" fill="#FFB8B8"/>
<path d="M388.514 308.712L399.324 305.72L401.208 312.527L383.591 317.402C383.344 316.508 383.275 315.575 383.388 314.654C383.502 313.734 383.795 312.845 384.253 312.038C384.71 311.231 385.321 310.522 386.052 309.951C386.784 309.38 387.62 308.959 388.514 308.712Z" fill="#2F2E41"/>
<path d="M340.126 311.966H334.31L331.543 289.532H340.127L340.126 311.966Z" fill="#FFB8B8"/>
<path d="M330.155 310.304H341.372V317.366H323.093C323.093 316.439 323.276 315.52 323.631 314.663C323.986 313.807 324.506 313.028 325.162 312.372C325.817 311.716 326.596 311.196 327.453 310.841C328.31 310.486 329.228 310.304 330.155 310.304Z" fill="#2F2E41"/>
<path d="M333.113 186.591C333.528 187.152 334.061 187.614 334.674 187.946C335.287 188.279 335.966 188.472 336.662 188.514C337.358 188.555 338.055 188.444 338.704 188.187C339.352 187.93 339.936 187.534 340.415 187.027L355.876 193.98L354.47 185.284L340.003 180.014C339.098 179.266 337.95 178.876 336.776 178.918C335.603 178.96 334.486 179.431 333.636 180.242C332.787 181.053 332.265 182.147 332.168 183.317C332.072 184.487 332.408 185.652 333.113 186.591H333.113Z" fill="#FFB8B8"/>
<path d="M365.237 238.889C360.379 238.889 355.351 238.166 351.124 236.014C348.88 234.894 346.892 233.323 345.283 231.399C343.674 229.476 342.479 227.241 341.774 224.834C339.572 217.861 342.348 211.01 345.034 204.385C346.698 200.279 348.269 196.402 348.677 192.58L348.82 191.223C349.455 185.128 350.003 179.864 353.041 177.89C354.615 176.866 356.731 176.808 359.512 177.711L385.625 186.194L384.665 235.765L384.506 235.818C384.37 235.864 375.164 238.889 365.237 238.889Z" fill="#2F2E41"/>
<path d="M359.055 162.278C359.055 162.278 371.864 158.483 381.827 159.906C381.827 159.906 376.134 191.217 378.031 201.654C379.929 212.091 345.06 205.686 352.176 195.724L354.548 183.864C354.548 183.864 349.804 179.12 354.074 173.427L359.055 162.278Z" fill="#FE4400"/>
<path d="M352.755 237.949L336.969 234.989L342.48 192.574C342.851 191.39 351.388 164.516 355.266 163.062C358.081 162.071 360.961 161.271 363.884 160.668L364.446 160.556L361.28 165.304L348.678 195.502L352.755 237.949Z" fill="#2F2E41"/>
<path d="M344.529 306.768L324.133 303.368L335.579 256.628L352.612 192.708L352.78 193.843C352.793 193.928 354.384 202.278 377.995 198.573L378.202 198.54L378.26 198.743L406.796 299.572L383.555 303.445L362.357 229.881L344.529 306.768Z" fill="#2F2E41"/>
<path d="M372.8 245.887L372.813 245.528C372.827 245.129 374.231 205.501 373.762 189.563C373.292 173.572 378.469 159.723 378.521 159.585L378.563 159.474L378.678 159.441C385.376 157.527 391.187 163.239 391.245 163.297L391.327 163.378L389.419 179.117L397.587 236.35L372.8 245.887Z" fill="#2F2E41"/>
<path d="M371.801 155.167C378.236 155.167 383.453 149.95 383.453 143.515C383.453 137.08 378.236 131.863 371.801 131.863C365.366 131.863 360.149 137.08 360.149 143.515C360.149 149.95 365.366 155.167 371.801 155.167Z" fill="#FFB8B8"/>
<path d="M355.414 142.397C355.418 139.064 356.744 135.868 359.1 133.512C361.457 131.155 364.653 129.829 367.986 129.825H370.358C373.691 129.829 376.886 131.155 379.243 133.512C381.6 135.868 382.926 139.064 382.93 142.397V142.634H377.917L376.207 137.847L375.865 142.634H373.274L372.412 140.219L372.239 142.634H355.414V142.397Z" fill="#2F2E41"/>
<path d="M370.654 156.777C370.419 156.458 370.278 156.08 370.249 155.685C370.219 155.29 370.302 154.894 370.487 154.544C373.001 149.763 376.52 140.929 371.848 135.48L371.513 135.089H385.075V155.45L372.755 157.624C372.63 157.646 372.504 157.657 372.377 157.657C372.041 157.657 371.709 157.578 371.41 157.425C371.11 157.272 370.851 157.05 370.654 156.777Z" fill="#2F2E41"/>
<path d="M316.051 72.7101C306.561 64.7022 294.948 59.6254 282.625 58.0973C270.303 56.5692 257.801 58.6557 246.643 64.1029C235.484 69.5502 226.15 78.1233 219.775 88.779C213.4 99.4348 210.259 111.714 210.736 124.122C211.212 136.53 215.285 148.532 222.458 158.667C229.631 168.803 239.595 176.635 251.139 181.211C262.682 185.787 275.306 186.909 287.476 184.44C299.645 181.972 310.835 176.02 319.683 167.308L398.253 233.605C399.448 234.616 400.996 235.11 402.556 234.979C404.116 234.849 405.561 234.104 406.571 232.908C407.582 231.713 408.076 230.165 407.946 228.605C407.815 227.045 407.07 225.601 405.875 224.59L405.866 224.583L327.296 158.285C336.423 145.186 340.33 129.15 338.249 113.32C336.169 97.4897 328.253 83.0071 316.051 72.7101ZM310.986 151.901C304.865 159.156 296.73 164.432 287.611 167.063C278.491 169.694 268.796 169.561 259.752 166.682C250.708 163.803 242.72 158.307 236.8 150.888C230.879 143.47 227.291 134.462 226.49 125.004C225.689 115.547 227.71 106.064 232.298 97.7552C236.886 89.4464 243.835 82.6847 252.266 78.3251C260.698 73.9656 270.232 72.2041 279.664 73.2633C289.096 74.3226 298.003 78.155 305.257 84.276H305.257C310.073 88.3401 314.042 93.3132 316.937 98.9112C319.831 104.509 321.595 110.623 322.127 116.902C322.659 123.182 321.949 129.505 320.037 135.51C318.126 141.515 315.05 147.085 310.986 151.901Z" fill="#3F3D56"/>
<path opacity="0.3" d="M243.36 157.63C234.154 149.861 228.206 138.914 226.697 126.963C225.189 115.011 228.23 102.929 235.217 93.1162C234.299 94.0403 233.412 95.008 232.556 96.0195C228.492 100.836 225.416 106.406 223.504 112.411C221.593 118.416 220.883 124.739 221.415 131.019C221.947 137.298 223.71 143.412 226.605 149.01C229.5 154.608 233.468 159.581 238.285 163.645C243.102 167.709 248.671 170.785 254.677 172.696C260.682 174.608 267.005 175.318 273.284 174.786C279.564 174.254 285.677 172.49 291.275 169.596C296.873 166.701 301.846 162.732 305.911 157.916C306.765 156.903 307.57 155.866 308.325 154.804C299.827 163.343 288.429 168.373 276.394 168.896C264.359 169.42 252.567 165.398 243.36 157.63Z" fill="black"/>
<path d="M375.542 206.962C376.219 207.127 376.925 207.142 377.609 207.006C378.293 206.869 378.938 206.585 379.5 206.171C380.062 205.758 380.527 205.227 380.861 204.615C381.195 204.003 381.392 203.325 381.436 202.629L397.771 198.095L391.131 192.306L376.636 197.499C375.462 197.502 374.33 197.936 373.455 198.719C372.579 199.501 372.021 200.578 371.886 201.744C371.751 202.91 372.049 204.086 372.722 205.048C373.396 206.009 374.399 206.69 375.542 206.962Z" fill="#FFB8B8"/>
<path d="M382.331 204.561L381.337 195.118L394.982 187.589L386.086 176.82L387.538 164.723L391.152 163.174L391.265 163.318C392.969 165.51 407.919 184.8 407.919 187.184C407.919 189.634 405.059 196.826 401.146 198.782C397.372 200.669 383.199 204.337 382.598 204.493L382.331 204.561Z" fill="#2F2E41"/>
<path d="M453.132 318H272.383C272.257 318 272.137 317.95 272.048 317.861C271.959 317.772 271.909 317.651 271.909 317.525C271.909 317.399 271.959 317.279 272.048 317.19C272.137 317.101 272.257 317.051 272.383 317.051H453.132C453.258 317.051 453.378 317.101 453.467 317.19C453.556 317.279 453.606 317.399 453.606 317.525C453.606 317.651 453.556 317.772 453.467 317.861C453.378 317.95 453.258 318 453.132 318Z" fill="#CCCCCC"/>
</g>
<path d="M134.335 364.2L127.063 381H123.223L115.975 364.2H120.175L125.287 376.2L130.471 364.2H134.335ZM148.746 377.88V381H135.738V364.2H148.434V367.32H139.602V370.968H147.402V373.992H139.602V377.88H148.746ZM162.544 381L159.304 376.32H159.112H155.728V381H151.84V364.2H159.112C160.6 364.2 161.888 364.448 162.976 364.944C164.08 365.44 164.928 366.144 165.52 367.056C166.112 367.968 166.408 369.048 166.408 370.296C166.408 371.544 166.104 372.624 165.496 373.536C164.904 374.432 164.056 375.12 162.952 375.6L166.72 381H162.544ZM162.472 370.296C162.472 369.352 162.168 368.632 161.56 368.136C160.952 367.624 160.064 367.368 158.896 367.368H155.728V373.224H158.896C160.064 373.224 160.952 372.968 161.56 372.456C162.168 371.944 162.472 371.224 162.472 370.296ZM191.573 381L191.549 370.92L186.605 379.224H184.853L179.933 371.136V381H176.285V364.2H179.501L185.789 374.64L191.981 364.2H195.173L195.221 381H191.573ZM199.207 364.2H203.095V381H199.207V364.2ZM222.49 364.2V381H219.298L210.922 370.8V381H207.082V364.2H210.298L218.65 374.4V364.2H222.49ZM241.873 364.2V381H237.985V374.112H230.353V381H226.465V364.2H230.353V370.824H237.985V364.2H241.873ZM256.911 377.4H249.111L247.623 381H243.639L251.127 364.2H254.967L262.479 381H258.399L256.911 377.4ZM255.687 374.448L253.023 368.016L250.359 374.448H255.687ZM269.742 381.288C268.414 381.288 267.126 381.112 265.878 380.76C264.646 380.392 263.654 379.92 262.902 379.344L264.222 376.416C264.942 376.944 265.798 377.368 266.79 377.688C267.782 378.008 268.774 378.168 269.766 378.168C270.87 378.168 271.686 378.008 272.214 377.688C272.742 377.352 273.006 376.912 273.006 376.368C273.006 375.968 272.846 375.64 272.526 375.384C272.222 375.112 271.822 374.896 271.326 374.736C270.846 374.576 270.19 374.4 269.358 374.208C268.078 373.904 267.03 373.6 266.214 373.296C265.398 372.992 264.694 372.504 264.102 371.832C263.526 371.16 263.238 370.264 263.238 369.144C263.238 368.168 263.502 367.288 264.03 366.504C264.558 365.704 265.35 365.072 266.406 364.608C267.478 364.144 268.782 363.912 270.318 363.912C271.39 363.912 272.438 364.04 273.462 364.296C274.486 364.552 275.382 364.92 276.15 365.4L274.95 368.352C273.398 367.472 271.846 367.032 270.294 367.032C269.206 367.032 268.398 367.208 267.87 367.56C267.358 367.912 267.102 368.376 267.102 368.952C267.102 369.528 267.398 369.96 267.99 370.248C268.598 370.52 269.518 370.792 270.75 371.064C272.03 371.368 273.078 371.672 273.894 371.976C274.71 372.28 275.406 372.76 275.982 373.416C276.574 374.072 276.87 374.96 276.87 376.08C276.87 377.04 276.598 377.92 276.054 378.72C275.526 379.504 274.726 380.128 273.654 380.592C272.582 381.056 271.278 381.288 269.742 381.288ZM297.028 381L293.788 376.32H293.596H290.212V381H286.324V364.2H293.596C295.084 364.2 296.372 364.448 297.46 364.944C298.564 365.44 299.412 366.144 300.004 367.056C300.596 367.968 300.892 369.048 300.892 370.296C300.892 371.544 300.588 372.624 299.98 373.536C299.388 374.432 298.54 375.12 297.436 375.6L301.204 381H297.028ZM296.956 370.296C296.956 369.352 296.652 368.632 296.044 368.136C295.436 367.624 294.548 367.368 293.38 367.368H290.212V373.224H293.38C294.548 373.224 295.436 372.968 296.044 372.456C296.652 371.944 296.956 371.224 296.956 370.296ZM316.98 377.88V381H303.972V364.2H316.668V367.32H307.836V370.968H315.636V373.992H307.836V377.88H316.98ZM325.594 381.288C324.266 381.288 322.978 381.112 321.73 380.76C320.498 380.392 319.506 379.92 318.754 379.344L320.074 376.416C320.794 376.944 321.65 377.368 322.642 377.688C323.634 378.008 324.626 378.168 325.618 378.168C326.722 378.168 327.538 378.008 328.066 377.688C328.594 377.352 328.858 376.912 328.858 376.368C328.858 375.968 328.698 375.64 328.378 375.384C328.074 375.112 327.674 374.896 327.178 374.736C326.698 374.576 326.042 374.4 325.21 374.208C323.93 373.904 322.882 373.6 322.066 373.296C321.25 372.992 320.546 372.504 319.954 371.832C319.378 371.16 319.09 370.264 319.09 369.144C319.09 368.168 319.354 367.288 319.882 366.504C320.41 365.704 321.202 365.072 322.258 364.608C323.33 364.144 324.634 363.912 326.17 363.912C327.242 363.912 328.29 364.04 329.314 364.296C330.338 364.552 331.234 364.92 332.002 365.4L330.802 368.352C329.25 367.472 327.698 367.032 326.146 367.032C325.058 367.032 324.25 367.208 323.722 367.56C323.21 367.912 322.954 368.376 322.954 368.952C322.954 369.528 323.25 369.96 323.842 370.248C324.45 370.52 325.37 370.792 326.602 371.064C327.882 371.368 328.93 371.672 329.746 371.976C330.562 372.28 331.258 372.76 331.834 373.416C332.426 374.072 332.722 374.96 332.722 376.08C332.722 377.04 332.45 377.92 331.906 378.72C331.378 379.504 330.578 380.128 329.506 380.592C328.434 381.056 327.13 381.288 325.594 381.288ZM348.387 377.88V381H335.379V364.2H348.075V367.32H339.243V370.968H347.043V373.992H339.243V377.88H348.387ZM362.184 381L358.944 376.32H358.752H355.368V381H351.48V364.2H358.752C360.24 364.2 361.528 364.448 362.616 364.944C363.72 365.44 364.568 366.144 365.16 367.056C365.752 367.968 366.048 369.048 366.048 370.296C366.048 371.544 365.744 372.624 365.136 373.536C364.544 374.432 363.696 375.12 362.592 375.6L366.36 381H362.184ZM362.112 370.296C362.112 369.352 361.808 368.632 361.2 368.136C360.592 367.624 359.704 367.368 358.536 367.368H355.368V373.224H358.536C359.704 373.224 360.592 372.968 361.2 372.456C361.808 371.944 362.112 371.224 362.112 370.296ZM385.281 364.2L378.009 381H374.169L366.921 364.2H371.121L376.233 376.2L381.417 364.2H385.281ZM397.185 377.4H389.385L387.897 381H383.913L391.401 364.2H395.241L402.753 381H398.673L397.185 377.4ZM395.961 374.448L393.297 368.016L390.633 374.448H395.961ZM410.016 381.288C408.688 381.288 407.4 381.112 406.152 380.76C404.92 380.392 403.928 379.92 403.176 379.344L404.496 376.416C405.216 376.944 406.072 377.368 407.064 377.688C408.056 378.008 409.048 378.168 410.04 378.168C411.144 378.168 411.96 378.008 412.488 377.688C413.016 377.352 413.28 376.912 413.28 376.368C413.28 375.968 413.12 375.64 412.8 375.384C412.496 375.112 412.096 374.896 411.6 374.736C411.12 374.576 410.464 374.4 409.632 374.208C408.352 373.904 407.304 373.6 406.488 373.296C405.672 372.992 404.968 372.504 404.376 371.832C403.8 371.16 403.512 370.264 403.512 369.144C403.512 368.168 403.776 367.288 404.304 366.504C404.832 365.704 405.624 365.072 406.68 364.608C407.752 364.144 409.056 363.912 410.592 363.912C411.664 363.912 412.712 364.04 413.736 364.296C414.76 364.552 415.656 364.92 416.424 365.4L415.224 368.352C413.672 367.472 412.12 367.032 410.568 367.032C409.48 367.032 408.672 367.208 408.144 367.56C407.632 367.912 407.376 368.376 407.376 368.952C407.376 369.528 407.672 369.96 408.264 370.248C408.872 370.52 409.792 370.792 411.024 371.064C412.304 371.368 413.352 371.672 414.168 371.976C414.984 372.28 415.68 372.76 416.256 373.416C416.848 374.072 417.144 374.96 417.144 376.08C417.144 377.04 416.872 377.92 416.328 378.72C415.8 379.504 415 380.128 413.928 380.592C412.856 381.056 411.552 381.288 410.016 381.288Z" fill="#FE4400"/>
<path d="M430 371.5H428.5V374.5H430V371.5ZM455.061 374.061C455.646 373.475 455.646 372.525 455.061 371.939L445.515 362.393C444.929 361.808 443.979 361.808 443.393 362.393C442.808 362.979 442.808 363.929 443.393 364.515L451.879 373L443.393 381.485C442.808 382.071 442.808 383.021 443.393 383.607C443.979 384.192 444.929 384.192 445.515 383.607L455.061 374.061ZM430 374.5H454V371.5H430V374.5Z" fill="#FE4400"/>
<defs>
<clipPath id="clip0">
<rect width="336.606" height="265" fill="white" transform="translate(117 53)"/>
</clipPath>
</defs>
</svg>
