<svg width="181" height="278" viewBox="0 0 181 278" fill="none" xmlns="http://www.w3.org/2000/svg">
<g clip-path="url(#clip0)">
<path opacity="0.2" d="M180.085 106.693L177.339 106.683L166.808 106.652L164.47 106.647L157.376 106.629L155.623 106.62H154.846L118.266 106.519L117.684 106.515H117.13L114.907 106.506L108.627 106.492L105.598 106.483L99.3098 106.465V15.6785L176.881 8.84937L179.627 8.60742L180.085 106.693Z" fill="black"/>
<path d="M177.339 106.684V106.693L169.65 106.67L166.808 106.661L164.47 106.656L161.111 106.647L159.77 106.643L157.381 106.638L156.141 106.633H155.623L154.859 106.629H154.845L149.074 106.615L148.031 106.611L133.235 106.57L130.576 106.56L119.725 106.528L118.266 106.524H117.68C117.682 106.522 117.684 106.518 117.684 106.515H117.131L114.906 106.506L108.627 106.492V106.497L105.598 106.487L103.516 106.483H103.049L96.5638 106.465V15.6787L176.881 8.60742V8.84919L177.339 106.684Z" fill="#E6E6E6"/>
<path opacity="0.2" d="M136.837 7.01097C138.606 7.01097 140.04 5.5812 140.04 3.8175C140.04 2.05379 138.606 0.624023 136.837 0.624023C135.068 0.624023 133.633 2.05379 133.633 3.8175C133.633 5.5812 135.068 7.01097 136.837 7.01097Z" fill="black"/>
<path d="M135.006 7.01097C136.776 7.01097 138.21 5.5812 138.21 3.8175C138.21 2.05379 136.776 0.624023 135.006 0.624023C133.237 0.624023 131.803 2.05379 131.803 3.8175C131.803 5.5812 133.237 7.01097 135.006 7.01097Z" fill="#3F3D56"/>
<path opacity="0.2" d="M161.782 8.5925e-05L111.6 3.99683L111.892 7.63492L162.073 3.63818L161.782 8.5925e-05Z" fill="black"/>
<path d="M159.951 8.55781e-05L109.77 3.99683L110.061 7.63492L160.243 3.63818L159.951 8.55781e-05Z" fill="#E6E6E6"/>
<path opacity="0.56" d="M164.667 86.4337C161.976 76.2694 160.544 75.4847 160.544 75.4847L145.368 67.8705L145.267 67.834L136.737 74.1069L133.062 68.4682L132.879 68.3085C132.879 68.3085 132.801 68.3404 132.65 68.3997C131.332 68.9289 124.545 71.7255 119.506 75.0513L119.351 75.0284L113.406 77.9756L112.34 81.9036L111.109 86.4337L106.871 106.06V106.064L109.9 106.074V106.069L116.179 106.083L117.168 101.247L118.403 106.092H118.957C118.957 106.095 118.955 106.099 118.953 106.101H119.538L120.998 106.106L131.849 106.137L134.508 106.147L149.304 106.188L150.347 106.192L156.118 106.206H156.132L156.896 106.21V106.197L157.29 101.922L157.528 100.727L158.649 106.206L158.654 106.215L161.043 106.22L162.383 106.224L165.743 106.233L168.081 106.238V106.229C167.436 101.881 165.656 90.1746 164.667 86.4337Z" fill="#FE4400"/>
<path opacity="0.56" d="M151.495 56.3039L151.501 56.3243C151.494 56.3255 151.493 56.3186 151.495 56.3039C151.435 56.0955 150.669 53.6357 148.474 54.9015C146.185 56.2225 143.448 47.9287 143.448 47.9287C143.448 47.9287 136.555 49.8201 132.348 49.5304C132.062 49.5099 131.782 49.4428 131.519 49.3316C130.556 51.3201 130.233 53.5569 130.595 55.7355C130.957 57.914 131.986 59.9277 133.541 61.5004L132.798 68.1013L136.617 74.0231L145.103 67.6783C145.103 67.6783 145.211 69.2932 145.559 63.7622C147.203 63.0303 148.636 61.8983 149.726 60.4702C150.817 59.0422 151.53 57.3639 151.801 55.5894C151.629 55.9795 151.509 56.2332 151.495 56.3039Z" fill="#FFB8B8"/>
<path opacity="0.56" d="M151.801 56.0124C152.738 53.8865 155.251 47.6287 150.838 43.8582C147.188 40.7387 134.31 37.9546 130.194 46.2367C130.038 46.5526 129.948 46.897 129.931 47.2487C129.913 47.6004 129.968 47.9519 130.092 48.2816C130.216 48.6113 130.407 48.9121 130.652 49.1654C130.898 49.4188 131.193 49.6193 131.519 49.7546C131.578 49.6322 131.646 49.5144 131.709 49.3946C131.915 49.4671 132.13 49.5127 132.348 49.5304C136.555 49.8201 143.448 47.9288 143.448 47.9288C143.448 47.9288 146.185 56.2226 148.474 54.9016C150.668 53.6358 151.435 56.0955 151.495 56.3039C151.509 56.2332 151.629 55.9795 151.801 55.5894C151.87 55.1163 151.908 54.639 151.914 54.1609C151.916 54.2449 151.92 54.3284 151.92 54.413C151.92 54.9483 151.88 55.483 151.801 56.0124Z" fill="#2F2E41"/>
<path d="M70.4779 278C109.402 278 140.956 273.098 140.956 267.051C140.956 261.004 109.402 256.102 70.4779 256.102C31.554 256.102 0 261.004 0 267.051C0 273.098 31.554 278 70.4779 278Z" fill="#E6E6E6"/>
<path d="M179.169 244.925L163.838 262.617L163.554 262.945L73.6815 249.259V147.067H178.941L179.169 244.925Z" fill="#3F3D56"/>
<path d="M82.6397 185.619L82.5713 186.528L100.877 187.897L100.946 186.987L82.6397 185.619Z" fill="#E6E6E6"/>
<path d="M127.488 189.725L127.423 190.634L146.644 192.003L146.709 191.093L127.488 189.725Z" fill="#E6E6E6"/>
<path d="M163.637 175.582L73.4804 170.107L73.4248 171.018L114.643 173.52L115.344 255.677L116.259 255.669L115.559 173.576L163.581 176.492L163.637 175.582Z" fill="#E6E6E6"/>
<path opacity="0.2" d="M179.169 244.925L163.838 262.617V147.067H178.941L179.169 244.925Z" fill="black"/>
<path d="M79.8597 149.12H71.622V143.646L93.5891 139.54L94.9621 136.803L181 139.084V146.839L163.838 153.084L152.626 152.77C152.626 152.77 135.693 166.913 115.556 165.544C95.4197 164.175 79.8597 149.12 79.8597 149.12Z" fill="#E6E6E6"/>
<path d="M154.685 143.874L149.88 147.296L136.421 146.972C136.421 146.976 136.416 146.972 136.416 146.972H136.393L135.368 146.949H135.363L134.512 146.926L131.826 146.862L131.601 146.858L129.226 146.803L129.139 146.798L126.188 146.73L125.995 146.725L123.812 146.671L123.46 146.666L120.897 146.602L120.073 146.584L115.465 146.474L114.302 146.447L102.056 146.155C102.056 146.155 93.3283 146.589 92.9165 144.061C92.9072 143.999 92.9026 143.937 92.9027 143.874C92.9027 142.437 94.4221 142.131 95.8591 142.168C96.7132 142.199 97.5622 142.312 98.3945 142.505L101.909 142.592L104.101 142.642L110.98 142.811L116.861 142.953L118.943 143.007L121.922 143.08L123.103 143.108L127.487 143.213L129.537 143.263L133.867 143.368L154.685 143.874Z" fill="#CCCCCC"/>
<path d="M129.057 146.155C129.562 146.155 129.972 145.747 129.972 145.243C129.972 144.739 129.562 144.33 129.057 144.33C128.551 144.33 128.142 144.739 128.142 145.243C128.142 145.747 128.551 146.155 129.057 146.155Z" fill="#3F3D56"/>
<path d="M129.515 142.962C134.317 142.962 138.21 142.553 138.21 142.049C138.21 141.545 134.317 141.137 129.515 141.137C124.712 141.137 120.819 141.545 120.819 142.049C120.819 142.553 124.712 142.962 129.515 142.962Z" fill="#CCCCCC"/>
<path d="M124.073 130.453L131.66 132.297L130.793 135.842L119.908 133.197L119.971 132.939C120.184 132.067 120.736 131.316 121.505 130.849C122.274 130.383 123.198 130.24 124.073 130.453Z" fill="#3F3D56"/>
<path d="M121.207 133.314L125.28 133.925L125.26 134.056C125.193 134.5 124.952 134.899 124.59 135.165C124.228 135.432 123.775 135.544 123.33 135.478L122.613 135.37C122.168 135.304 121.768 135.064 121.5 134.703C121.233 134.342 121.12 133.89 121.187 133.446L121.207 133.314L121.207 133.314Z" fill="#3F3D56"/>
<path opacity="0.2" d="M130.793 134.93L125.103 133.547C124.932 133.893 124.656 134.177 124.313 134.356C123.971 134.536 123.58 134.602 123.198 134.545L122.745 134.478C122.3 134.41 121.896 134.181 121.61 133.834C121.324 133.487 121.177 133.047 121.197 132.598L120.228 132.363C120.087 132.627 119.98 132.907 119.907 133.197L121.197 133.511C121.177 133.959 121.324 134.399 121.61 134.746C121.896 135.093 122.3 135.323 122.745 135.39L123.198 135.458C123.58 135.514 123.971 135.448 124.313 135.269C124.656 135.089 124.932 134.806 125.103 134.46L130.793 135.842L131.66 132.297L131.45 132.245L130.793 134.93Z" fill="black"/>
<path d="M129.834 142.505C129.38 142.505 128.931 142.413 128.514 142.235C128.097 142.056 127.721 141.795 127.409 141.467C127.097 141.139 126.855 140.751 126.698 140.326C126.541 139.902 126.472 139.45 126.496 138.999L126.998 129.503L133.176 129.275V139.174C133.176 139.611 133.089 140.045 132.921 140.449C132.753 140.853 132.507 141.22 132.197 141.53C131.887 141.839 131.518 142.084 131.113 142.252C130.707 142.419 130.273 142.505 129.834 142.505Z" fill="#3F3D56"/>
<path d="M132.718 129.504H127.154C128.119 128.044 127.517 126.549 126.167 125.037C126.089 124.949 126.039 124.841 126.021 124.726C126.004 124.61 126.02 124.492 126.068 124.386C126.117 124.279 126.195 124.189 126.293 124.126C126.392 124.063 126.506 124.029 126.623 124.029H128.744C130.939 124.029 132.718 126.072 132.718 128.591V129.504Z" fill="#3F3D56"/>
<path opacity="0.2" d="M127.997 125.037C127.92 124.949 127.869 124.841 127.852 124.726C127.834 124.61 127.851 124.492 127.899 124.386C127.947 124.279 128.025 124.189 128.124 124.126C128.222 124.062 128.337 124.029 128.454 124.029H126.623C126.506 124.029 126.392 124.062 126.293 124.126C126.195 124.189 126.117 124.279 126.068 124.386C126.02 124.492 126.004 124.61 126.021 124.726C126.039 124.841 126.089 124.949 126.167 125.037C127.517 126.549 128.119 128.044 127.154 129.503H128.985C129.95 128.044 129.348 126.549 127.997 125.037Z" fill="black"/>
<path d="M101.592 134.881L108.63 137.361C108.63 137.361 125.372 138.692 123.2 142.937C121.027 147.183 106.698 144.44 106.698 144.44L99.9124 139.743L101.592 134.881Z" fill="#FFB8B8"/>
<path d="M112.124 141.137C111.656 141.138 111.205 141.318 110.866 141.64C110.527 141.962 110.326 142.402 110.303 142.868C110.2 142.775 110.084 142.697 109.959 142.638C110.304 142.404 110.559 142.059 110.681 141.66C110.804 141.262 110.786 140.833 110.631 140.446C110.476 140.059 110.193 139.737 109.829 139.532C109.465 139.326 109.042 139.251 108.629 139.319C108.217 139.386 107.84 139.592 107.56 139.902C107.281 140.212 107.116 140.607 107.093 141.023C107.069 141.439 107.189 141.851 107.433 142.19C107.676 142.529 108.028 142.775 108.431 142.887C108.274 143.036 108.155 143.22 108.084 143.423C108.012 143.626 107.99 143.843 108.018 144.057C108.047 144.271 108.126 144.474 108.249 144.652C108.371 144.829 108.534 144.975 108.724 145.078C108.914 145.18 109.126 145.237 109.342 145.242C109.558 145.248 109.773 145.202 109.968 145.11C110.163 145.017 110.333 144.879 110.465 144.709C110.597 144.538 110.686 144.338 110.725 144.126C110.923 144.362 111.176 144.543 111.463 144.655C111.749 144.766 112.059 144.804 112.364 144.764C112.669 144.725 112.959 144.609 113.207 144.428C113.455 144.246 113.653 144.006 113.783 143.728C113.913 143.45 113.971 143.144 113.951 142.838C113.93 142.532 113.833 142.237 113.667 141.978C113.502 141.72 113.274 141.507 113.004 141.36C112.734 141.213 112.431 141.136 112.124 141.137Z" fill="white"/>
<path d="M115.327 142.049C114.859 142.05 114.409 142.23 114.07 142.552C113.731 142.875 113.529 143.314 113.506 143.781C113.404 143.687 113.288 143.609 113.162 143.55C113.508 143.316 113.763 142.971 113.885 142.572C114.007 142.174 113.989 141.746 113.834 141.359C113.679 140.972 113.397 140.649 113.033 140.444C112.669 140.239 112.245 140.164 111.833 140.231C111.42 140.298 111.043 140.504 110.764 140.814C110.484 141.124 110.319 141.52 110.296 141.936C110.273 142.352 110.393 142.763 110.636 143.102C110.879 143.441 111.231 143.687 111.634 143.8C111.478 143.948 111.359 144.132 111.287 144.335C111.216 144.539 111.193 144.756 111.222 144.969C111.251 145.183 111.329 145.387 111.452 145.564C111.575 145.742 111.738 145.888 111.928 145.99C112.118 146.093 112.33 146.149 112.546 146.155C112.762 146.16 112.976 146.115 113.171 146.022C113.366 145.929 113.537 145.792 113.668 145.621C113.8 145.45 113.889 145.251 113.929 145.039C114.126 145.274 114.38 145.456 114.666 145.567C114.953 145.679 115.263 145.716 115.568 145.677C115.873 145.637 116.162 145.521 116.411 145.34C116.659 145.159 116.857 144.918 116.987 144.64C117.117 144.363 117.174 144.057 117.154 143.751C117.134 143.445 117.036 143.149 116.871 142.891C116.706 142.632 116.477 142.42 116.207 142.273C115.938 142.125 115.635 142.049 115.327 142.049Z" fill="white"/>
<path d="M106.714 134.681L100.344 145.17L86.9486 136.205L71.5625 125.913L62.2859 101.633L52.8538 84.4161L64.6749 80.9443C64.6749 80.9443 68.7434 81.0994 74.0018 90.7209C79.2556 100.347 83.9373 117.008 83.9373 117.008L90.2208 121.885L106.714 134.681Z" fill="#FE4400"/>
<path opacity="0.2" d="M106.714 134.681L100.344 145.17L86.9486 136.205L71.5625 125.913L62.2859 101.633L52.8538 84.4161L64.6749 80.9443C64.6749 80.9443 68.7434 81.0994 74.0018 90.7209C79.2556 100.347 83.9373 117.008 83.9373 117.008L90.2208 121.885L106.714 134.681Z" fill="black"/>
<path d="M136.393 146.972L120.073 146.584L118.778 145.12L117.863 144.084L116.861 142.953L115.748 141.698L117.643 138.769L118.545 137.373L122.197 139.764L124.787 141.456C124.787 141.456 126.956 142.177 129.537 143.263C131.935 144.276 134.695 145.608 136.393 146.972Z" fill="#FFB8B8"/>
<path d="M73.2291 63.3849C79.4094 63.3849 84.4196 58.3905 84.4196 52.2296C84.4196 46.0686 79.4094 41.0742 73.2291 41.0742C67.0487 41.0742 62.0386 46.0686 62.0386 52.2296C62.0386 58.3905 67.0487 63.3849 73.2291 63.3849Z" fill="#FFB8B8"/>
<path d="M64.5564 55.2974L63.4374 71.4726L77.4255 73.1459C77.4255 73.1459 77.4255 59.7595 78.5445 58.0862C79.6636 56.4129 64.5564 55.2974 64.5564 55.2974Z" fill="#FFB8B8"/>
<path d="M95.6101 76.2136L77.4911 68.5647C77.4911 68.5647 68.8358 61.9071 63.7586 66.8293L61.479 70.0782C61.479 70.0782 47.5954 77.5189 47.5954 83.6543L49.1695 114.7C49.1695 114.7 44.6933 131.99 51.4076 133.106L87.7767 136.452C87.7767 136.452 92.8124 130.317 88.3362 122.508L90.0148 104.102L95.6101 76.2136Z" fill="#FE4400"/>
<path d="M83.3005 76.7714L95.6101 76.2136C95.6101 76.2136 96.5121 77.1626 99.3097 87.7602C102.107 98.3578 105.682 115.815 105.682 115.815L123.565 138.4L114.87 147.068L91.5297 121.52L88.3363 95.7355L83.3005 76.7714Z" fill="#FE4400"/>
<path d="M89.4553 135.337L49.2272 131.809C49.2272 131.809 45.2528 157.09 45.8123 167.13C46.3718 177.17 46.9314 192.787 46.9314 192.787L42.4552 260.835L59.8005 258.604L62.0385 202.269L69.3124 171.592L77.7052 210.636L83.3005 260.835L98.4077 259.161L93.372 198.365C93.372 198.365 97.8482 143.703 89.4553 135.337Z" fill="#2F2E41"/>
<path d="M95.0506 256.373L100.086 258.046C100.086 258.046 110.717 255.257 107.92 262.508C105.122 269.759 97.2887 268.643 97.2887 268.643C97.2887 268.643 87.7768 275.894 83.8601 270.317L86.0982 258.604L95.0506 256.373Z" fill="#2F2E41"/>
<path d="M54.2052 256.373L59.2409 258.046C59.2409 258.046 69.8719 255.257 67.0743 262.508C64.2767 269.759 56.4433 268.643 56.4433 268.643C56.4433 268.643 46.9314 275.894 43.0147 270.317L45.2528 258.604L54.2052 256.373Z" fill="#2F2E41"/>
<path d="M64.5564 61.9904C64.5564 61.9904 52.8064 53.6239 58.9611 43.5841C63.231 36.6191 72.0787 37.1704 77.0976 38.1614C78.4497 38.4101 79.7209 38.983 80.8015 39.8305C81.8821 40.6781 82.7397 41.7748 83.3005 43.0263C84.1398 44.9785 84.1397 46.9307 80.7826 46.9307C74.0683 46.9307 77.4255 51.9506 77.4255 51.9506C77.4255 51.9506 72.9492 53.0661 74.0683 56.9705C75.1873 60.8749 64.5564 61.9904 64.5564 61.9904Z" fill="#2F2E41"/>
<path d="M135.922 147.068C136.68 147.068 137.295 146.455 137.295 145.699C137.295 144.943 136.68 144.33 135.922 144.33C135.163 144.33 134.549 144.943 134.549 145.699C134.549 146.455 135.163 147.068 135.922 147.068Z" fill="white"/>
<path d="M134.549 144.786C134.549 144.514 134.488 144.245 134.37 143.999C134.252 143.754 134.08 143.538 133.867 143.368C133.541 143.106 133.136 142.963 132.718 142.962C132.695 142.962 132.677 142.966 132.654 142.966C132.562 142.601 132.358 142.273 132.07 142.028C131.782 141.783 131.426 141.634 131.049 141.6C130.672 141.567 130.295 141.651 129.968 141.841C129.641 142.031 129.382 142.317 129.226 142.661C128.936 142.509 128.601 142.467 128.282 142.542C127.963 142.618 127.682 142.805 127.492 143.071C126.144 142.9 124.825 142.556 123.565 142.049C123.222 142.049 122.885 142.146 122.594 142.328C122.303 142.51 122.07 142.771 121.922 143.08C121.797 143.326 121.733 143.598 121.734 143.874C121.736 144.203 121.828 144.525 122 144.805C121.673 144.85 121.374 145.012 121.157 145.26C120.94 145.508 120.82 145.826 120.819 146.155C120.819 146.308 120.845 146.459 120.897 146.602L123.46 146.666C123.495 146.583 123.521 146.495 123.538 146.406C123.62 146.503 123.712 146.592 123.812 146.671L125.995 146.725L126.119 146.63C126.139 146.665 126.162 146.698 126.187 146.73L129.139 146.798C129.157 146.778 129.174 146.757 129.19 146.734C129.2 146.758 129.212 146.781 129.226 146.803L131.601 146.858C131.697 146.702 131.759 146.528 131.784 146.347C131.797 146.356 131.811 146.364 131.826 146.37C131.811 146.449 131.804 146.53 131.803 146.611C131.803 146.695 131.811 146.779 131.826 146.862L134.512 146.926C134.536 146.823 134.548 146.717 134.549 146.611C134.547 146.307 134.444 146.012 134.256 145.772C134.447 145.478 134.548 145.136 134.549 144.786ZM129.647 144.75C129.569 144.845 129.478 144.93 129.377 145.001C129.405 145.069 129.418 145.142 129.441 145.211C129.557 145.088 129.695 144.989 129.849 144.919C129.777 144.868 129.71 144.811 129.647 144.75V144.75Z" fill="white"/>
<path d="M148.278 147.524C149.036 147.524 149.651 146.911 149.651 146.155C149.651 145.399 149.036 144.786 148.278 144.786C147.52 144.786 146.905 145.399 146.905 146.155C146.905 146.911 147.52 147.524 148.278 147.524Z" fill="white"/>
<path d="M146.905 145.243C146.906 144.97 146.845 144.701 146.727 144.456C146.609 144.21 146.437 143.994 146.223 143.824C145.898 143.562 145.493 143.419 145.075 143.418C145.052 143.418 145.033 143.423 145.011 143.423C144.918 143.057 144.714 142.729 144.427 142.484C144.139 142.24 143.782 142.09 143.406 142.057C143.029 142.023 142.651 142.107 142.325 142.297C141.998 142.487 141.739 142.773 141.583 143.117C141.293 142.965 140.957 142.923 140.638 142.998C140.32 143.074 140.039 143.262 139.848 143.527C138.501 143.356 137.181 143.013 135.922 142.506C135.578 142.505 135.241 142.602 134.951 142.784C134.66 142.967 134.427 143.228 134.279 143.537C134.154 143.783 134.09 144.055 134.091 144.33C134.093 144.659 134.184 144.981 134.356 145.261C134.03 145.307 133.73 145.468 133.513 145.717C133.296 145.965 133.176 146.282 133.176 146.611C133.176 146.764 133.202 146.915 133.254 147.059L135.816 147.122C135.852 147.039 135.878 146.952 135.894 146.862C135.976 146.96 136.068 147.048 136.169 147.127L138.352 147.182L138.475 147.086C138.496 147.121 138.518 147.155 138.544 147.186L141.496 147.255C141.514 147.235 141.531 147.213 141.546 147.191C141.557 147.215 141.569 147.237 141.583 147.259L143.958 147.314C144.053 147.158 144.115 146.984 144.141 146.803C144.154 146.812 144.168 146.82 144.182 146.826C144.168 146.906 144.16 146.987 144.159 147.068C144.16 147.152 144.168 147.236 144.182 147.319L146.869 147.382C146.893 147.279 146.905 147.174 146.905 147.068C146.903 146.763 146.8 146.468 146.612 146.228C146.803 145.935 146.905 145.593 146.905 145.243ZM142.004 145.206C141.925 145.301 141.834 145.386 141.734 145.457C141.761 145.526 141.775 145.599 141.798 145.667C141.913 145.544 142.052 145.445 142.205 145.375C142.134 145.324 142.067 145.267 142.004 145.206H142.004Z" fill="white"/>
<path d="M128.485 146.611C129.054 146.611 129.515 146.152 129.515 145.585C129.515 145.018 129.054 144.558 128.485 144.558C127.916 144.558 127.455 145.018 127.455 145.585C127.455 146.152 127.916 146.611 128.485 146.611Z" fill="white"/>
<path d="M127.455 144.9C127.456 144.696 127.41 144.494 127.321 144.31C127.233 144.126 127.104 143.964 126.944 143.836C126.7 143.64 126.396 143.533 126.082 143.532C126.065 143.532 126.051 143.535 126.034 143.535C125.965 143.261 125.812 143.015 125.596 142.832C125.38 142.648 125.113 142.536 124.83 142.511C124.548 142.486 124.265 142.549 124.02 142.691C123.775 142.834 123.58 143.048 123.463 143.306C123.246 143.192 122.994 143.161 122.755 143.217C122.516 143.274 122.305 143.415 122.162 143.614C121.152 143.486 120.162 143.228 119.217 142.848C118.96 142.847 118.707 142.92 118.489 143.057C118.271 143.193 118.096 143.389 117.985 143.621C117.892 143.805 117.843 144.009 117.845 144.216C117.846 144.463 117.915 144.704 118.044 144.914C117.798 144.948 117.574 145.07 117.411 145.256C117.248 145.442 117.159 145.68 117.158 145.927C117.158 146.041 117.178 146.155 117.216 146.262L119.139 146.31C119.165 146.248 119.185 146.182 119.197 146.115C119.259 146.188 119.328 146.255 119.403 146.314L121.04 146.355L121.133 146.283C121.148 146.309 121.165 146.334 121.184 146.358L123.398 146.409C123.412 146.394 123.424 146.378 123.436 146.361C123.444 146.379 123.453 146.396 123.463 146.413L125.245 146.454C125.316 146.337 125.363 146.206 125.382 146.071C125.392 146.078 125.402 146.083 125.413 146.088C125.402 146.148 125.396 146.208 125.396 146.269C125.396 146.332 125.402 146.395 125.413 146.457L127.428 146.505C127.446 146.428 127.455 146.349 127.455 146.269C127.454 146.041 127.377 145.819 127.235 145.64C127.379 145.419 127.455 145.163 127.455 144.9ZM123.779 144.873C123.72 144.944 123.652 145.008 123.577 145.061C123.597 145.113 123.607 145.167 123.625 145.219C123.711 145.127 123.815 145.052 123.93 145C123.877 144.961 123.826 144.919 123.779 144.873Z" fill="white"/>
<path d="M113.84 146.611C114.409 146.611 114.87 146.152 114.87 145.585C114.87 145.018 114.409 144.558 113.84 144.558C113.271 144.558 112.81 145.018 112.81 145.585C112.81 146.152 113.271 146.611 113.84 146.611Z" fill="white"/>
<path d="M112.81 144.9C112.811 144.696 112.765 144.494 112.677 144.31C112.588 144.126 112.459 143.964 112.299 143.836C112.055 143.64 111.751 143.533 111.437 143.532C111.42 143.532 111.407 143.535 111.389 143.535C111.32 143.261 111.167 143.015 110.951 142.832C110.736 142.648 110.468 142.536 110.186 142.511C109.903 142.486 109.62 142.549 109.375 142.691C109.13 142.834 108.935 143.048 108.819 143.306C108.601 143.192 108.349 143.161 108.11 143.217C107.871 143.274 107.661 143.415 107.518 143.614C106.507 143.486 105.517 143.228 104.573 142.848C104.315 142.847 104.063 142.92 103.844 143.057C103.626 143.193 103.452 143.389 103.34 143.621C103.247 143.805 103.199 144.009 103.2 144.216C103.201 144.463 103.27 144.704 103.399 144.914C103.154 144.948 102.929 145.07 102.766 145.256C102.604 145.442 102.514 145.68 102.513 145.927C102.513 146.041 102.533 146.155 102.572 146.262L104.494 146.31C104.52 146.248 104.54 146.182 104.552 146.115C104.614 146.188 104.683 146.255 104.758 146.314L106.395 146.355L106.488 146.283C106.503 146.309 106.52 146.334 106.539 146.358L108.753 146.409C108.767 146.394 108.78 146.378 108.791 146.361C108.799 146.379 108.808 146.396 108.819 146.413L110.6 146.454C110.671 146.337 110.718 146.206 110.737 146.071C110.747 146.078 110.757 146.083 110.768 146.088C110.757 146.148 110.752 146.208 110.751 146.269C110.751 146.332 110.757 146.395 110.768 146.457L112.783 146.505C112.801 146.428 112.81 146.349 112.81 146.269C112.809 146.041 112.732 145.819 112.591 145.64C112.734 145.419 112.81 145.163 112.81 144.9ZM109.134 144.873C109.075 144.944 109.007 145.008 108.932 145.061C108.952 145.113 108.963 145.167 108.98 145.219C109.067 145.127 109.17 145.052 109.285 145C109.232 144.961 109.181 144.919 109.134 144.873Z" fill="white"/>
<path d="M161.893 131.757V129.02H159.605V129.476C159.352 129.476 159.147 129.782 159.147 130.16C159.147 130.538 159.352 130.845 159.605 130.845V131.757H157.774V140.881H163.724V131.757H161.893Z" fill="#3F3D56"/>
<path d="M76.4057 60.6685L78.8744 63.0134C81.4168 61.736 83.8725 58.2938 84.5656 55.4727L81.3266 54.1174C81.1151 56.9948 79.0696 58.9077 76.4057 60.6685Z" fill="#E6E6E6"/>
<path d="M77.2964 52.4C77.3035 52.4062 77.3111 52.4118 77.3193 52.4167L82.1471 55.304C82.1695 55.3174 82.1953 55.3255 82.223 55.3277C82.2508 55.3299 82.2799 55.3262 82.3087 55.3169C82.3375 55.3075 82.3655 55.2927 82.391 55.2732C82.4165 55.2538 82.4391 55.23 82.4574 55.2034C82.4758 55.1767 82.4895 55.1477 82.4979 55.118C82.5063 55.0882 82.5091 55.0583 82.5063 55.03C82.5034 55.0017 82.4949 54.9754 82.4812 54.9528C82.4675 54.9302 82.449 54.9117 82.4266 54.8983L77.5987 52.011C77.5555 51.9851 77.5006 51.9796 77.445 51.9957C77.3893 52.0117 77.3371 52.048 77.2988 52.0973C77.2604 52.1466 77.2389 52.2053 77.2384 52.2614C77.238 52.3176 77.2587 52.3671 77.2964 52.4Z" fill="#E6E6E6"/>
<path d="M76.2084 60.7894C76.2428 60.7895 76.2767 60.7803 76.3066 60.763C76.3365 60.7456 76.3614 60.7205 76.3788 60.6904C76.3962 60.6602 76.4055 60.6259 76.4057 60.591C76.406 60.556 76.3972 60.5216 76.3803 60.4911L74.5497 57.1853C74.5371 57.1623 74.5201 57.142 74.4997 57.1257C74.4793 57.1094 74.456 57.0974 74.431 57.0902C74.406 57.0831 74.3799 57.0811 74.3541 57.0842C74.3283 57.0873 74.3034 57.0956 74.2808 57.1085C74.2582 57.1214 74.2383 57.1387 74.2223 57.1594C74.2063 57.1801 74.1945 57.2039 74.1875 57.2292C74.1806 57.2546 74.1786 57.2811 74.1818 57.3072C74.185 57.3334 74.1932 57.3586 74.206 57.3815L76.0365 60.6874C76.0536 60.7184 76.0786 60.7442 76.1088 60.7621C76.139 60.78 76.1734 60.7895 76.2084 60.7894Z" fill="#E6E6E6"/>
<path d="M141.982 57.4438C141.936 57.433 141.894 57.408 141.862 57.3723C141.831 57.3367 141.811 57.2922 141.806 57.2449C141.801 57.1977 141.811 57.1501 141.834 57.1086C141.858 57.0672 141.893 57.034 141.936 57.0137L147.243 54.4987C147.271 54.4856 147.3 54.4779 147.331 54.4763C147.361 54.4746 147.391 54.4789 147.42 54.489C147.448 54.499 147.474 54.5146 147.497 54.5349C147.519 54.5551 147.538 54.5796 147.55 54.6069C147.563 54.6343 147.571 54.6639 147.572 54.6941C147.574 54.7243 147.569 54.7544 147.559 54.7829C147.549 54.8113 147.533 54.8375 147.513 54.8598C147.492 54.8821 147.468 54.9002 147.44 54.9129L142.133 57.428C142.086 57.4502 142.033 57.4558 141.982 57.4438Z" fill="white"/>
<path d="M141.055 62.8757C140.929 62.9729 140.802 63.0702 140.673 63.1575C139.362 63.4146 138.01 63.3766 136.715 63.0463C135.42 62.7159 134.215 62.1015 133.188 61.2476C132.16 60.3938 131.336 59.322 130.775 58.1102C130.214 56.8983 129.931 55.5769 129.945 54.2419L134.359 54.4622L142.401 57.18C139.975 59.0282 140.015 59.8758 141.055 62.8757Z" fill="white"/>
</g>
<defs>
<clipPath id="clip0">
<rect width="181" height="278" fill="white"/>
</clipPath>
</defs>
</svg>
