<svg width="305" height="265" viewBox="0 0 305 265" fill="none" xmlns="http://www.w3.org/2000/svg">
<g clip-path="url(#clip0)">
<path d="M263.856 265C286.34 265 304.567 263.61 304.567 261.895C304.567 260.18 286.34 258.79 263.856 258.79C241.372 258.79 223.145 260.18 223.145 261.895C223.145 263.61 241.372 265 263.856 265Z" fill="#85858A"/>
<path d="M279.631 172.999L275.694 183.981C275.395 184.813 275.394 185.723 275.689 186.557C275.985 187.39 276.559 188.095 277.316 188.554C277.866 188.887 278.491 189.077 279.134 189.105C279.777 189.133 280.417 188.999 280.994 188.715C281.572 188.431 282.069 188.006 282.439 187.48C282.809 186.953 283.041 186.342 283.112 185.703L284.362 174.576L293.824 143.297L285.676 139.354L279.631 172.999Z" fill="#A0616A"/>
<path d="M276.345 255.927H282.128V199.678L268.985 199.415L276.345 255.927Z" fill="#A0616A"/>
<path d="M250.586 255.927H256.368V199.678L243.226 199.415L250.586 255.927Z" fill="#A0616A"/>
<path d="M283.048 205.592L268.065 204.014L264.911 187.455L259.128 204.277L241.255 202.437L248.614 174.575C262.068 165.434 274.845 165.634 286.99 174.575L283.048 205.592Z" fill="#2F2E41"/>
<path d="M257.646 258.322C257.735 259.036 257.659 259.761 257.424 260.441C257.188 261.12 256.8 261.737 256.289 262.243C255.778 262.749 255.157 263.13 254.475 263.358C253.793 263.587 253.068 263.655 252.355 263.558L241.702 262.113C240.749 261.965 239.894 261.444 239.325 260.666C238.756 259.888 238.518 258.916 238.665 257.963C238.797 257.103 239.233 256.319 239.893 255.753C240.553 255.187 241.394 254.875 242.263 254.875H244.02L249.799 249.61C249.855 253.197 252.497 252.4 256.861 252.05L257.646 258.322Z" fill="#2F2E41"/>
<path d="M283.405 258.322C283.494 259.036 283.418 259.761 283.183 260.441C282.948 261.12 282.559 261.737 282.048 262.243C281.537 262.749 280.916 263.13 280.234 263.358C279.552 263.587 278.827 263.655 278.114 263.558L267.461 262.113C266.508 261.965 265.654 261.444 265.084 260.666C264.515 259.888 264.277 258.916 264.424 257.963C264.556 257.103 264.992 256.319 265.652 255.753C266.312 255.187 267.153 254.875 268.022 254.875H269.779L275.558 249.61C275.615 253.197 278.256 252.4 282.621 252.05L283.405 258.322Z" fill="#2F2E41"/>
<path d="M262.874 109.915C267.991 109.915 272.139 105.766 272.139 100.649C272.139 95.5321 267.991 91.3838 262.874 91.3838C257.757 91.3838 253.609 95.5321 253.609 100.649C253.609 105.766 257.757 109.915 262.874 109.915Z" fill="#A0616A"/>
<path d="M274.637 116.223L263.071 117.275V107.023L269.117 103.344L274.637 116.223Z" fill="#A0616A"/>
<path d="M288.305 178.519C276.67 169.999 262.699 170.865 247.3 177.467C254.277 157.717 257.249 139.31 251.769 123.739C251.769 120.988 252.684 118.315 254.372 116.142C256.059 113.969 258.421 112.419 261.087 111.737L263.071 111.229L272.797 111.755L281.929 117.109C283.791 118.2 285.337 119.758 286.415 121.629C287.492 123.5 288.064 125.619 288.074 127.778L288.305 178.519Z" fill="#85858A"/>
<path d="M243.358 170.896L239.421 181.878C239.122 182.71 239.121 183.62 239.416 184.453C239.712 185.286 240.286 185.992 241.042 186.45C241.593 186.784 242.218 186.973 242.861 187.002C243.504 187.03 244.144 186.896 244.721 186.612C245.299 186.328 245.796 185.903 246.166 185.376C246.536 184.85 246.768 184.239 246.839 183.599L248.089 172.473L257.551 141.194L249.403 137.251L243.358 170.896Z" fill="#A0616A"/>
<path d="M295.927 149.343H283.048V117.801C285.275 119.038 287.21 120.74 288.722 122.792C290.234 124.843 291.287 127.195 291.809 129.69L295.927 149.343Z" fill="#85858A"/>
<path d="M255.81 95.6326C255.244 95.9 254.62 96.0223 253.995 95.9884C253.37 95.9546 252.763 95.7657 252.229 95.4388C251.706 95.0937 251.312 94.5864 251.106 93.995C250.9 93.4037 250.895 92.7611 251.09 92.1663C251.481 91.1618 252.469 90.5328 253.429 90.0414C255.545 88.958 257.812 88.2006 260.154 87.7946C261.271 87.6014 262.454 87.4952 263.509 87.9079C264.031 88.1122 264.5 88.4357 265.018 88.6495C265.971 89.0428 267.035 89.0445 268.043 89.2578C269.076 89.4833 270.048 89.9281 270.894 90.562C271.74 91.1958 272.44 92.004 272.947 92.9319C273.279 93.5632 273.534 94.2321 273.706 94.9243C274.192 96.8179 274.186 98.8044 273.688 100.695C272.894 103.69 270.875 106.441 271.057 109.534C269.564 108.665 268.864 106.895 267.618 105.699C266.691 104.815 265.492 104.272 264.216 104.158C263.868 104.172 263.523 104.084 263.223 103.905C263.006 103.693 262.856 103.421 262.791 103.124L261.387 98.7252C261.101 97.8299 260.756 96.8572 259.948 96.377C259.45 96.1246 258.9 95.991 258.341 95.9865C257.005 95.8892 255.664 95.9019 254.33 96.0242" fill="#2F2E41"/>
<path d="M258.866 143.56L243.883 137.777L250.687 119.444C251.48 117.309 252.871 115.448 254.695 114.084C256.518 112.72 258.697 111.912 260.968 111.755L258.866 143.56Z" fill="#85858A"/>
<path d="M178.263 196.271H13.7158C12.9349 196.27 12.1862 195.959 11.6341 195.407C11.0819 194.855 10.7713 194.106 10.7704 193.326V13.8555C10.7713 13.0746 11.0819 12.3259 11.6341 11.7738C12.1862 11.2216 12.9349 10.911 13.7158 10.9102H178.263C179.044 10.911 179.792 11.2216 180.344 11.7738C180.897 12.3259 181.207 13.0746 181.208 13.8555V193.326C181.207 194.106 180.897 194.855 180.344 195.407C179.792 195.959 179.044 196.27 178.263 196.271ZM13.7158 12.0883C13.2473 12.0888 12.7981 12.2752 12.4668 12.6065C12.1355 12.9378 11.9491 13.387 11.9486 13.8555V193.326C11.9491 193.794 12.1355 194.243 12.4668 194.575C12.7981 194.906 13.2473 195.092 13.7158 195.093H178.263C178.731 195.092 179.18 194.906 179.512 194.575C179.843 194.243 180.029 193.794 180.03 193.326V13.8555C180.029 13.387 179.843 12.9378 179.512 12.6065C179.18 12.2752 178.731 12.0888 178.263 12.0883H13.7158Z" fill="#85858A"/>
<path d="M47.6707 77.8071C49.8055 77.8071 51.5362 76.0765 51.5362 73.9417C51.5362 71.8068 49.8055 70.0762 47.6707 70.0762C45.5358 70.0762 43.8052 71.8068 43.8052 73.9417C43.8052 76.0765 45.5358 77.8071 47.6707 77.8071Z" fill="#85858A"/>
<path d="M63.7769 77.8071C65.9117 77.8071 67.6424 76.0765 67.6424 73.9417C67.6424 71.8068 65.9117 70.0762 63.7769 70.0762C61.642 70.0762 59.9114 71.8068 59.9114 73.9417C59.9114 76.0765 61.642 77.8071 63.7769 77.8071Z" fill="#85858A"/>
<path d="M79.8831 77.8071C82.0179 77.8071 83.7486 76.0765 83.7486 73.9417C83.7486 71.8068 82.0179 70.0762 79.8831 70.0762C77.7482 70.0762 76.0176 71.8068 76.0176 73.9417C76.0176 76.0765 77.7482 77.8071 79.8831 77.8071Z" fill="#FE4400"/>
<path d="M95.9893 77.8071C98.1241 77.8071 99.8548 76.0765 99.8548 73.9417C99.8548 71.8068 98.1241 70.0762 95.9893 70.0762C93.8544 70.0762 92.1238 71.8068 92.1238 73.9417C92.1238 76.0765 93.8544 77.8071 95.9893 77.8071Z" fill="#FE4400"/>
<path d="M112.095 77.8071C114.23 77.8071 115.961 76.0765 115.961 73.9417C115.961 71.8068 114.23 70.0762 112.095 70.0762C109.961 70.0762 108.23 71.8068 108.23 73.9417C108.23 76.0765 109.961 77.8071 112.095 77.8071Z" fill="#FE4400"/>
<path d="M128.202 77.8071C130.336 77.8071 132.067 76.0765 132.067 73.9417C132.067 71.8068 130.336 70.0762 128.202 70.0762C126.067 70.0762 124.336 71.8068 124.336 73.9417C124.336 76.0765 126.067 77.8071 128.202 77.8071Z" fill="#85858A"/>
<path d="M144.308 77.8071C146.443 77.8071 148.173 76.0765 148.173 73.9417C148.173 71.8068 146.443 70.0762 144.308 70.0762C142.173 70.0762 140.442 71.8068 140.442 73.9417C140.442 76.0765 142.173 77.8071 144.308 77.8071Z" fill="#85858A"/>
<path d="M47.6707 90.0474C49.8055 90.0474 51.5362 88.3167 51.5362 86.1819C51.5362 84.047 49.8055 82.3164 47.6707 82.3164C45.5358 82.3164 43.8052 84.047 43.8052 86.1819C43.8052 88.3167 45.5358 90.0474 47.6707 90.0474Z" fill="#85858A"/>
<path d="M63.7769 90.0474C65.9117 90.0474 67.6424 88.3167 67.6424 86.1819C67.6424 84.047 65.9117 82.3164 63.7769 82.3164C61.642 82.3164 59.9114 84.047 59.9114 86.1819C59.9114 88.3167 61.642 90.0474 63.7769 90.0474Z" fill="#85858A"/>
<path d="M79.8831 90.0474C82.0179 90.0474 83.7486 88.3167 83.7486 86.1819C83.7486 84.047 82.0179 82.3164 79.8831 82.3164C77.7482 82.3164 76.0176 84.047 76.0176 86.1819C76.0176 88.3167 77.7482 90.0474 79.8831 90.0474Z" fill="#85858A"/>
<path d="M95.9893 90.0474C98.1241 90.0474 99.8548 88.3167 99.8548 86.1819C99.8548 84.047 98.1241 82.3164 95.9893 82.3164C93.8544 82.3164 92.1238 84.047 92.1238 86.1819C92.1238 88.3167 93.8544 90.0474 95.9893 90.0474Z" fill="#85858A"/>
<path d="M112.095 90.0474C114.23 90.0474 115.961 88.3167 115.961 86.1819C115.961 84.047 114.23 82.3164 112.095 82.3164C109.961 82.3164 108.23 84.047 108.23 86.1819C108.23 88.3167 109.961 90.0474 112.095 90.0474Z" fill="#85858A"/>
<path d="M128.202 90.0474C130.336 90.0474 132.067 88.3167 132.067 86.1819C132.067 84.047 130.336 82.3164 128.202 82.3164C126.067 82.3164 124.336 84.047 124.336 86.1819C124.336 88.3167 126.067 90.0474 128.202 90.0474Z" fill="#85858A"/>
<path d="M144.308 90.0474C146.443 90.0474 148.173 88.3167 148.173 86.1819C148.173 84.047 146.443 82.3164 144.308 82.3164C142.173 82.3164 140.442 84.047 140.442 86.1819C140.442 88.3167 142.173 90.0474 144.308 90.0474Z" fill="#85858A"/>
<path d="M47.6707 102.289C49.8055 102.289 51.5362 100.558 51.5362 98.4231C51.5362 96.2883 49.8055 94.5576 47.6707 94.5576C45.5358 94.5576 43.8052 96.2883 43.8052 98.4231C43.8052 100.558 45.5358 102.289 47.6707 102.289Z" fill="#FE4400"/>
<path d="M63.7769 102.289C65.9117 102.289 67.6424 100.558 67.6424 98.4231C67.6424 96.2883 65.9117 94.5576 63.7769 94.5576C61.642 94.5576 59.9114 96.2883 59.9114 98.4231C59.9114 100.558 61.642 102.289 63.7769 102.289Z" fill="#FE4400"/>
<path d="M79.8831 102.289C82.0179 102.289 83.7486 100.558 83.7486 98.4231C83.7486 96.2883 82.0179 94.5576 79.8831 94.5576C77.7482 94.5576 76.0176 96.2883 76.0176 98.4231C76.0176 100.558 77.7482 102.289 79.8831 102.289Z" fill="#FE4400"/>
<path d="M95.9893 102.289C98.1241 102.289 99.8548 100.558 99.8548 98.4231C99.8548 96.2883 98.1241 94.5576 95.9893 94.5576C93.8544 94.5576 92.1238 96.2883 92.1238 98.4231C92.1238 100.558 93.8544 102.289 95.9893 102.289Z" fill="#85858A"/>
<path d="M112.095 102.289C114.23 102.289 115.961 100.558 115.961 98.4231C115.961 96.2883 114.23 94.5576 112.095 94.5576C109.961 94.5576 108.23 96.2883 108.23 98.4231C108.23 100.558 109.961 102.289 112.095 102.289Z" fill="#85858A"/>
<path d="M128.202 102.289C130.336 102.289 132.067 100.558 132.067 98.4231C132.067 96.2883 130.336 94.5576 128.202 94.5576C126.067 94.5576 124.336 96.2883 124.336 98.4231C124.336 100.558 126.067 102.289 128.202 102.289Z" fill="#85858A"/>
<path d="M144.308 102.289C146.443 102.289 148.173 100.558 148.173 98.4231C148.173 96.2883 146.443 94.5576 144.308 94.5576C142.173 94.5576 140.442 96.2883 140.442 98.4231C140.442 100.558 142.173 102.289 144.308 102.289Z" fill="#85858A"/>
<path d="M47.6707 114.529C49.8055 114.529 51.5362 112.798 51.5362 110.663C51.5362 108.528 49.8055 106.798 47.6707 106.798C45.5358 106.798 43.8052 108.528 43.8052 110.663C43.8052 112.798 45.5358 114.529 47.6707 114.529Z" fill="#85858A"/>
<path d="M63.7769 114.529C65.9117 114.529 67.6424 112.798 67.6424 110.663C67.6424 108.528 65.9117 106.798 63.7769 106.798C61.642 106.798 59.9114 108.528 59.9114 110.663C59.9114 112.798 61.642 114.529 63.7769 114.529Z" fill="#85858A"/>
<path d="M47.6707 126.77C49.8055 126.77 51.5362 125.039 51.5362 122.905C51.5362 120.77 49.8055 119.039 47.6707 119.039C45.5358 119.039 43.8052 120.77 43.8052 122.905C43.8052 125.039 45.5358 126.77 47.6707 126.77Z" fill="#85858A"/>
<path d="M63.7769 126.77C65.9117 126.77 67.6424 125.039 67.6424 122.905C67.6424 120.77 65.9117 119.039 63.7769 119.039C61.642 119.039 59.9114 120.77 59.9114 122.905C59.9114 125.039 61.642 126.77 63.7769 126.77Z" fill="#85858A"/>
<path d="M79.8831 126.77C82.0179 126.77 83.7486 125.039 83.7486 122.905C83.7486 120.77 82.0179 119.039 79.8831 119.039C77.7482 119.039 76.0176 120.77 76.0176 122.905C76.0176 125.039 77.7482 126.77 79.8831 126.77Z" fill="#85858A"/>
<path d="M79.8831 114.529C82.0179 114.529 83.7486 112.798 83.7486 110.663C83.7486 108.528 82.0179 106.798 79.8831 106.798C77.7482 106.798 76.0176 108.528 76.0176 110.663C76.0176 112.798 77.7482 114.529 79.8831 114.529Z" fill="#85858A"/>
<path d="M95.9893 114.529C98.1241 114.529 99.8548 112.798 99.8548 110.663C99.8548 108.528 98.1241 106.798 95.9893 106.798C93.8544 106.798 92.1238 108.528 92.1238 110.663C92.1238 112.798 93.8544 114.529 95.9893 114.529Z" fill="#FE4400"/>
<path d="M112.095 114.529C114.23 114.529 115.961 112.798 115.961 110.663C115.961 108.528 114.23 106.798 112.095 106.798C109.961 106.798 108.23 108.528 108.23 110.663C108.23 112.798 109.961 114.529 112.095 114.529Z" fill="#FE4400"/>
<path d="M128.202 114.529C130.336 114.529 132.067 112.798 132.067 110.663C132.067 108.528 130.336 106.798 128.202 106.798C126.067 106.798 124.336 108.528 124.336 110.663C124.336 112.798 126.067 114.529 128.202 114.529Z" fill="#FE4400"/>
<path d="M144.308 114.529C146.443 114.529 148.173 112.798 148.173 110.663C148.173 108.528 146.443 106.798 144.308 106.798C142.173 106.798 140.442 108.528 140.442 110.663C140.442 112.798 142.173 114.529 144.308 114.529Z" fill="#85858A"/>
<path d="M66.7277 39.7738C66.115 39.7838 65.5309 40.0343 65.1012 40.4711C64.6715 40.9079 64.4307 41.4961 64.4307 42.1088C64.4307 42.7216 64.6715 43.3098 65.1012 43.7466C65.5309 44.1834 66.115 44.4338 66.7277 44.4439H125.276C125.582 44.4493 125.887 44.3941 126.173 44.2816C126.458 44.1691 126.719 44.0014 126.94 43.788C127.16 43.5747 127.337 43.32 127.459 43.0385C127.581 42.757 127.647 42.4541 127.652 42.1472C127.657 41.8404 127.601 41.5355 127.488 41.2501C127.375 40.9647 127.207 40.7043 126.994 40.4839C126.78 40.2635 126.525 40.0873 126.244 39.9655C125.962 39.8436 125.659 39.7785 125.352 39.7738C125.327 39.7733 125.301 39.7733 125.276 39.7738H66.7277Z" fill="#3F3D56"/>
<path d="M138.553 39.1229C138.51 39.1655 138.476 39.2162 138.453 39.2719C138.43 39.3277 138.418 39.3874 138.418 39.4478C138.418 39.5081 138.43 39.5679 138.453 39.6236C138.476 39.6794 138.51 39.73 138.553 39.7727L140.525 41.7452H135.661C135.539 41.7452 135.423 41.7937 135.336 41.8798C135.25 41.966 135.202 42.0829 135.202 42.2047C135.202 42.3266 135.25 42.4435 135.336 42.5297C135.423 42.6158 135.539 42.6642 135.661 42.6642H140.525L138.553 44.6368C138.51 44.6795 138.476 44.7301 138.453 44.7859C138.43 44.8416 138.418 44.9014 138.418 44.9617C138.418 45.022 138.43 45.0818 138.453 45.1375C138.476 45.1933 138.51 45.244 138.553 45.2866C138.596 45.3293 138.646 45.3631 138.702 45.3862C138.758 45.4093 138.817 45.4212 138.878 45.4212C138.938 45.4212 138.998 45.4093 139.054 45.3862C139.109 45.3631 139.16 45.3293 139.203 45.2866L141.96 42.5297C142.046 42.4435 142.094 42.3266 142.094 42.2047C142.094 42.0829 142.046 41.966 141.96 41.8798L139.203 39.1229C139.16 39.0802 139.109 39.0464 139.054 39.0233C138.998 39.0002 138.938 38.9883 138.878 38.9883C138.817 38.9883 138.758 39.0002 138.702 39.0233C138.646 39.0464 138.596 39.0802 138.553 39.1229Z" fill="#85858A"/>
<path d="M53.4257 39.1229C53.4683 39.1655 53.5022 39.2162 53.5253 39.2719C53.5484 39.3277 53.5603 39.3874 53.5603 39.4478C53.5603 39.5081 53.5484 39.5679 53.5253 39.6236C53.5022 39.6794 53.4683 39.73 53.4257 39.7727L51.4531 41.7453H56.3172C56.4391 41.7453 56.556 41.7937 56.6421 41.8798C56.7283 41.966 56.7767 42.0829 56.7767 42.2048C56.7767 42.3266 56.7283 42.4435 56.6421 42.5297C56.556 42.6158 56.4391 42.6643 56.3172 42.6643H51.4531L53.4257 44.6368C53.5118 44.723 53.5603 44.8398 53.5603 44.9617C53.5603 45.0836 53.5119 45.2005 53.4257 45.2866C53.3395 45.3728 53.2226 45.4212 53.1008 45.4212C52.9789 45.4212 52.862 45.3728 52.7759 45.2866L50.0189 42.5297C49.9327 42.4435 49.8843 42.3266 49.8843 42.2048C49.8843 42.0829 49.9327 41.966 50.0189 41.8798L52.7759 39.1229C52.8185 39.0802 52.8692 39.0464 52.9249 39.0233C52.9807 39.0002 53.0404 38.9883 53.1008 38.9883C53.1611 38.9883 53.2209 39.0002 53.2766 39.0233C53.3324 39.0464 53.383 39.0802 53.4257 39.1229Z" fill="#85858A"/>
<path d="M63.4548 151.441C62.3544 151.441 61.2647 151.657 60.2479 152.077C59.2311 152.498 58.3072 153.115 57.5289 153.892C56.7506 154.67 56.1331 155.594 55.7119 156.61C55.2906 157.627 55.0738 158.716 55.0738 159.817C55.0738 160.917 55.2906 162.006 55.7119 163.023C56.1331 164.039 56.7506 164.963 57.5289 165.741C58.3072 166.519 59.2311 167.135 60.2479 167.556C61.2647 167.977 62.3544 168.193 63.4548 168.192H128.524C129.624 168.193 130.714 167.977 131.731 167.556C132.747 167.135 133.671 166.519 134.45 165.741C135.228 164.963 135.845 164.039 136.267 163.023C136.688 162.006 136.905 160.917 136.905 159.817C136.905 158.716 136.688 157.627 136.267 156.61C135.845 155.594 135.228 154.67 134.45 153.892C133.671 153.115 132.747 152.498 131.731 152.077C130.714 151.657 129.624 151.441 128.524 151.441H63.4548Z" fill="#85858A"/>
<path d="M13.4593 26.9185C10.7973 26.9185 8.19506 26.1292 5.9817 24.6502C3.76833 23.1713 2.04323 21.0693 1.02453 18.6099C0.00583194 16.1505 -0.260707 13.4443 0.258622 10.8335C0.77795 8.22265 2.05982 5.82444 3.94213 3.94213C5.82444 2.05982 8.22265 0.777951 10.8335 0.258623C13.4443 -0.260706 16.1505 0.00582969 18.6099 1.02453C21.0693 2.04323 23.1713 3.76834 24.6502 5.9817C26.1292 8.19507 26.9185 10.7973 26.9185 13.4593C26.9145 17.0276 25.4952 20.4487 22.9719 22.972C20.4487 25.4952 17.0276 26.9145 13.4593 26.9185Z" fill="#FE4400"/>
<path d="M18.7699 12.132H14.7869V8.14898C14.7869 7.79685 14.6471 7.45915 14.3981 7.21016C14.1491 6.96117 13.8114 6.82129 13.4592 6.82129C13.1071 6.82129 12.7694 6.96117 12.5204 7.21016C12.2714 7.45915 12.1316 7.79685 12.1316 8.14898V12.132H8.14853C7.79641 12.132 7.45871 12.2719 7.20973 12.5209C6.96074 12.7699 6.82086 13.1076 6.82086 13.4597C6.82086 13.8118 6.96074 14.1495 7.20973 14.3985C7.45871 14.6475 7.79641 14.7873 8.14853 14.7873H12.1316V18.7704C12.1316 19.1225 12.2714 19.4602 12.5204 19.7092C12.7694 19.9582 13.1071 20.0981 13.4592 20.0981C13.8114 20.0981 14.1491 19.9582 14.3981 19.7092C14.6471 19.4602 14.7869 19.1225 14.7869 18.7704V14.7873H18.7699C19.122 14.7873 19.4597 14.6475 19.7087 14.3985C19.9577 14.1495 20.0976 13.8118 20.0976 13.4597C20.0976 13.1076 19.9577 12.7699 19.7087 12.5209C19.4597 12.2719 19.122 12.132 18.7699 12.132Z" fill="white"/>
</g>
<defs>
<clipPath id="clip0">
<rect width="304.567" height="265" fill="white"/>
</clipPath>
</defs>
</svg>
