<svg width="320" height="228" viewBox="0 0 320 228" fill="none" xmlns="http://www.w3.org/2000/svg">
<path opacity="0.1" d="M3.44666 113.157C8.49927 132.684 19.1863 149.564 36.0749 157.747C71.1843 174.752 150.365 165.982 209.461 155.914C240.03 150.707 266.898 136.338 286.417 116.116L3.44666 113.157Z" fill="#FE4400"/>
<path opacity="0.1" d="M313.341 21.2419H280.916C279.377 21.2419 278.115 20.1016 278.115 18.7083C278.115 17.315 279.377 16.1718 280.916 16.1718H286.524C284.983 16.1718 283.723 15.0315 283.723 13.6353C283.723 12.2391 284.983 11.1017 286.524 11.1017H282.522C280.98 11.1017 279.718 9.96146 279.718 8.56522C279.718 7.16899 280.98 6.03164 282.522 6.03164H299.445C295.69 4.45215 291.301 3.32935 286.242 2.73886C240.094 -2.62209 223.618 0.923756 217.806 4.56851C210.562 9.16806 202.515 12.3596 194.088 13.9756C165.616 19.29 112.37 25.6836 64.1101 11.9395C40.124 5.095 22.2958 16.6459 11.6117 35.9547H318.972C318.571 30.3435 317.369 25.16 315.164 20.6252C314.642 21.0284 314 21.2454 313.341 21.2419Z" fill="#FE4400"/>
<path opacity="0.1" d="M0.697803 72.3992C-0.54762 83.7557 -0.124264 95.2333 1.95441 106.467L286.635 115.889C294.471 107.761 301.129 98.575 306.415 88.5984L0.697803 72.3992ZM113.292 96.7023H107.687C109.229 96.7023 110.491 97.8455 110.491 99.2388C110.491 100.632 109.229 101.772 107.687 101.772H75.2625C73.7237 101.772 72.4613 100.632 72.4613 99.2388C72.4613 97.8455 73.7237 96.7023 75.2625 96.7023H80.8707C79.329 96.7023 78.0695 95.5621 78.0695 94.1688C78.0695 92.7754 79.329 91.6323 80.8707 91.6323H76.8652C75.3236 91.6323 74.0611 90.492 74.0611 89.0987C74.0611 87.7054 75.3236 86.5622 76.8652 86.5622H109.29C110.832 86.5622 112.091 87.7025 112.091 89.0987C112.091 90.4949 110.832 91.6323 109.29 91.6323H113.292C114.834 91.6323 116.094 92.7725 116.094 94.1688C116.094 95.565 114.834 96.7023 113.292 96.7023Z" fill="#FE4400"/>
<path opacity="0.1" d="M318.984 36.1292L8.18229 42.9649C4.40082 51.7582 1.89342 61.7006 0.738617 72.0036H313.538C315.574 65.9757 317.085 59.783 318.053 53.4948C318.987 47.4415 319.359 41.5861 318.984 36.1292ZM63.8425 58.5416H58.2372C59.7789 58.5416 61.0413 59.6848 61.0413 61.0781C61.0413 62.4714 59.7789 63.6146 58.2372 63.6146H25.8126C24.2739 63.6146 23.0114 62.4714 23.0114 61.0781C23.0114 59.6848 24.2739 58.5416 25.8126 58.5416H31.4208C29.8792 58.5416 28.6196 57.4013 28.6196 56.008C28.6196 54.6147 29.8792 53.4715 31.4208 53.4715H27.4154C25.8737 53.4715 24.6113 52.3313 24.6113 50.9379C24.6113 49.5446 25.8737 48.4015 27.4154 48.4015H59.84C61.3817 48.4015 62.6412 49.5417 62.6412 50.9379C62.6412 52.3342 61.3817 53.4715 59.84 53.4715H63.8425C65.3842 53.4715 66.6437 54.6147 66.6437 56.008C66.6437 57.4013 65.3842 58.5416 63.8425 58.5416Z" fill="#FE4400"/>
<path opacity="0.1" d="M158.557 227.201C230.364 227.201 288.575 221.846 288.575 215.24C288.575 208.634 230.364 203.279 158.557 203.279C86.7495 203.279 28.5382 208.634 28.5382 215.24C28.5382 221.846 86.7495 227.201 158.557 227.201Z" fill="#FE4400"/>
<path d="M158.385 183.837C207.946 183.837 248.122 143.661 248.122 94.1003C248.122 44.5399 207.946 4.36328 158.385 4.36328C108.825 4.36328 68.6481 44.5399 68.6481 94.1003C68.6481 143.661 108.825 183.837 158.385 183.837Z" fill="#FE4400"/>
<path d="M205.47 139.196C205.47 153.362 183.2 140.406 159.325 140.406C135.449 140.406 111.3 152.827 111.3 138.661C111.3 130.583 118.997 119.349 130.039 111.19C138.358 105.04 148.574 100.636 158.836 100.636C169.389 100.636 179.727 105.404 187.974 111.949C198.381 120.201 205.47 131.29 205.47 139.196Z" fill="#444053"/>
<path d="M187.971 111.943C175.28 110.032 152.326 107.702 130.039 111.184C138.358 105.035 148.574 100.631 158.836 100.631C169.386 100.631 179.724 105.398 187.971 111.943Z" fill="#F6F8FB"/>
<path opacity="0.05" d="M111.3 30.7549C111.3 30.7549 84.2684 48.0362 84.4894 75.0678C84.7105 102.099 111.3 30.7549 111.3 30.7549Z" fill="black"/>
<path d="M126.481 82.3341C128.189 82.2382 136.226 81.6331 141.331 78.7214C142.151 78.239 143.077 77.9663 144.027 77.9273C145.65 77.8807 147.518 78.5585 146.322 82.3516C144.385 88.5561 133.137 95.5373 126.155 95.1504C119.442 94.7781 111.477 92.0729 106.218 82.561C105.714 81.6459 105.466 80.612 105.5 79.5679C105.561 77.648 106.259 75.2424 109.863 77.9244C114.732 81.5459 123.971 82.2323 125.824 82.3341C126.043 82.3459 126.262 82.3459 126.481 82.3341Z" fill="#444053"/>
<path d="M191.057 82.3341C192.764 82.2382 200.801 81.6331 205.906 78.7214C206.726 78.239 207.653 77.9663 208.603 77.9273C210.226 77.8807 212.094 78.5585 210.898 82.3516C208.961 88.5561 197.712 95.5373 190.731 95.1504C184.018 94.7781 176.053 92.0729 170.794 82.561C170.29 81.6459 170.042 80.612 170.076 79.5679C170.137 77.648 170.835 75.2424 174.439 77.9244C179.308 81.5459 188.547 82.2323 190.4 82.3341C190.619 82.3459 190.838 82.3459 191.057 82.3341Z" fill="#444053"/>
<g clip-path="url(#clip0)">
<path d="M270.165 214.816C274.021 214.816 277.146 214.295 277.146 213.653C277.146 213.01 274.021 212.489 270.165 212.489C266.31 212.489 263.184 213.01 263.184 213.653C263.184 214.295 266.31 214.816 270.165 214.816Z" fill="#F2F2F2"/>
<path d="M278.31 102.536H277.728V114.753H278.31V102.536Z" fill="#F2F2F2"/>
<path d="M271.91 94.6821H268.42V215.107H271.91V94.6821Z" fill="#F2F2F2"/>
<path d="M286.146 104.136H254.185C253.834 104.136 253.488 104.061 253.168 103.917C252.848 103.773 252.563 103.562 252.331 103.3C252.099 103.037 251.926 102.728 251.822 102.393C251.719 102.058 251.688 101.705 251.731 101.357L255.804 68.7779C255.879 68.1803 256.17 67.6307 256.622 67.232C257.073 66.8333 257.655 66.6129 258.257 66.6121H282.073C282.676 66.6129 283.257 66.8333 283.709 67.232C284.16 67.6307 284.451 68.1803 284.527 68.7779L288.599 101.357C288.642 101.705 288.611 102.058 288.508 102.393C288.405 102.728 288.231 103.037 287.999 103.3C287.767 103.562 287.482 103.773 287.162 103.917C286.843 104.061 286.496 104.136 286.146 104.136Z" fill="#F2F2F2"/>
<path d="M278.019 116.789C279.144 116.789 280.055 115.878 280.055 114.753C280.055 113.628 279.144 112.717 278.019 112.717C276.894 112.717 275.983 113.628 275.983 114.753C275.983 115.878 276.894 116.789 278.019 116.789Z" fill="#F2F2F2"/>
<path d="M63.8661 182.78C62.3965 187.878 58.1056 191.447 53.6296 194.478C53.0046 194.902 52.3794 195.315 51.7541 195.719C51.7498 195.721 51.7455 195.725 51.7412 195.727C51.7111 195.746 51.6809 195.766 51.6529 195.785C51.5238 195.868 51.3947 195.951 51.2667 196.034L51.337 196.065C51.337 196.065 51.4061 196.102 51.3305 196.071C51.308 196.062 51.2845 196.053 51.2621 196.044C48.6618 194.995 46.0153 193.869 44.0226 191.904C41.9554 189.864 40.7474 186.665 41.8667 183.984C42.0139 183.633 42.1997 183.3 42.4208 182.99C42.5116 182.86 42.6094 182.736 42.7112 182.614C43.3287 181.86 44.1357 181.284 45.0493 180.946C45.9629 180.608 46.9501 180.519 47.9094 180.689C48.8687 180.858 49.7655 181.281 50.5076 181.912C51.2497 182.543 51.8102 183.361 52.1316 184.28C52.4604 181.218 49.9358 178.654 47.5062 176.761C45.0755 174.87 42.3136 172.81 41.8437 169.766C41.5812 168.071 42.1703 166.43 43.2435 165.112C43.2767 165.072 43.3099 165.032 43.3441 164.993C44.6504 163.458 46.4877 162.472 48.489 162.233C52.2161 161.845 55.8364 163.818 58.5441 166.41C62.9021 170.579 65.5367 176.983 63.8661 182.78Z" fill="#F2F2F2"/>
<path d="M56.8604 176.112C57.5757 177.225 58.1249 178.436 58.4906 179.707C58.7999 180.844 58.9376 182.02 58.899 183.197C58.7993 185.619 58.1193 187.982 56.9163 190.086C56.0101 191.683 54.9058 193.159 53.6295 194.478C53.0046 194.902 52.3794 195.315 51.754 195.719C51.7498 195.721 51.7454 195.725 51.7411 195.727C51.7111 195.746 51.6809 195.766 51.6529 195.785C51.5238 195.868 51.3947 195.952 51.2667 196.034C51.2667 196.034 51.406 196.102 51.3305 196.071C51.308 196.062 51.2845 196.054 51.262 196.044C51.4951 194.133 51.2668 192.195 50.5962 190.39C49.9257 188.586 48.8325 186.969 47.4081 185.674C45.9804 184.399 44.2715 183.479 42.4208 182.99C42.5116 182.86 42.6094 182.736 42.7112 182.614C43.426 182.814 44.1216 183.077 44.79 183.4C47.1794 184.548 49.1358 186.434 50.3697 188.78C51.4769 190.91 51.9535 193.312 51.7434 195.703C51.8502 195.606 51.9572 195.507 52.0609 195.409C54.0369 193.567 55.7919 191.453 56.9796 189.012C58.01 186.946 58.5165 184.658 58.4543 182.349C58.3574 179.832 57.3545 177.501 55.9025 175.471C54.311 173.305 52.4309 171.368 50.3145 169.712C48.1816 168.003 45.8476 166.563 43.3647 165.421C43.3087 165.395 43.2648 165.348 43.2423 165.291C43.2197 165.233 43.2201 165.169 43.2435 165.112C43.26 165.061 43.2962 165.018 43.3441 164.993C43.3687 164.982 43.3954 164.978 43.4223 164.979C43.4491 164.98 43.4753 164.987 43.4989 165C43.8055 165.141 44.1099 165.284 44.4119 165.433C46.9272 166.676 49.2784 168.227 51.4113 170.05C53.4715 171.807 55.4111 173.813 56.8604 176.112Z" fill="white"/>
<path d="M42.6506 195.618H58.7549C58.9315 195.618 59.1062 195.656 59.2672 195.728C59.4282 195.801 59.572 195.907 59.6889 196.039C59.8058 196.172 59.8932 196.328 59.9453 196.496C59.9974 196.665 60.013 196.843 59.9911 197.019L57.9391 213.434C57.9011 213.735 57.7545 214.012 57.527 214.213C57.2994 214.414 57.0065 214.525 56.7029 214.525H44.7026C44.399 214.525 44.1061 214.414 43.8785 214.213C43.651 214.012 43.5044 213.735 43.4664 213.434L41.4144 197.019C41.3925 196.843 41.4081 196.665 41.4602 196.496C41.5123 196.328 41.5997 196.172 41.7166 196.039C41.8335 195.907 41.9773 195.801 42.1383 195.728C42.2993 195.656 42.474 195.618 42.6506 195.618Z" fill="#F2F2F2"/>
<path d="M95.1585 214.652C96.2716 214.652 97.174 213.749 97.174 212.636C97.174 211.523 96.2716 210.621 95.1585 210.621C94.0454 210.621 93.1431 211.523 93.1431 212.636C93.1431 213.749 94.0454 214.652 95.1585 214.652Z" fill="#CCCCCC"/>
<path d="M222.467 214.652C223.58 214.652 224.482 213.749 224.482 212.636C224.482 211.523 223.58 210.621 222.467 210.621C221.354 210.621 220.452 211.523 220.452 212.636C220.452 213.749 221.354 214.652 222.467 214.652Z" fill="#CCCCCC"/>
<path d="M132.108 184.588H100.533C99.0636 184.586 97.6548 184.002 96.6157 182.963C95.5767 181.924 94.9922 180.515 94.9905 179.046V157.548C94.9922 156.078 95.5767 154.669 96.6157 153.63C97.6548 152.591 99.0636 152.007 100.533 152.005H132.108C133.578 152.007 134.986 152.591 136.026 153.63C137.065 154.669 137.649 156.078 137.651 157.548V179.046C137.649 180.515 137.065 181.924 136.025 182.963C134.986 184.002 133.578 184.586 132.108 184.588Z" fill="#E6E6E6"/>
<path d="M174.6 184.756H143.025C141.556 184.754 140.147 184.17 139.108 183.131C138.069 182.092 137.484 180.683 137.483 179.214V157.716C137.484 156.246 138.069 154.837 139.108 153.798C140.147 152.759 141.556 152.175 143.025 152.173H174.6C176.07 152.175 177.479 152.759 178.518 153.798C179.557 154.837 180.141 156.246 180.143 157.716V179.214C180.141 180.683 179.557 182.092 178.518 183.131C177.479 184.17 176.07 184.754 174.6 184.756Z" fill="#E6E6E6"/>
<path d="M217.093 184.924H185.517C184.048 184.922 182.639 184.338 181.6 183.299C180.561 182.26 179.977 180.851 179.975 179.381V157.884C179.977 156.414 180.561 155.005 181.6 153.966C182.639 152.927 184.048 152.343 185.517 152.341H217.093C218.562 152.343 219.971 152.927 221.01 153.966C222.049 155.005 222.633 156.414 222.635 157.884V179.382C222.633 180.851 222.049 182.26 221.01 183.299C219.971 184.338 218.562 184.922 217.093 184.924Z" fill="#E6E6E6"/>
<path d="M229.185 183.412H90.1199V212.468H229.185V183.412Z" fill="#E6E6E6"/>
<path d="M95.1585 212.636H89.1122C86.0561 212.636 83.5697 209.813 83.5697 206.343V176.022H95.1585V212.636Z" fill="#E6E6E6"/>
<path d="M228.513 212.636H222.467V171.32H234.056V205.535C234.056 209.451 231.569 212.636 228.513 212.636Z" fill="#E6E6E6"/>
<path d="M137.819 189.459H95.1585V180.389C109.379 172.232 123.599 172.232 137.819 180.389V189.459Z" fill="#CCCCCC"/>
<path d="M180.311 189.627H137.651V180.557C151.871 172.4 166.091 172.4 180.311 180.557V189.627Z" fill="#CCCCCC"/>
<path d="M222.803 189.795H180.143V180.725C194.363 172.568 208.583 172.568 222.803 180.725V189.795Z" fill="#CCCCCC"/>
<path d="M86.9288 183.748C92.4015 183.748 96.838 179.312 96.838 173.839C96.838 168.366 92.4015 163.93 86.9288 163.93C81.4561 163.93 77.0196 168.366 77.0196 173.839C77.0196 179.312 81.4561 183.748 86.9288 183.748Z" fill="#CCCCCC"/>
<path d="M232.04 183.412C237.513 183.412 241.95 178.976 241.95 173.503C241.95 168.031 237.513 163.594 232.04 163.594C226.568 163.594 222.131 168.031 222.131 173.503C222.131 178.976 226.568 183.412 232.04 183.412Z" fill="#CCCCCC"/>
<path d="M202.85 154.09C202.873 154.25 202.884 154.41 202.882 154.571L214.759 162.758L217.927 161.258L220.815 165.743L215.465 168.943C215.033 169.201 214.529 169.312 214.028 169.26C213.527 169.207 213.057 168.994 212.688 168.651L200.659 157.486C200.062 157.654 199.428 157.637 198.841 157.435C198.255 157.234 197.743 156.86 197.375 156.361C197.007 155.862 196.799 155.263 196.78 154.643C196.76 154.023 196.93 153.412 197.266 152.891C197.602 152.37 198.089 151.964 198.662 151.727C199.235 151.489 199.866 151.432 200.472 151.562C201.079 151.692 201.631 152.003 202.056 152.455C202.48 152.907 202.758 153.477 202.85 154.09V154.09Z" fill="#FFB8B8"/>
<path d="M214.988 162.053C215.041 161.873 215.131 161.705 215.254 161.563C215.377 161.42 215.529 161.306 215.7 161.228L221.673 158.491C222.479 157.966 223.461 157.782 224.403 157.98C225.345 158.178 226.17 158.741 226.697 159.546C227.224 160.351 227.411 161.332 227.216 162.274C227.021 163.217 226.46 164.043 225.656 164.573L220.719 168.939C220.578 169.064 220.412 169.156 220.232 169.211C220.052 169.266 219.862 169.281 219.676 169.255C219.489 169.23 219.311 169.165 219.152 169.064C218.993 168.964 218.857 168.83 218.755 168.672L215.149 163.132C215.046 162.974 214.978 162.796 214.951 162.61C214.923 162.424 214.936 162.234 214.988 162.053Z" fill="#FE4400"/>
<path d="M202.701 154.624L202.641 154.628L202.478 152.375C202.426 151.655 201.96 151.102 201.438 151.14L197.974 151.39C197.452 151.428 196.49 152.085 196.542 152.805L196.584 153.385L197.437 165.164C197.489 165.885 198.535 166.396 199.057 166.358L202.521 166.107C203.043 166.07 203.425 165.455 203.372 164.735L202.757 156.232L202.817 156.228L202.701 154.624Z" fill="#3F3D56"/>
<path d="M202.277 152.399L203.17 164.74C203.209 165.278 202.924 165.737 202.534 165.765L199.054 166.017C198.664 166.045 198.316 165.632 198.277 165.095L197.384 152.753C197.345 152.215 197.63 151.756 198.02 151.728L198.443 151.697C198.413 151.807 198.42 151.924 198.461 152.03C198.502 152.136 198.575 152.226 198.671 152.287C198.711 152.307 198.755 152.315 198.799 152.312L200.784 152.169C200.969 152.155 201.104 151.937 201.086 151.681C201.081 151.622 201.069 151.564 201.048 151.509L201.5 151.476C201.891 151.448 202.238 151.861 202.277 152.399Z" fill="white"/>
<path d="M153.458 180.897L152.31 177.52L164.787 171.486L166.481 176.47L153.458 180.897Z" fill="#FFB8B8"/>
<path d="M150.478 182.871L146.777 171.984L146.915 171.937C147.471 171.748 148.059 171.67 148.646 171.708C149.232 171.746 149.806 171.9 150.333 172.159C150.86 172.419 151.331 172.78 151.719 173.222C152.107 173.664 152.403 174.177 152.593 174.734L152.593 174.734L154.853 181.383L150.478 182.871Z" fill="#2F2E41"/>
<path d="M202.978 183.306C200.302 183.457 197.634 182.898 195.243 181.687L180.571 171.706L163.44 178.05C162.985 178.204 162.488 178.181 162.05 177.984C161.612 177.786 161.265 177.43 161.08 176.987L160.24 174.968C160.049 174.513 160.043 174.002 160.225 173.544C160.406 173.086 160.761 172.717 161.211 172.517L177.578 165.167C179.544 164.288 181.748 164.097 183.835 164.626L206.556 170.416L212.562 177.549L212.495 177.641C209.547 181.708 206.05 183.084 202.978 183.306Z" fill="#2F2E41"/>
<path d="M221.535 153.502C225.481 153.502 228.679 150.304 228.679 146.358C228.679 142.412 225.481 139.214 221.535 139.214C217.589 139.214 214.391 142.412 214.391 146.358C214.391 150.304 217.589 153.502 221.535 153.502Z" fill="#FFB8B8"/>
<path d="M214.201 180.729L202.703 172.172L210.544 166.598C210.32 165.877 209.325 161.75 214.767 158.936C216.489 158.046 217.73 157.28 218.456 156.658C219.484 155.771 220.802 155.29 222.161 155.307C223.017 155.32 223.859 155.533 224.619 155.928C225.379 156.323 226.036 156.89 226.539 157.583C227.043 158.276 227.378 159.077 227.518 159.922C227.658 160.766 227.6 161.632 227.347 162.451C226.213 166.139 224.405 171.027 222.238 173.364C219.787 176.005 217.128 178.446 214.288 180.663L214.201 180.729Z" fill="#FE4400"/>
<path d="M155.281 183.889L154.133 180.512L166.61 174.478L168.305 179.461L155.281 183.889Z" fill="#FFB8B8"/>
<path d="M152.301 185.862L148.6 174.975L148.738 174.929C149.294 174.739 149.883 174.662 150.469 174.7C151.056 174.738 151.629 174.891 152.156 175.151C152.683 175.411 153.154 175.772 153.542 176.213C153.93 176.655 154.227 177.169 154.416 177.725L154.416 177.726L156.676 184.375L152.301 185.862Z" fill="#2F2E41"/>
<path d="M204.801 186.298C202.125 186.449 199.457 185.89 197.066 184.679L182.394 174.698L165.263 181.041C164.808 181.196 164.312 181.172 163.874 180.975C163.436 180.778 163.089 180.422 162.903 179.979L162.063 177.959C161.872 177.505 161.866 176.994 162.048 176.536C162.23 176.077 162.584 175.709 163.035 175.509L179.402 168.159C181.367 167.28 183.571 167.089 185.658 167.618L208.379 173.408L214.385 180.54L214.318 180.632C211.37 184.7 207.873 186.076 204.801 186.298Z" fill="#2F2E41"/>
<path d="M201.504 162.66C201.593 162.795 201.671 162.935 201.738 163.082L215.977 165.395L218.198 162.683L222.727 165.5L219.263 170.682C218.983 171.1 218.575 171.417 218.1 171.584C217.625 171.751 217.108 171.759 216.628 171.607L200.977 166.668C200.509 167.075 199.929 167.331 199.313 167.4C198.697 167.47 198.074 167.35 197.528 167.057C196.981 166.764 196.537 166.311 196.254 165.759C195.971 165.208 195.863 164.583 195.944 163.968C196.024 163.353 196.29 162.778 196.706 162.318C197.122 161.858 197.668 161.536 198.272 161.394C198.876 161.252 199.508 161.297 200.085 161.523C200.663 161.749 201.157 162.146 201.504 162.66Z" fill="#FFB8B8"/>
<path d="M215.882 164.66C215.852 164.474 215.862 164.284 215.912 164.103C215.962 163.922 216.051 163.753 216.172 163.609L220.398 158.579C220.902 157.759 221.71 157.173 222.646 156.948C223.582 156.723 224.568 156.879 225.39 157.381C226.211 157.883 226.8 158.69 227.027 159.625C227.254 160.56 227.101 161.547 226.602 162.37L224.009 168.429C223.935 168.602 223.824 168.757 223.685 168.883C223.546 169.01 223.381 169.105 223.202 169.162C223.022 169.219 222.833 169.236 222.646 169.213C222.46 169.191 222.28 169.128 222.12 169.029L216.489 165.566C216.328 165.467 216.191 165.336 216.086 165.179C215.982 165.023 215.912 164.846 215.882 164.66Z" fill="#FE4400"/>
<path d="M219.625 154.226C221.701 151.555 222.852 148.282 222.905 144.899C221.927 145.626 220.821 146.16 219.645 146.474C218.397 146.806 217.024 146.873 215.849 146.338C214.194 145.584 213.215 143.662 213.403 141.853C213.591 140.044 214.841 138.429 216.468 137.618C218.134 136.839 220.034 136.724 221.782 137.296C222.706 136.509 223.838 136.004 225.042 135.844C226.246 135.683 227.47 135.873 228.569 136.39C231.098 137.631 232.497 140.506 232.739 143.312C232.982 146.119 232.261 148.909 231.546 151.634L231.465 151.942C231.242 152.79 230.596 154.418 230.596 154.418C230.596 154.418 226.838 153.676 225.346 153.201C223.182 153.983 219.625 154.226 219.625 154.226Z" fill="#2F2E41"/>
<path d="M201.716 154.911L198.655 155.132C198.578 155.138 198.502 155.113 198.443 155.062C198.385 155.012 198.349 154.94 198.343 154.863C198.338 154.786 198.363 154.71 198.414 154.652C198.464 154.594 198.536 154.558 198.613 154.552L201.674 154.331C201.712 154.328 201.75 154.332 201.787 154.344C201.823 154.356 201.857 154.376 201.885 154.401C201.914 154.426 201.938 154.456 201.955 154.49C201.972 154.524 201.983 154.562 201.986 154.6C201.988 154.638 201.983 154.676 201.971 154.712C201.959 154.749 201.94 154.782 201.915 154.811C201.89 154.84 201.86 154.864 201.825 154.881C201.791 154.898 201.754 154.908 201.716 154.911Z" fill="#3F3D56"/>
<path d="M201.821 156.362L198.76 156.583C198.721 156.586 198.683 156.581 198.647 156.569C198.61 156.557 198.577 156.538 198.548 156.513C198.519 156.488 198.495 156.458 198.478 156.424C198.461 156.389 198.451 156.352 198.448 156.314C198.445 156.276 198.45 156.237 198.462 156.201C198.474 156.165 198.493 156.131 198.518 156.102C198.543 156.073 198.574 156.05 198.608 156.033C198.642 156.016 198.679 156.005 198.718 156.003L201.779 155.781C201.856 155.776 201.932 155.801 201.99 155.851C202.048 155.902 202.084 155.973 202.09 156.05C202.095 156.127 202.07 156.203 202.02 156.262C201.969 156.32 201.898 156.356 201.821 156.362Z" fill="#3F3D56"/>
<path d="M201.926 157.812L198.865 158.034C198.788 158.039 198.712 158.014 198.654 157.963C198.595 157.913 198.56 157.841 198.554 157.765C198.548 157.688 198.574 157.612 198.624 157.553C198.674 157.495 198.746 157.459 198.823 157.453L201.884 157.232C201.961 157.226 202.037 157.252 202.095 157.302C202.153 157.353 202.189 157.424 202.195 157.501C202.2 157.578 202.175 157.654 202.125 157.712C202.074 157.771 202.003 157.807 201.926 157.812Z" fill="#3F3D56"/>
</g>
<defs>
<clipPath id="clip0">
<rect width="263.539" height="148.495" fill="white" transform="translate(27.3429 66.6121)"/>
</clipPath>
</defs>
</svg>
