<svg width="460" height="350" viewBox="0 0 460 350" fill="none" xmlns="http://www.w3.org/2000/svg">
<path d="M156.857 6.92261H144.144C144.729 8.35608 144.952 9.91134 144.794 11.4514C144.636 12.9914 144.102 14.469 143.238 15.7539C142.375 17.0388 141.209 18.0917 139.842 18.8197C138.476 19.5477 136.952 19.9285 135.404 19.9286H79.6069C78.0588 19.9285 76.5346 19.5477 75.1684 18.8197C73.8022 18.0917 72.6359 17.0388 71.7725 15.7539C70.909 14.469 70.3747 12.9914 70.2168 11.4514C70.0588 9.91135 70.282 8.35608 70.8666 6.92261H58.9923C56.383 6.92261 53.7992 7.43658 51.3885 8.43518C48.9778 9.43378 46.7873 10.8974 44.9423 12.7426C43.0972 14.5878 41.6336 16.7783 40.6351 19.1892C39.6365 21.6 39.1226 24.1839 39.1226 26.7934V278.638C39.1226 281.248 39.6365 283.832 40.6351 286.242C41.6336 288.653 43.0972 290.844 44.9423 292.689C46.7873 294.534 48.9778 295.998 51.3885 296.996C53.7992 297.995 56.3829 298.509 58.9923 298.509H156.857C159.467 298.509 162.051 297.995 164.461 296.996C166.872 295.998 169.062 294.534 170.907 292.689C172.753 290.844 174.216 288.653 175.215 286.243C176.213 283.832 176.727 281.248 176.727 278.638V26.7934C176.727 24.1839 176.213 21.6 175.215 19.1892C174.216 16.7783 172.753 14.5878 170.907 12.7426C169.062 10.8974 166.872 9.43377 164.461 8.43518C162.051 7.43658 159.467 6.9226 156.857 6.92261Z" fill="white"/>
<path d="M95 177C140.287 177 177 140.511 177 95.5C177 50.4888 140.287 14 95 14C49.7127 14 13 50.4888 13 95.5C13 140.511 49.7127 177 95 177Z" fill="#FE4400"/>
<path d="M86.7893 127C84.9474 127.003 83.1545 126.4 81.6809 125.282L81.5895 125.213L62.3482 110.321C61.4571 109.63 60.7093 108.768 60.1474 107.784C59.5855 106.801 59.2207 105.715 59.0736 104.588C58.9266 103.462 59.0002 102.317 59.2904 101.22C59.5806 100.122 60.0815 99.0934 60.7647 98.1918C61.4479 97.2902 62.2999 96.5336 63.2721 95.9651C64.2444 95.3967 65.3177 95.0275 66.4309 94.8787C67.5441 94.73 68.6754 94.8045 69.7602 95.098C70.8449 95.3916 71.8619 95.8985 72.753 96.5897L85.2159 106.259L114.666 67.3862C115.349 66.485 116.201 65.7286 117.173 65.1604C118.145 64.5922 119.218 64.2232 120.33 64.0745C121.443 63.9258 122.574 64.0003 123.658 64.2937C124.742 64.5872 125.759 65.0938 126.65 65.7848L126.652 65.7866L126.469 66.0434L126.657 65.7866C128.454 67.184 129.63 69.2457 129.926 71.5191C130.223 73.7926 129.616 76.0922 128.238 77.9133L93.598 123.616C92.7966 124.669 91.7662 125.521 90.5867 126.106C89.4073 126.691 88.1105 126.994 86.7969 126.99L86.7893 127Z" fill="white"/>
<path d="M391.26 310.153C391.839 309.217 392.521 308.348 393.292 307.563C393.611 307.233 393.946 306.922 394.292 306.62C396.396 304.747 398.962 303.468 401.724 302.915C404.486 302.362 407.346 302.555 410.009 303.473C412.672 304.392 415.042 306.004 416.876 308.142C418.71 310.281 419.941 312.869 420.443 315.641C422.768 307.045 416.717 298.578 410.634 292.074C404.547 285.572 397.591 278.44 397.626 269.531C397.643 264.573 400.068 260.151 403.729 256.872C403.842 256.772 403.955 256.673 404.07 256.578C408.495 252.784 414.188 250.8 420.012 251.021C430.832 251.601 440.28 258.873 446.841 267.5C457.402 281.38 462.03 300.863 454.636 316.664C448.133 330.56 434.264 338.813 420.109 345.447C418.132 346.373 416.16 347.272 414.191 348.143C414.178 348.146 414.164 348.155 414.151 348.159C414.056 348.2 413.961 348.242 413.872 348.285C413.466 348.464 413.06 348.644 412.657 348.821L412.843 348.943L413.425 349.319C413.223 349.197 413.024 349.079 412.822 348.956C412.762 348.919 412.699 348.885 412.639 348.848C405.687 344.676 398.638 340.263 393.835 333.75C388.854 326.988 386.851 317.302 391.26 310.153Z" fill="#F1F1F1"/>
<path d="M437.644 294.449C439.184 297.951 440.204 301.659 440.674 305.456C441.043 308.842 440.904 312.263 440.262 315.608C438.881 322.481 435.87 328.922 431.483 334.389C428.172 338.539 424.351 342.255 420.109 345.447C418.132 346.373 416.16 347.272 414.191 348.143C414.178 348.146 414.164 348.155 414.151 348.159C414.056 348.2 413.961 348.242 413.872 348.285C413.466 348.464 413.059 348.644 412.657 348.821L412.843 348.943L413.425 349.319C413.223 349.197 413.024 349.079 412.822 348.956C412.762 348.919 412.699 348.885 412.639 348.848C414.169 343.496 414.394 337.855 413.295 332.398C412.196 326.941 409.805 321.827 406.323 317.485C402.822 313.197 398.357 309.797 393.292 307.563C393.611 307.233 393.946 306.922 394.292 306.62C396.243 307.516 398.111 308.582 399.874 309.807C406.179 314.165 410.913 320.437 413.376 327.696C415.575 334.281 415.85 341.356 414.168 348.092C414.517 347.864 414.867 347.629 415.208 347.396C421.684 343.029 427.653 337.783 432.149 331.35C436.027 325.914 438.508 319.607 439.375 312.985C440.237 305.752 438.427 298.639 435.198 292.185C431.632 285.28 427.139 278.896 421.843 273.208C416.524 267.364 410.51 262.193 403.935 257.81C403.787 257.71 403.683 257.556 403.644 257.382C403.606 257.207 403.636 257.025 403.729 256.872C403.799 256.733 403.922 256.627 404.07 256.578C404.145 256.558 404.224 256.556 404.3 256.572C404.376 256.587 404.447 256.62 404.509 256.666C405.321 257.208 406.126 257.754 406.921 258.317C413.542 263.006 419.556 268.499 424.823 274.671C429.913 280.62 434.544 287.229 437.644 294.449Z" fill="white"/>
<path d="M295.901 22.0993C301.483 22.0993 306.008 17.5739 306.008 11.9916C306.008 6.40919 301.483 1.88379 295.901 1.88379C290.319 1.88379 285.794 6.40919 285.794 11.9916C285.794 17.5739 290.319 22.0993 295.901 22.0993Z" fill="#F1F1F1"/>
<path d="M421.579 157.365C424.982 157.365 427.741 154.606 427.741 151.203C427.741 147.799 424.982 145.04 421.579 145.04C418.176 145.04 415.417 147.799 415.417 151.203C415.417 154.606 418.176 157.365 421.579 157.365Z" fill="#F1F1F1"/>
<path d="M241.234 174.273C244.638 174.273 247.397 171.514 247.397 168.111C247.397 164.707 244.638 161.948 241.234 161.948C237.831 161.948 235.072 164.707 235.072 168.111C235.072 171.514 237.831 174.273 241.234 174.273Z" fill="#F1F1F1"/>
<path d="M244.713 350H459.436C459.586 350 459.729 349.941 459.835 349.835C459.94 349.729 460 349.586 460 349.436C460 349.287 459.94 349.144 459.835 349.038C459.729 348.932 459.586 348.873 459.436 348.873H244.713C244.564 348.873 244.421 348.932 244.315 349.038C244.209 349.144 244.15 349.287 244.15 349.436C244.15 349.586 244.209 349.729 244.315 349.835C244.421 349.941 244.564 350 244.713 350Z" fill="#CBCBCB"/>
<path d="M435.74 54.4642C436.022 52.4623 435.56 50.4266 434.441 48.7427C433.323 47.0588 431.625 45.8438 429.671 45.3279C427.716 44.812 425.64 45.031 423.836 45.9435C422.032 46.856 420.626 48.3985 419.883 50.2788L402.459 70.2554L407.572 84.5354L425.095 61.1935C426.238 61.5598 427.448 61.6709 428.639 61.519C429.83 61.3671 430.974 60.9559 431.989 60.3143C433.003 59.6728 433.865 58.8164 434.514 57.8057C435.162 56.7949 435.581 55.6543 435.74 54.4642Z" fill="#FFB7B7"/>
<path d="M363.514 132.194L421.354 70.4622L413.552 58.0583L341.007 119.415L363.514 132.194Z" fill="#3F3D56"/>
<path d="M350.605 94.6859C361.81 94.6859 370.894 85.6018 370.894 74.3961C370.894 63.1903 361.81 54.1062 350.605 54.1062C339.4 54.1062 330.316 63.1903 330.316 74.3961C330.316 85.6018 339.4 94.6859 350.605 94.6859Z" fill="#2F2E41"/>
<path d="M352.236 62.9341C356.602 58.5066 361.885 55.09 367.714 52.9248C371.455 51.5387 375.528 50.6823 379.439 51.4695C383.351 52.2567 387.05 54.9628 388.141 58.8008C389.033 61.9391 388.112 65.3182 386.727 68.2725C385.342 71.2268 383.494 73.9663 382.374 77.0308C381.231 80.1578 380.887 83.5205 381.374 86.8139C381.861 90.1074 383.162 93.2271 385.16 95.89C387.158 98.5528 389.789 100.674 392.815 102.062C395.841 103.45 399.166 104.06 402.487 103.837C398.644 104.353 395.101 106.159 391.345 107.12C387.588 108.082 383.154 108.016 380.363 105.325C377.409 102.477 377.35 97.8475 377.493 93.7471C377.705 87.6517 377.917 81.5563 378.13 75.4609C378.238 72.3524 378.331 69.1442 377.209 66.2428C376.088 63.3414 373.424 60.8008 370.314 60.8272C367.957 60.8472 365.871 62.2753 363.98 63.6836C362.09 65.0919 360.089 66.5945 357.741 66.8039C355.393 67.0134 352.713 65.2757 352.888 62.9249L352.236 62.9341Z" fill="#2F2E41"/>
<path d="M273.547 210.633C271.6 211.174 269.521 210.982 267.706 210.093C265.89 209.204 264.464 207.679 263.697 205.809C262.93 203.938 262.876 201.851 263.545 199.944C264.214 198.036 265.559 196.44 267.326 195.458L284.854 175.572L299.678 178.775L278.828 199.199C279.34 200.285 279.608 201.47 279.613 202.67C279.618 203.871 279.36 205.059 278.857 206.149C278.353 207.239 277.617 208.205 276.7 208.98C275.782 209.755 274.706 210.319 273.547 210.633H273.547Z" fill="#FFB7B7"/>
<path d="M331.213 139.439L287.527 194.278L274.211 188.164L325.558 108.219L331.213 139.439Z" fill="#3F3D56"/>
<path d="M296.356 305.03L285.944 304.867L287.197 340.355H296.354L296.356 305.03Z" fill="#FFB7B7"/>
<path d="M298.69 337.365L280.655 337.364H280.654C277.606 337.364 274.683 338.575 272.527 340.731C270.372 342.886 269.161 345.81 269.161 348.858V349.232L298.689 349.233L298.69 337.365Z" fill="#2F2E41"/>
<path d="M365.291 295.618L353.917 302.92L376.667 330.292L384.374 325.344L365.291 295.618Z" fill="#FFB7B7"/>
<path d="M384.724 321.565L369.548 331.309L369.547 331.31C366.982 332.957 365.177 335.555 364.527 338.534C363.878 341.512 364.439 344.626 366.085 347.192L366.287 347.506L391.135 331.552L384.724 321.565Z" fill="#2F2E41"/>
<path d="M369.343 187.253C369.343 187.253 344.072 103.316 335.951 102.182C327.83 101.048 314.744 123.719 314.744 123.719C297.779 145.366 280.285 215.486 280.285 215.486C280.285 215.486 309.448 217.311 330.767 228.654C352.085 239.997 377.243 228.08 377.243 228.08L369.343 187.253Z" fill="#3F3D56"/>
<path opacity="0.1" d="M369.343 187.253C369.343 187.253 344.072 103.316 335.951 102.182C327.83 101.048 318.068 123.949 318.068 123.949C309.614 158.893 280.285 215.486 280.285 215.486C280.285 215.486 309.448 217.311 330.767 228.654C352.085 239.997 377.243 228.08 377.243 228.08L369.343 187.253Z" fill="black"/>
<path d="M348.61 162.14V204.317L353.573 265.414L378.371 311.63L366.535 320.084L332.721 276.123L319.347 232.472L298.343 329.102L282.562 327.975L293.522 193.999L314.318 156.288L348.61 162.14Z" fill="#2F2E41"/>
<path d="M323.131 121.345C315.241 129.235 322.568 137.689 322.568 137.689L313.55 157.979L349.056 167.56L361.463 112.114L353.01 103.096C336.103 102.532 336.093 102.182 336.093 102.182C333.131 105.081 323.131 121.345 323.131 121.345Z" fill="#FE4400"/>
<path d="M362.893 106.369C361.281 105.179 359.448 104.32 357.501 103.843C355.554 103.366 353.532 103.28 351.552 103.59C349.572 103.9 347.673 104.6 345.965 105.649C344.257 106.698 342.774 108.076 341.603 109.702C332.677 122.131 324.423 142.2 335.795 167.23C354.054 207.421 369.944 227.995 376.404 227.993C376.686 227.996 376.966 227.952 377.234 227.863C381.21 226.514 386.959 219.785 388 213.856C388.372 211.733 388.284 208.777 385.746 206.747C378.456 200.916 365.368 182.759 361.285 158.861C359.029 145.656 363.405 133.627 367.472 125.862C369.191 122.649 369.693 118.924 368.888 115.371C368.083 111.817 366.024 108.673 363.089 106.514L362.893 106.369Z" fill="#3F3D56"/>
<path d="M351.649 92.6927C358.886 88.7361 361.546 79.6612 357.59 72.4233C353.633 65.1854 344.559 62.5254 337.321 66.482C330.084 70.4385 327.424 79.5135 331.38 86.7514C335.337 93.9892 344.411 96.6493 351.649 92.6927Z" fill="#FFB7B7"/>
<path d="M323.481 78.4581H345.047L345.268 75.3617L346.374 78.4581H349.695L350.133 72.3212L352.324 78.4581H358.75V78.154C358.745 73.8816 357.046 69.7856 354.025 66.7645C351.004 63.7435 346.908 62.0441 342.636 62.0393H339.595C335.323 62.0441 331.227 63.7435 328.206 66.7645C325.186 69.7856 323.486 73.8816 323.481 78.154V78.4581Z" fill="#2F2E41"/>
<path d="M355.492 89.5878L364.695 86.6014V64.2512H347.312L347.742 64.6809C353.73 70.6613 360.389 91.8789 355.492 89.5878Z" fill="#2F2E41"/>
</svg>
