<svg width="337" height="265" viewBox="0 0 337 265" fill="none" xmlns="http://www.w3.org/2000/svg">
<g clip-path="url(#clip0)">
<path d="M305.582 0.172852H0.130417V195.798H305.582V0.172852Z" fill="#85858A"/>
<path d="M296.848 24.709H8.86475V184.224H296.848V24.709Z" fill="white"/>
<path d="M305.452 0H0V12.9767H305.452V0Z" fill="#FE4400"/>
<path d="M9.64325 9.03975C10.9716 9.03975 12.0484 7.96294 12.0484 6.63462C12.0484 5.30631 10.9716 4.22949 9.64325 4.22949C8.31493 4.22949 7.23811 5.30631 7.23811 6.63462C7.23811 7.96294 8.31493 9.03975 9.64325 9.03975Z" fill="white"/>
<path d="M18.7725 9.03975C20.1008 9.03975 21.1776 7.96294 21.1776 6.63462C21.1776 5.30631 20.1008 4.22949 18.7725 4.22949C17.4442 4.22949 16.3674 5.30631 16.3674 6.63462C16.3674 7.96294 17.4442 9.03975 18.7725 9.03975Z" fill="white"/>
<path d="M27.9018 9.03975C29.2301 9.03975 30.3069 7.96294 30.3069 6.63462C30.3069 5.30631 29.2301 4.22949 27.9018 4.22949C26.5735 4.22949 25.4967 5.30631 25.4967 6.63462C25.4967 7.96294 26.5735 9.03975 27.9018 9.03975Z" fill="white"/>
<path d="M183.468 41.2607H121.803V76.0574H183.468V41.2607Z" fill="#FE4400"/>
<path d="M183.468 85.7471H121.803V123.187H183.468V85.7471Z" fill="#85858A"/>
<path d="M183.468 132.877H121.803V167.674H183.468V132.877Z" fill="#85858A"/>
<path d="M270.68 41.2607H196.682V96.351H270.68V41.2607Z" fill="#85858A"/>
<path d="M108.852 41.2598H34.8536V96.35H108.852V41.2598Z" fill="#85858A"/>
<path d="M270.68 112.584H196.682V167.674H270.68V112.584Z" fill="#85858A"/>
<path d="M108.852 112.583H34.8536V167.673H108.852V112.583Z" fill="#85858A"/>
<path d="M242.174 100.308V88.4482C242.174 84.2333 243.848 80.1909 246.829 77.2105C249.809 74.2301 253.851 72.5557 258.066 72.5557C262.281 72.5557 266.324 74.2301 269.304 77.2105C272.285 80.1909 273.959 84.2333 273.959 88.4482V100.308C273.958 100.874 273.733 101.417 273.333 101.817C272.933 102.217 272.39 102.443 271.824 102.443H244.309C243.743 102.443 243.2 102.217 242.8 101.817C242.4 101.417 242.174 100.874 242.174 100.308Z" fill="#2F2E41"/>
<path d="M281.566 254.655L275.961 256.206L267.31 235.324L275.583 233.034L281.566 254.655Z" fill="#FFB8B8"/>
<path d="M271.514 255.712L282.324 252.72L284.208 259.527L266.591 264.402C266.344 263.508 266.275 262.575 266.388 261.654C266.502 260.734 266.795 259.845 267.253 259.038C267.71 258.231 268.321 257.522 269.052 256.951C269.784 256.38 270.62 255.959 271.514 255.712Z" fill="#2F2E41"/>
<path d="M223.126 258.966H217.31L214.543 236.532H223.127L223.126 258.966Z" fill="#FFB8B8"/>
<path d="M213.155 257.304H224.372V264.366H206.093C206.093 263.439 206.276 262.52 206.631 261.663C206.986 260.807 207.506 260.028 208.162 259.372C208.817 258.716 209.596 258.196 210.453 257.841C211.31 257.486 212.228 257.304 213.155 257.304Z" fill="#2F2E41"/>
<path d="M216.113 133.591C216.528 134.152 217.061 134.614 217.674 134.946C218.287 135.279 218.966 135.472 219.662 135.514C220.358 135.555 221.055 135.444 221.704 135.187C222.352 134.93 222.936 134.534 223.415 134.027L238.876 140.98L237.47 132.284L223.003 127.014C222.098 126.266 220.95 125.876 219.776 125.918C218.603 125.96 217.486 126.431 216.636 127.242C215.787 128.053 215.265 129.147 215.168 130.317C215.072 131.487 215.408 132.652 216.113 133.591H216.113Z" fill="#FFB8B8"/>
<path d="M248.237 185.889C243.379 185.889 238.351 185.166 234.124 183.014C231.88 181.894 229.892 180.323 228.283 178.399C226.674 176.476 225.479 174.241 224.774 171.834C222.572 164.861 225.348 158.01 228.034 151.385C229.698 147.279 231.269 143.402 231.677 139.58L231.82 138.223C232.455 132.128 233.003 126.864 236.041 124.89C237.615 123.866 239.731 123.808 242.512 124.711L268.625 133.194L267.665 182.765L267.506 182.818C267.37 182.864 258.164 185.889 248.237 185.889Z" fill="#2F2E41"/>
<path d="M242.055 109.278C242.055 109.278 254.864 105.483 264.827 106.906C264.827 106.906 259.134 138.217 261.031 148.654C262.929 159.091 228.06 152.686 235.176 142.724L237.548 130.864C237.548 130.864 232.804 126.12 237.074 120.427L242.055 109.278Z" fill="#FE4400"/>
<path d="M235.755 184.949L219.969 181.989L225.48 139.574C225.851 138.39 234.388 111.516 238.266 110.062C241.081 109.071 243.961 108.271 246.884 107.668L247.446 107.556L244.28 112.304L231.678 142.502L235.755 184.949Z" fill="#2F2E41"/>
<path d="M227.529 253.768L207.133 250.368L218.579 203.628L235.612 139.708L235.78 140.843C235.793 140.928 237.384 149.278 260.995 145.573L261.202 145.54L261.26 145.743L289.796 246.572L266.555 250.445L245.357 176.881L227.529 253.768Z" fill="#2F2E41"/>
<path d="M255.8 192.887L255.813 192.528C255.827 192.129 257.231 152.501 256.762 136.563C256.292 120.572 261.469 106.723 261.521 106.585L261.563 106.474L261.678 106.441C268.376 104.527 274.187 110.239 274.245 110.297L274.327 110.378L272.419 126.117L280.587 183.35L255.8 192.887Z" fill="#2F2E41"/>
<path d="M254.801 102.167C261.236 102.167 266.453 96.9503 266.453 90.5152C266.453 84.08 261.236 78.8633 254.801 78.8633C248.366 78.8633 243.149 84.08 243.149 90.5152C243.149 96.9503 248.366 102.167 254.801 102.167Z" fill="#FFB8B8"/>
<path d="M238.414 89.3969C238.418 86.0639 239.744 82.8684 242.1 80.5115C244.457 78.1547 247.653 76.829 250.986 76.8252H253.358C256.691 76.829 259.886 78.1547 262.243 80.5115C264.6 82.8684 265.926 86.0639 265.93 89.3969V89.6341H260.917L259.207 84.8465L258.865 89.6341H256.274L255.412 87.2186L255.239 89.6341H238.414V89.3969Z" fill="#2F2E41"/>
<path d="M253.654 103.777C253.419 103.458 253.278 103.08 253.249 102.685C253.219 102.29 253.302 101.894 253.487 101.544C256.001 96.763 259.52 87.9286 254.848 82.4803L254.513 82.0889H268.075V102.45L255.755 104.624C255.63 104.646 255.504 104.657 255.377 104.657C255.041 104.657 254.709 104.578 254.41 104.425C254.11 104.272 253.851 104.05 253.654 103.777Z" fill="#2F2E41"/>
<path d="M199.051 19.7101C189.561 11.7022 177.948 6.6254 165.625 5.09729C153.303 3.56918 140.801 5.6557 129.643 11.1029C118.484 16.5502 109.15 25.1233 102.775 35.779C96.3997 46.4348 93.2593 58.7137 93.7356 71.1217C94.212 83.5297 98.2845 95.5318 105.458 105.667C112.631 115.803 122.595 123.635 134.139 128.211C145.682 132.787 158.306 133.909 170.476 131.44C182.645 128.972 193.835 123.02 202.683 114.308L281.253 180.605C282.448 181.616 283.996 182.11 285.556 181.979C287.116 181.849 288.561 181.104 289.571 179.908C290.582 178.713 291.076 177.165 290.946 175.605C290.815 174.045 290.07 172.601 288.875 171.59L288.866 171.583L210.296 105.285C219.423 92.1857 223.33 76.1496 221.249 60.3196C219.169 44.4897 211.253 30.0071 199.051 19.7101ZM193.986 98.9015C187.865 106.156 179.73 111.432 170.611 114.063C161.491 116.694 151.796 116.561 142.752 113.682C133.708 110.803 125.72 105.307 119.8 97.8882C113.879 90.4697 110.291 81.4621 109.49 72.0045C108.689 62.5469 110.71 53.0641 115.298 44.7552C119.886 36.4464 126.835 29.6847 135.266 25.3251C143.698 20.9656 153.232 19.2041 162.664 20.2633C172.096 21.3226 181.003 25.155 188.257 31.276H188.257C193.073 35.3401 197.042 40.3132 199.937 45.9112C202.831 51.5092 204.595 57.6225 205.127 63.9022C205.659 70.1818 204.949 76.5047 203.037 82.5099C201.126 88.515 198.05 94.0849 193.986 98.9015Z" fill="#3F3D56"/>
<path opacity="0.3" d="M126.36 104.63C117.154 96.8611 111.206 85.914 109.697 73.9625C108.189 62.011 111.23 49.9293 118.217 40.1162C117.299 41.0403 116.412 42.008 115.556 43.0195C111.492 47.8361 108.416 53.4059 106.504 59.4111C104.593 65.4163 103.883 71.7392 104.415 78.0188C104.947 84.2984 106.71 90.4118 109.605 96.0098C112.5 101.608 116.468 106.581 121.285 110.645C126.102 114.709 131.671 117.785 137.677 119.696C143.682 121.608 150.005 122.318 156.284 121.786C162.564 121.254 168.677 119.49 174.275 116.596C179.873 113.701 184.846 109.732 188.911 104.916C189.765 103.903 190.57 102.866 191.325 101.804C182.827 110.343 171.429 115.373 159.394 115.896C147.359 116.42 135.567 112.398 126.36 104.63Z" fill="black"/>
<path d="M258.542 153.962C259.219 154.127 259.925 154.142 260.609 154.006C261.293 153.869 261.938 153.585 262.5 153.171C263.062 152.758 263.527 152.227 263.861 151.615C264.195 151.003 264.392 150.325 264.436 149.629L280.771 145.095L274.131 139.306L259.636 144.499C258.462 144.502 257.33 144.936 256.455 145.719C255.579 146.501 255.021 147.578 254.886 148.744C254.751 149.91 255.049 151.086 255.722 152.048C256.396 153.009 257.399 153.69 258.542 153.962Z" fill="#FFB8B8"/>
<path d="M265.331 151.561L264.337 142.118L277.982 134.589L269.086 123.82L270.538 111.723L274.152 110.174L274.265 110.318C275.969 112.51 290.919 131.8 290.919 134.184C290.919 136.634 288.059 143.826 284.146 145.782C280.372 147.669 266.199 151.337 265.598 151.493L265.331 151.561Z" fill="#2F2E41"/>
<path d="M336.132 265H155.383C155.257 265 155.137 264.95 155.048 264.861C154.959 264.772 154.909 264.651 154.909 264.525C154.909 264.399 154.959 264.279 155.048 264.19C155.137 264.101 155.257 264.051 155.383 264.051H336.132C336.258 264.051 336.378 264.101 336.467 264.19C336.556 264.279 336.606 264.399 336.606 264.525C336.606 264.651 336.556 264.772 336.467 264.861C336.378 264.95 336.258 265 336.132 265Z" fill="#CCCCCC"/>
</g>
<defs>
<clipPath id="clip0">
<rect width="336.606" height="265" fill="white"/>
</clipPath>
</defs>
</svg>
