<svg width="397" height="350" viewBox="0 0 397 350" fill="none" xmlns="http://www.w3.org/2000/svg">
<g clip-path="url(#clip0)">
<path d="M206.356 341.281C263.141 341.281 309.174 339.637 309.174 337.609C309.174 335.581 263.141 333.937 206.356 333.937C149.572 333.937 103.539 335.581 103.539 337.609C103.539 339.637 149.572 341.281 206.356 341.281Z" fill="#3F3D56"/>
<path d="M158.427 173.531C178.745 173.531 195.217 157.06 195.217 136.741C195.217 116.423 178.745 99.9512 158.427 99.9512C138.108 99.9512 121.637 116.423 121.637 136.741C121.637 157.06 138.108 173.531 158.427 173.531Z" fill="#FF6584"/>
<path d="M115.081 327.976C132.206 327.976 146.088 326.696 146.088 325.118C146.088 323.539 132.206 322.26 115.081 322.26C97.9562 322.26 84.0737 323.539 84.0737 325.118C84.0737 326.696 97.9562 327.976 115.081 327.976Z" fill="#3F3D56"/>
<path d="M171.569 337.86C171.569 337.86 197.305 269.232 183.117 227C168.93 184.767 157.712 186.417 157.712 186.417C157.712 186.417 138.575 181.468 114.82 195.985C91.0638 210.503 84.7949 214.792 71.2673 208.853C57.7397 202.914 55.1002 193.676 22.1061 194.665C22.1061 194.665 39.5929 185.097 56.7499 193.676C73.9068 202.254 85.4548 206.873 102.942 193.676C120.429 180.478 144.514 163.321 167.94 173.549C167.94 173.549 150.783 156.722 145.174 156.722C139.565 156.722 113.17 154.083 104.591 145.174C104.591 145.174 92.3836 136.596 70.6074 157.712C48.8313 178.828 54.1104 178.828 34.6438 177.178C15.1773 175.529 0 165.96 0 165.96C0 165.96 22.7659 175.199 36.6235 170.58C50.481 165.96 62.3589 148.474 74.5667 142.535C86.7746 136.596 94.0332 128.677 110.53 137.256C110.53 137.256 103.602 108.881 90.4039 111.19C77.2062 113.5 96.6728 104.591 96.6728 104.591C96.6728 104.591 93.0434 56.42 86.1147 53.1206C79.1859 49.8211 83.4751 41.2427 70.6074 39.593C70.6074 39.593 86.4446 37.6133 89.4141 48.5014C92.3835 59.3894 112.84 118.119 112.84 118.119C112.84 118.119 125.378 143.195 139.235 137.256C153.093 131.317 133.956 97.9926 133.956 97.9926L110.2 87.1045C110.2 87.1045 128.017 86.4446 138.905 96.6728C149.793 106.901 150.453 139.895 150.453 139.895C150.453 139.895 177.838 143.854 184.437 158.702C184.437 158.702 188.726 145.504 180.478 137.586C178.416 135.606 176.25 132.162 174.163 128.11C166.178 112.614 163.469 94.9499 165.981 77.6997C167.21 69.2582 167.967 61.0044 166.62 59.0595C163.651 54.7703 151.113 28.3749 150.123 21.4462C149.133 14.5174 151.113 0 151.113 0C151.113 0 151.443 17.8168 155.402 23.4258C159.362 29.0348 170.58 56.7499 170.58 56.7499C170.58 56.7499 170.58 91.7237 179.818 108.881C189.056 126.038 206.873 145.174 205.883 157.712V164.971C205.883 164.971 225.68 146.164 224.36 139.895C223.04 133.626 221.391 118.779 208.853 109.87C196.315 100.962 188.067 86.7746 196.975 66.3182C205.883 45.8618 205.883 42.2325 205.883 42.2325L199.944 67.638C199.944 67.638 196.645 90.4039 205.883 98.3225C215.122 106.241 227.33 120.759 227.33 120.759L224.69 73.247L233.268 92.0536C233.268 92.0536 251.745 68.2978 273.521 60.3793C295.297 52.4607 308.825 24.7456 308.825 24.7456L327.302 10.2282L312.124 28.3749C312.124 28.3749 307.505 49.8211 281.44 64.9984C255.375 80.1757 238.548 102.612 237.558 116.469C236.568 130.327 235.578 142.535 235.578 142.535C235.578 142.535 284.409 140.885 295.297 119.439C306.185 97.9926 307.175 55.4301 317.733 48.5014C328.292 41.5726 348.088 32.9941 348.088 32.9941L325.982 51.1409C325.982 51.1409 321.363 65.9883 322.353 76.5464C323.342 87.1045 315.094 97.0027 315.094 97.0027L308.825 115.479L301.896 131.317C301.896 131.317 330.271 131.977 345.119 148.804C359.966 165.631 396.919 170.58 396.919 170.58L376.133 176.189C376.133 176.189 356.337 169.59 337.53 157.382C318.723 145.174 320.703 134.286 297.277 146.494C273.851 158.702 241.847 168.93 241.847 168.93C241.847 168.93 260.324 160.351 293.648 181.138C326.972 201.924 277.151 177.508 262.303 185.427C247.456 193.346 240.527 183.447 234.588 203.244C228.649 223.04 217.761 277.151 230.299 307.505L242.837 337.86H171.569Z" fill="#3F3D56"/>
<path opacity="0.1" d="M295.798 119.439C286.952 136.862 253.062 141.219 240.66 142.241C240.312 146.714 240.083 149.542 240.083 149.542C240.083 149.542 288.914 147.892 299.802 126.446C310.69 105 311.68 62.4375 322.238 55.5088C323.358 54.774 324.582 54.0205 325.875 53.2608C326.238 51.9291 326.482 51.1409 326.482 51.1409L348.589 32.9941C348.589 32.9941 328.792 41.5726 318.234 48.5014C307.676 55.4301 306.686 97.9926 295.798 119.439Z" fill="black"/>
<path opacity="0.1" d="M238.9 86.1055C238.828 94.2289 237.773 99.0604 237.773 99.0604C237.773 99.0604 256.242 75.3148 278.012 67.3911C279.299 66.5772 280.604 65.7758 281.94 64.9978C308.006 49.8205 312.625 28.3743 312.625 28.3743L327.802 10.2275L309.325 24.745C309.325 24.745 295.798 52.46 274.022 60.3786C259.178 65.7763 245.87 78.5304 238.9 86.1055Z" fill="black"/>
<path opacity="0.1" d="M210.388 164.719V171.978C210.388 171.978 230.184 153.171 228.865 146.902C227.855 142.108 226.647 132.298 220.529 123.963C223.287 130.262 224.126 136.406 224.86 139.895C225.807 144.39 215.895 155.332 210.211 161.164C210.411 162.338 210.47 163.531 210.388 164.719Z" fill="black"/>
<path opacity="0.1" d="M183.833 114.906C183.99 115.241 184.151 115.57 184.323 115.888C189.382 125.284 197.01 135.272 202.717 144.447C198.105 135.361 190.078 124.971 183.833 114.906Z" fill="black"/>
<path opacity="0.1" d="M199.918 100.86C197.258 94.3406 196.819 86.5834 199.876 77.4934C199.838 74.1991 200.028 70.9062 200.445 67.6382L205.64 45.4141C204.682 48.619 202.491 54.8018 197.475 66.3184C191.126 80.8979 193.496 92.2906 199.918 100.86Z" fill="black"/>
<path opacity="0.1" d="M345.619 148.804C335.322 137.134 318.522 133.241 309.189 131.95L306.401 138.324C306.401 138.324 334.776 138.984 349.623 155.811C357.857 165.142 372.886 170.82 384.644 174.027L397.42 170.58C397.42 170.58 360.466 165.631 345.619 148.804Z" fill="black"/>
<path opacity="0.1" d="M143.74 144.263C157.597 138.324 138.461 105 138.461 105L137.937 104.76C142.708 114.826 149.627 133.016 139.736 137.255C130.48 141.222 121.814 131.353 117.078 124.361C117.25 124.855 117.345 125.126 117.345 125.126C117.345 125.126 129.882 150.202 143.74 144.263Z" fill="black"/>
<path opacity="0.1" d="M188.942 165.709C188.942 165.709 193.118 152.838 185.273 144.891C187.197 151.737 184.938 158.701 184.938 158.701C179.833 147.216 162.293 142.247 154.61 140.585C154.908 144.409 154.958 146.902 154.958 146.902C154.958 146.902 182.343 150.861 188.942 165.709Z" fill="black"/>
<path opacity="0.1" d="M205.64 45.4138C206.384 42.926 206.384 42.2324 206.384 42.2324L205.64 45.4138Z" fill="black"/>
<path opacity="0.1" d="M40.928 177.65C40.9945 177.628 41.0621 177.609 41.1282 177.587C54.9857 172.967 66.8636 155.481 79.0715 149.542C91.2793 143.603 98.538 135.684 115.035 144.263C115.035 144.263 112.149 132.449 106.556 124.688C108.409 128.739 109.906 132.944 111.031 137.255C94.5337 128.677 87.275 136.595 75.0672 142.534C62.8594 148.473 50.9815 165.96 37.124 170.579C23.2664 175.198 0.500488 165.96 0.500488 165.96C0.500488 165.96 15.6778 175.528 35.1443 177.178C37.3712 177.367 39.2712 177.533 40.928 177.65Z" fill="black"/>
<path opacity="0.1" d="M178.485 337.859C184.53 319.327 199.069 268.08 187.622 234.006C182.679 219.291 178.097 209.908 174.224 203.922C177.12 209.589 180.287 217.084 183.618 226.999C197.806 269.231 172.07 337.859 172.07 337.859H178.485Z" fill="black"/>
<path opacity="0.1" d="M49.6333 197.32C53.6784 197.73 57.6157 198.87 61.2548 200.683C74.8048 207.458 84.8583 211.755 97.0998 206.765C99.8885 205.292 103.008 203.469 106.605 201.298C106.885 201.094 107.163 200.897 107.447 200.683C124.933 187.486 149.019 170.329 172.445 180.557C172.445 180.557 167.71 175.915 162.403 171.507C140.932 166.24 119.429 181.61 103.442 193.676C85.9554 206.874 74.4075 202.254 57.2505 193.676C40.0935 185.097 22.6067 194.666 22.6067 194.666C35.3548 194.283 43.5693 195.429 49.6333 197.32Z" fill="black"/>
<path opacity="0.1" d="M83.1233 49.918C83.4996 50.5517 83.9556 51.1347 84.4801 51.6526C84.0949 51.0249 83.6397 50.443 83.1233 49.918V49.918Z" fill="black"/>
<path opacity="0.1" d="M143.41 103.68C143.92 104.162 144.398 104.677 144.84 105.222C143.395 101.748 141.61 98.7434 139.406 96.6726C128.518 86.4444 110.701 87.1043 110.701 87.1043L133.045 97.3454C136.874 98.7738 140.393 100.924 143.41 103.68V103.68Z" fill="black"/>
<path opacity="0.1" d="M167.121 59.0595C168.467 61.0044 167.711 69.2582 166.482 77.6997C163.97 94.9499 166.679 112.614 174.663 128.11C175.714 130.19 176.888 132.205 178.179 134.145C170.576 118.884 168.026 101.598 170.486 84.7071C171.715 76.2656 172.472 68.0118 171.125 66.0669C168.156 61.7777 155.618 35.3824 154.628 28.4536C154.331 25.7655 154.262 23.0572 154.421 20.3576C151.858 13.0856 151.614 0 151.614 0C151.614 0 149.634 14.5174 150.624 21.4462C151.614 28.3749 164.151 54.7703 167.121 59.0595Z" fill="black"/>
<path opacity="0.1" d="M198.075 13.4462C197.942 12.7941 197.742 12.1578 197.476 11.5479C197.476 11.5479 197.729 12.2599 198.075 13.4462Z" fill="black"/>
<path opacity="0.1" d="M81.5377 46.6757C84.4455 47.0316 87.7904 47.9238 90.3418 49.9929C90.1753 49.43 90.0302 48.9254 89.9146 48.5013C86.9451 37.6133 71.1079 39.5929 71.1079 39.5929C78.2649 40.5105 80.1136 43.5717 81.5377 46.6757Z" fill="black"/>
<path d="M163.543 323.762C165.896 332.458 173.954 337.844 173.954 337.844C173.954 337.844 178.197 329.131 175.845 320.434C173.492 311.738 165.435 306.353 165.435 306.353C165.435 306.353 161.191 315.066 163.543 323.762Z" fill="#3F3D56"/>
<path d="M167 321.893C173.455 328.177 174.244 337.837 174.244 337.837C174.244 337.837 164.566 337.309 158.111 331.025C151.656 324.741 150.867 315.081 150.867 315.081C150.867 315.081 160.545 315.609 167 321.893Z" fill="#FE4400"/>
<path d="M145.605 86.1144C145.044 95.1056 138.229 101.998 138.229 101.998C138.229 101.998 132.325 94.3118 132.886 85.3206C133.447 76.3294 140.262 69.4375 140.262 69.4375C140.262 69.4375 146.166 77.1232 145.605 86.1144Z" fill="#FE4400"/>
<path d="M74.5717 29.2735C82.1923 34.078 84.9719 43.3628 84.9719 43.3628C84.9719 43.3628 75.396 44.858 67.7754 40.0535C60.1548 35.249 57.3752 25.9642 57.3752 25.9642C57.3752 25.9642 66.9511 24.469 74.5717 29.2735Z" fill="#FE4400"/>
<path d="M57.5537 138.889C65.1743 143.693 67.9538 152.978 67.9538 152.978C67.9538 152.978 58.3779 154.473 50.7573 149.669C43.1367 144.864 40.3572 135.579 40.3572 135.579C40.3572 135.579 49.9331 134.084 57.5537 138.889Z" fill="#FE4400"/>
<path d="M98.0966 180.934C105.717 185.738 108.497 195.023 108.497 195.023C108.497 195.023 98.9209 196.518 91.3003 191.714C83.6797 186.909 80.9001 177.624 80.9001 177.624C80.9001 177.624 90.476 176.129 98.0966 180.934Z" fill="#FE4400"/>
<path d="M212.477 45.2988C210.179 54.0095 202.155 59.4454 202.155 59.4454C202.155 59.4454 197.857 50.7586 200.155 42.0479C202.453 33.3373 210.477 27.9014 210.477 27.9014C210.477 27.9014 214.775 36.5882 212.477 45.2988Z" fill="#FE4400"/>
<path d="M284.971 52.0899C282.27 60.6841 274.002 65.7406 274.002 65.7406C274.002 65.7406 270.113 56.8631 272.814 48.2689C275.515 39.6747 283.784 34.6182 283.784 34.6182C283.784 34.6182 287.673 43.4956 284.971 52.0899Z" fill="#FE4400"/>
<path d="M363.326 147.74C358.434 155.304 349.117 157.975 349.117 157.975C349.117 157.975 347.734 148.383 352.626 140.818C357.519 133.254 366.836 130.583 366.836 130.583C366.836 130.583 368.219 140.176 363.326 147.74Z" fill="#FE4400"/>
<path d="M240.316 209.591C240.316 209.591 239.53 212.473 241.102 213.521C242.673 214.569 243.197 219.547 243.197 219.547L240.054 228.192L231.67 229.764L228.527 223.738V214.831C228.527 214.831 229.575 210.377 229.313 209.067C229.051 207.758 240.316 209.591 240.316 209.591Z" fill="#FFB9B9"/>
<path opacity="0.2" d="M240.316 209.591C240.316 209.591 239.53 212.473 241.102 213.521C242.673 214.569 243.197 219.547 243.197 219.547L240.054 228.192L231.67 229.764L228.527 223.738V214.831C228.527 214.831 229.575 210.377 229.313 209.067C229.051 207.758 240.316 209.591 240.316 209.591Z" fill="black"/>
<path d="M248.699 259.105L255.51 260.415C255.51 260.415 256.034 268.013 255.51 269.847C254.986 271.68 254.463 273.776 254.986 274.3C255.51 274.824 252.629 288.185 252.891 288.971C253.153 289.757 253.677 292.115 253.415 293.687C253.153 295.258 252.367 294.735 252.891 296.306C253.415 297.878 253.939 298.14 253.415 299.188C252.891 300.236 250.271 325.648 249.485 325.91C248.699 326.172 241.626 326.434 241.626 325.91C241.626 325.386 243.983 321.456 243.197 320.408C242.412 319.36 243.459 301.546 243.459 300.76C243.459 299.974 245.031 298.664 244.245 298.14C243.459 297.616 242.935 297.092 243.197 296.306C243.459 295.52 243.983 295.258 243.459 294.473C242.935 293.687 242.935 277.968 241.102 277.444C241.102 277.444 238.744 288.971 239.53 291.853C240.316 294.734 239.268 295.782 239.268 295.782L242.935 298.926L237.958 308.357L232.718 302.332C232.718 302.332 232.718 300.76 231.67 300.498C230.622 300.236 230.099 299.974 230.099 299.188C230.099 298.402 228.265 293.425 228.265 293.425C228.265 293.425 223.025 276.92 225.645 268.537C228.265 260.153 229.274 260.431 229.274 260.431L248.699 259.105Z" fill="#2F2E41"/>
<path d="M252.891 313.335L255.772 316.479L254.725 325.124H252.367L248.699 317.002L252.891 313.335Z" fill="#FFB9B9"/>
<path d="M254.724 319.098C254.724 319.098 253.677 321.456 252.891 320.932C252.105 320.408 251.844 319.622 250.665 319.622C249.485 319.622 248.437 319.884 248.699 320.408C248.961 320.932 252.105 326.696 252.105 326.696C252.566 327.68 252.805 328.753 252.805 329.839C252.805 330.926 252.566 331.999 252.105 332.983C250.533 336.389 256.296 338.223 257.344 334.555C258.392 330.887 258.654 326.696 258.392 325.124C258.13 323.552 259.702 315.431 259.702 315.431C259.702 315.431 255.47 313.48 254.18 313.407C254.18 313.407 255.248 318.05 254.724 319.098Z" fill="#2F2E41"/>
<path d="M247.651 324.862L248.699 328.006C248.699 328.006 248.699 331.15 249.747 332.722C250.795 334.294 251.843 337.699 247.651 337.961C243.459 338.223 241.625 336.651 241.625 336.651C241.625 336.651 242.411 334.556 241.625 333.77C240.839 332.984 241.625 331.412 241.625 331.412L242.411 325.124L247.651 324.862Z" fill="#2F2E41"/>
<path d="M240.578 298.664H242.935L254.724 314.121C254.724 314.121 252.629 319.098 249.485 319.622C249.485 319.622 248.961 319.36 246.603 317.788C244.245 316.217 237.958 308.357 237.958 308.357L237.172 303.904L240.578 298.664Z" fill="#2F2E41"/>
<path d="M234.814 212.997C239.444 212.997 243.198 209.244 243.198 204.614C243.198 199.984 239.444 196.23 234.814 196.23C230.184 196.23 226.431 199.984 226.431 204.614C226.431 209.244 230.184 212.997 234.814 212.997Z" fill="#FFB9B9"/>
<path d="M245.031 215.356L242.412 214.308C242.412 214.308 242.15 223.477 237.172 223.477C232.194 223.477 226.955 222.167 226.955 219.547C226.955 216.927 222.763 224.263 222.763 224.263C222.763 224.263 226.693 250.461 226.431 250.723C226.169 250.985 229.313 264.869 229.313 264.869C229.313 264.869 242.674 265.393 247.127 263.56C251.581 261.726 252.891 258.32 252.891 258.32L251.057 235.266L247.389 217.451L245.031 215.356Z" fill="#FE4400"/>
<path d="M240.579 212.997C240.579 212.997 241.626 211.949 243.197 212.997C244.769 214.045 254.462 216.403 254.462 217.189V227.144C254.462 227.144 254.724 228.716 253.938 229.764C253.152 230.812 251.319 234.741 252.367 236.575C253.414 238.409 257.344 259.629 256.558 262.249C255.772 264.869 253.676 267.227 253.676 267.227C253.676 267.227 242.411 243.386 242.411 236.575C242.411 229.764 242.521 221.407 242.521 221.407L240.579 212.997Z" fill="#575A89"/>
<path d="M252.105 217.451H254.462C254.462 217.451 263.37 234.48 263.37 237.885C263.37 241.291 257.606 260.154 257.082 260.416C256.558 260.678 254.986 257.534 254.986 257.534L253.676 247.055C253.676 247.055 256.296 240.767 255.51 239.719C254.724 238.671 250.795 230.55 250.795 230.55L252.105 217.451Z" fill="#575A89"/>
<path d="M228.914 212.997C228.914 212.997 225.907 215.093 225.383 215.879C224.859 216.665 217 221.118 216.738 222.166C216.476 223.214 222.763 232.121 222.763 232.121C222.763 232.121 225.383 246.792 225.383 247.84C225.383 248.888 226.431 266.703 226.431 266.703C226.431 266.703 237.172 269.846 237.172 268.012C237.172 266.179 237.434 239.981 235.862 234.217C234.29 228.454 228.914 212.997 228.914 212.997Z" fill="#575A89"/>
<path d="M230.622 267.227C230.622 267.227 239.53 279.278 234.814 279.016C230.099 278.754 226.955 268.536 226.955 268.536L230.622 267.227Z" fill="#FFB9B9"/>
<path d="M219.881 221.381L216.738 222.167C216.738 222.167 214.118 245.221 215.69 248.365C217.262 251.508 225.645 271.943 225.645 271.157C225.645 270.371 233.02 268.97 232.738 268.229C232.456 267.489 230.884 264.345 230.361 263.297C229.837 262.249 229.051 260.94 229.313 259.63C229.575 258.32 226.431 252.713 226.431 252.713C226.431 252.713 225.645 249.413 225.383 247.841C225.121 246.269 222.763 228.978 222.763 228.978L219.881 221.381Z" fill="#575A89"/>
<path d="M243.034 198.125C242.874 197.632 242.535 197.217 242.085 196.96C242.109 196.439 242.041 195.919 241.885 195.422C241.363 193.969 240.127 194.053 238.96 193.411C238.454 193.132 238.486 192.886 238.222 192.429C237.868 191.821 237.351 191.324 236.73 190.995C236.01 190.485 235.18 190.153 234.306 190.028C232.446 189.908 231.02 191.555 229.242 192.084C228.458 192.317 227.616 192.326 226.828 192.547C226.04 192.767 225.254 193.293 225.136 194.059C225.082 194.412 225.178 194.775 225.123 195.128C225.014 195.83 224.359 196.322 223.921 196.9C222.951 198.178 223.062 199.982 223.837 201.372C224.001 201.661 224.188 201.936 224.396 202.195C224.462 202.856 224.663 203.496 224.986 204.076C225.761 205.466 227.095 206.504 228.488 207.367C228.374 206.907 228.305 206.437 228.281 205.964C228.262 205.806 228.284 205.646 228.345 205.499C228.5 205.193 228.91 205.112 229.223 204.945C229.521 204.749 229.762 204.479 229.924 204.161C230.085 203.843 230.161 203.488 230.143 203.132C230.161 202.431 230.004 201.729 230.081 201.032C230.086 200.87 230.125 200.71 230.197 200.564C230.269 200.419 230.372 200.29 230.499 200.188C230.74 200.059 231.012 199.998 231.285 200.012C232.612 199.961 233.998 199.938 235.168 199.347C235.548 199.11 235.953 198.917 236.376 198.772C237.371 198.528 238.387 199.184 238.96 199.987C239.533 200.79 239.819 201.745 240.348 202.575C240.876 203.404 241.79 204.144 242.812 204.045C242.869 204.046 242.925 204.035 242.978 204.013C243.03 203.991 243.078 203.958 243.117 203.918C243.161 203.844 243.181 203.758 243.174 203.673L243.231 199.995C243.278 199.365 243.211 198.731 243.034 198.125V198.125Z" fill="#2F2E41"/>
</g>
<defs>
<clipPath id="clip0">
<rect width="397" height="350" fill="white"/>
</clipPath>
</defs>
</svg>
