<svg width="561" height="561" viewBox="0 0 561 561" fill="none" xmlns="http://www.w3.org/2000/svg">
<g opacity="0.1">
<rect x="269.406" width="291.593" height="282.085" fill="#F3F1F0"/>
<circle cx="280.5" cy="280.5" r="280.5" fill="#F3F1F0"/>
</g>
<g clip-path="url(#clip0)">
<path d="M91.3137 291.35C105.369 291.35 116.764 279.949 116.764 265.885C116.764 251.822 105.369 240.421 91.3137 240.421C77.2579 240.421 65.8635 251.822 65.8635 265.885C65.8635 279.949 77.2579 291.35 91.3137 291.35Z" fill="#FF6584"/>
<path d="M143.433 409.719H143.407C142.511 409.718 141.652 409.361 141.018 408.727C140.384 408.093 140.028 407.234 140.027 406.337V207.795C140.028 206.898 140.384 206.039 141.018 205.405C141.652 204.77 142.511 204.414 143.407 204.413H310.423C311.32 204.414 312.179 204.77 312.812 205.405C313.446 206.039 313.803 206.898 313.804 207.795V362.172C313.803 363.064 313.45 363.92 312.822 364.553C312.194 365.186 311.341 365.546 310.45 365.554L143.433 409.719Z" fill="#F2F2F2"/>
<path d="M266.88 176.362H189.337V131.402C189.338 130.453 189.715 129.542 190.386 128.871C191.057 128.2 191.967 127.822 192.916 127.821H263.301C264.25 127.822 265.16 128.2 265.831 128.871C266.502 129.542 266.879 130.453 266.88 131.402V176.362ZM190.132 175.567H266.085V131.402C266.084 130.664 265.79 129.956 265.269 129.433C264.747 128.911 264.039 128.618 263.301 128.617H192.916C192.178 128.618 191.47 128.911 190.948 129.433C190.426 129.956 190.133 130.664 190.132 131.402V175.567Z" fill="#3F3D56"/>
<path d="M211.407 144.93H244.81C245.654 144.93 246.463 145.265 247.059 145.862C247.656 146.459 247.991 147.269 247.991 148.113V195.858H208.225V148.113C208.225 147.269 208.561 146.459 209.157 145.862C209.754 145.265 210.563 144.93 211.407 144.93Z" fill="#E6E6E6"/>
<path d="M217.968 128.617H201.664V112.304C201.665 111.776 201.874 111.271 202.247 110.898C202.62 110.525 203.125 110.315 203.652 110.314H215.98C216.507 110.315 217.012 110.525 217.385 110.898C217.758 111.271 217.967 111.776 217.968 112.304V128.617ZM202.459 127.821H217.173V112.304C217.172 111.987 217.047 111.684 216.823 111.46C216.599 111.236 216.296 111.11 215.98 111.11H203.652C203.336 111.11 203.033 111.236 202.809 111.46C202.586 111.684 202.46 111.987 202.459 112.304V127.821Z" fill="#3F3D56"/>
<path d="M351.943 368.475C351.785 368.475 351.63 368.475 351.472 368.47C341.634 368.362 332.175 364.662 324.871 358.067C324.601 357.821 324.333 357.572 324.067 357.32L323.944 357.202V280.947L323.982 280.867C324.245 280.308 324.512 279.758 324.779 279.208C333.051 262.405 342.697 253.153 351.943 253.153C365.276 253.153 375.617 271.453 380.594 282.361C387.515 297.53 392.349 316.326 392.349 328.07C392.346 338.709 388.15 348.918 380.672 356.481C373.194 364.045 363.037 368.353 352.405 368.471C352.256 368.475 352.098 368.475 351.943 368.475ZM324.739 356.861C324.96 357.069 325.182 357.275 325.405 357.477C332.566 363.943 341.841 367.569 351.486 367.675C351.647 367.679 351.8 367.675 351.954 367.679C352.098 367.679 352.246 367.679 352.39 367.675C373.988 367.435 391.554 349.668 391.554 328.07C391.554 316.428 386.75 297.768 379.871 282.692C374.973 271.957 364.832 253.949 351.943 253.949C343.016 253.949 333.623 263.043 325.494 279.557C325.242 280.076 324.989 280.598 324.739 281.126L324.739 356.861Z" fill="#3F3D56"/>
<path d="M351.941 416.717C351.82 416.717 351.704 416.668 351.618 416.583C351.532 416.497 351.484 416.38 351.484 416.259V322.81C351.483 322.749 351.495 322.689 351.518 322.634C351.541 322.578 351.574 322.527 351.617 322.484C351.659 322.441 351.71 322.407 351.766 322.384C351.821 322.361 351.881 322.349 351.941 322.349C352.002 322.349 352.061 322.361 352.117 322.384C352.173 322.407 352.223 322.441 352.266 322.484C352.308 322.527 352.342 322.578 352.365 322.634C352.388 322.689 352.399 322.749 352.399 322.81V416.259C352.399 416.38 352.351 416.497 352.265 416.583C352.179 416.668 352.063 416.717 351.941 416.717Z" fill="#CCCCCC"/>
<path d="M114.539 416.717C114.418 416.717 114.301 416.668 114.216 416.583C114.13 416.497 114.082 416.38 114.082 416.259V322.81C114.081 322.749 114.093 322.689 114.116 322.634C114.138 322.578 114.172 322.527 114.215 322.484C114.257 322.441 114.308 322.407 114.363 322.384C114.419 322.361 114.479 322.349 114.539 322.349C114.599 322.349 114.659 322.361 114.715 322.384C114.77 322.407 114.821 322.441 114.864 322.484C114.906 322.527 114.94 322.578 114.963 322.634C114.985 322.689 114.997 322.749 114.997 322.81V416.259C114.997 416.38 114.948 416.497 114.863 416.583C114.777 416.668 114.66 416.717 114.539 416.717Z" fill="#CCCCCC"/>
<path d="M351.942 340.269C351.876 340.269 351.811 340.255 351.751 340.228C351.692 340.201 351.639 340.161 351.596 340.111L328.586 313.561C328.506 313.469 328.467 313.35 328.476 313.229C328.484 313.108 328.541 312.995 328.632 312.916C328.724 312.836 328.843 312.796 328.964 312.805C329.085 312.813 329.197 312.869 329.277 312.961L352.287 339.511C352.344 339.578 352.382 339.659 352.394 339.746C352.407 339.833 352.394 339.922 352.358 340.001C352.321 340.081 352.263 340.149 352.189 340.196C352.115 340.244 352.029 340.269 351.942 340.269V340.269Z" fill="#CCCCCC"/>
<path d="M351.941 355.592C351.851 355.592 351.762 355.565 351.687 355.515C351.612 355.465 351.553 355.393 351.519 355.309C351.484 355.226 351.475 355.134 351.493 355.045C351.51 354.956 351.554 354.875 351.618 354.811L364.692 341.728C364.778 341.643 364.895 341.595 365.016 341.595C365.137 341.595 365.253 341.644 365.339 341.729C365.424 341.815 365.472 341.931 365.473 342.052C365.473 342.173 365.425 342.29 365.339 342.376L352.265 355.458C352.222 355.501 352.172 355.534 352.116 355.557C352.061 355.58 352.001 355.592 351.941 355.592Z" fill="#CCCCCC"/>
<path d="M394.271 416.906H360.07V416.508C360.069 414.26 360.51 412.035 361.369 409.958C362.228 407.881 363.488 405.994 365.076 404.404C366.664 402.814 368.549 401.553 370.624 400.693C372.7 399.833 374.924 399.39 377.17 399.39C379.417 399.39 381.641 399.833 383.716 400.693C385.792 401.553 387.677 402.814 389.265 404.404C390.853 405.994 392.113 407.881 392.971 409.958C393.83 412.035 394.272 414.26 394.271 416.508L394.271 416.906ZM360.87 416.11H393.471C393.367 411.853 391.604 407.806 388.558 404.832C385.513 401.858 381.426 400.194 377.17 400.194C372.915 400.194 368.828 401.858 365.782 404.832C362.737 407.806 360.974 411.853 360.87 416.11H360.87Z" fill="#3F3D56"/>
<path d="M377.17 406.797C377.051 406.797 376.936 406.844 376.851 406.929C376.767 407.014 376.719 407.129 376.719 407.249V412.047L372.047 408.035C372.002 407.996 371.95 407.967 371.894 407.948C371.837 407.929 371.778 407.922 371.719 407.927C371.66 407.931 371.602 407.947 371.549 407.974C371.496 408.001 371.449 408.038 371.41 408.083C371.371 408.128 371.342 408.18 371.323 408.237C371.305 408.293 371.298 408.353 371.302 408.412C371.307 408.471 371.323 408.529 371.35 408.582C371.377 408.635 371.414 408.682 371.459 408.72L376.719 413.237V416.056C376.719 416.116 376.73 416.175 376.753 416.229C376.776 416.284 376.809 416.334 376.851 416.376C376.893 416.419 376.942 416.452 376.997 416.475C377.052 416.497 377.111 416.509 377.17 416.509C377.23 416.509 377.289 416.497 377.343 416.475C377.398 416.452 377.448 416.419 377.49 416.376C377.532 416.334 377.565 416.284 377.588 416.229C377.61 416.175 377.622 416.116 377.622 416.056V407.249C377.622 407.129 377.574 407.014 377.49 406.929C377.405 406.844 377.29 406.797 377.17 406.797Z" fill="#3F3D56"/>
<path d="M107.559 416.906H73.3584V416.508C73.3573 414.26 73.7988 412.035 74.6577 409.958C75.5166 407.881 76.776 405.994 78.3641 404.404C79.9521 402.814 81.8376 401.553 83.9128 400.693C85.9881 399.833 88.2124 399.39 90.4587 399.39C92.7051 399.39 94.9294 399.833 97.0047 400.693C99.0799 401.553 100.965 402.814 102.553 404.404C104.141 405.994 105.401 407.881 106.26 409.958C107.119 412.035 107.56 414.26 107.559 416.508L107.559 416.906ZM74.1585 416.11H106.759C106.655 411.853 104.892 407.806 101.847 404.832C98.8012 401.858 94.7143 400.194 90.4587 400.194C86.2032 400.194 82.1163 401.858 79.0707 404.832C76.0252 407.806 74.2623 411.853 74.1585 416.11H74.1585Z" fill="#3F3D56"/>
<path d="M90.4587 406.797C90.3389 406.797 90.2241 406.844 90.1395 406.929C90.0548 407.014 90.0072 407.129 90.0072 407.249V412.047L85.3357 408.035C85.2908 407.996 85.2386 407.967 85.1822 407.948C85.1258 407.929 85.0663 407.922 85.0071 407.927C84.9479 407.931 84.8901 407.947 84.8371 407.974C84.7841 408.001 84.7369 408.038 84.6983 408.083C84.6596 408.128 84.6302 408.18 84.6117 408.237C84.5933 408.293 84.5861 408.353 84.5907 408.412C84.5953 408.471 84.6115 408.529 84.6384 408.582C84.6653 408.635 84.7024 408.682 84.7476 408.72L90.0072 413.237V416.056C90.007 416.116 90.0186 416.175 90.0412 416.229C90.0638 416.284 90.097 416.334 90.139 416.376C90.1809 416.419 90.2307 416.452 90.2856 416.475C90.3405 416.497 90.3993 416.509 90.4587 416.509C90.5181 416.509 90.5769 416.497 90.6317 416.475C90.6866 416.452 90.7364 416.419 90.7784 416.376C90.8203 416.334 90.8535 416.284 90.8761 416.229C90.8987 416.175 90.9103 416.116 90.9101 416.056V407.249C90.9101 407.129 90.8625 407.014 90.7779 406.929C90.6932 406.844 90.5784 406.797 90.4587 406.797Z" fill="#3F3D56"/>
<path d="M114.939 368.475C114.78 368.475 114.626 368.475 114.467 368.47C103.836 368.35 93.6808 364.042 86.2041 356.478C78.7274 348.915 74.5323 338.708 74.5286 328.07C74.5286 316.326 79.3626 297.53 86.284 282.361C91.2615 271.453 101.603 253.153 114.939 253.153C120.432 253.153 125.963 256.286 131.379 262.464C131.647 262.768 131.916 263.082 132.182 263.404L132.273 263.514V364.57L132.048 364.679C131.781 364.809 131.509 364.93 131.238 365.048C126.247 367.258 120.857 368.422 115.4 368.471C115.252 368.475 115.093 368.475 114.939 368.475ZM114.939 253.949C102.048 253.949 91.9057 271.957 87.0074 282.692C80.1283 297.768 75.3239 316.428 75.3239 328.07C75.3239 349.665 92.8901 367.431 114.482 367.675C114.643 367.679 114.793 367.68 114.949 367.679C115.094 367.679 115.242 367.679 115.386 367.675C120.738 367.628 126.024 366.486 130.919 364.319C131.106 364.238 131.293 364.155 131.477 364.069V263.801C131.247 263.524 131.014 263.254 130.781 262.989C125.522 256.99 120.192 253.949 114.939 253.949Z" fill="#3F3D56"/>
<path d="M114.937 340.269C114.871 340.269 114.806 340.255 114.747 340.228C114.687 340.201 114.634 340.161 114.591 340.111L91.581 313.561C91.5018 313.469 91.4622 313.35 91.4709 313.229C91.4796 313.108 91.536 312.995 91.6275 312.916C91.7191 312.836 91.8384 312.796 91.9593 312.805C92.0802 312.813 92.1928 312.869 92.2724 312.961L115.282 339.511C115.34 339.578 115.377 339.659 115.389 339.746C115.402 339.833 115.389 339.922 115.353 340.001C115.316 340.081 115.258 340.149 115.184 340.196C115.11 340.244 115.025 340.269 114.937 340.269V340.269Z" fill="#CCCCCC"/>
<path d="M114.937 355.592C114.846 355.592 114.758 355.565 114.683 355.515C114.607 355.465 114.549 355.393 114.514 355.309C114.479 355.226 114.47 355.134 114.488 355.045C114.506 354.956 114.549 354.875 114.613 354.811L127.688 341.728C127.774 341.643 127.89 341.595 128.011 341.595C128.132 341.595 128.248 341.644 128.334 341.729C128.42 341.815 128.468 341.931 128.468 342.052C128.468 342.173 128.42 342.29 128.335 342.376L115.26 355.458C115.218 355.501 115.167 355.534 115.112 355.557C115.056 355.58 114.997 355.592 114.937 355.592Z" fill="#CCCCCC"/>
<path d="M150.867 179.545L151.161 180.126C151.292 180.377 151.36 180.655 151.36 180.938V196.654H165.278V180.938C165.278 180.655 165.347 180.377 165.477 180.126L165.771 179.545H150.867ZM164.483 180.938V195.858H152.156V180.938C152.156 180.737 152.132 180.536 152.084 180.341H164.555C164.507 180.536 164.483 180.737 164.483 180.938ZM168.364 179.545L168.658 180.126C168.789 180.377 168.857 180.655 168.857 180.938V196.654H182.775V180.938C182.775 180.655 182.844 180.377 182.974 180.126L183.268 179.545H168.364ZM181.98 180.938V195.858H169.653V180.938C169.653 180.737 169.629 180.536 169.581 180.341H182.052C182.004 180.536 181.98 180.737 181.98 180.938ZM185.861 179.545L186.155 180.126C186.286 180.377 186.354 180.655 186.354 180.938V196.654H200.272V180.938C200.272 180.655 200.341 180.377 200.471 180.126L200.765 179.545H185.861ZM199.477 180.938V195.858H187.149V180.938C187.15 180.737 187.126 180.536 187.078 180.341H199.549C199.501 180.536 199.477 180.737 199.477 180.938ZM203.358 179.545L203.652 180.126C203.783 180.377 203.851 180.655 203.851 180.938V196.654H217.769V180.938C217.769 180.655 217.838 180.377 217.968 180.126L218.262 179.545H203.358ZM216.974 180.938V195.858H204.646V180.938C204.647 180.737 204.623 180.536 204.575 180.341H217.046C216.998 180.536 216.974 180.737 216.974 180.938ZM220.855 179.545L221.149 180.126C221.28 180.377 221.348 180.655 221.348 180.938V196.654H235.266V180.938C235.266 180.655 235.335 180.377 235.465 180.126L235.759 179.545H220.855ZM234.471 180.938V195.858H222.143V180.938C222.144 180.737 222.12 180.536 222.072 180.341H234.542C234.495 180.536 234.471 180.737 234.471 180.938ZM238.352 179.545L238.646 180.126C238.777 180.377 238.845 180.655 238.845 180.938V196.654H252.763V180.938C252.763 180.655 252.832 180.377 252.962 180.126L253.256 179.545H238.352ZM251.968 180.938V195.858H239.64V180.938C239.641 180.737 239.617 180.536 239.569 180.341H252.039C251.992 180.536 251.968 180.737 251.968 180.938ZM255.849 179.545L256.143 180.126C256.274 180.377 256.342 180.655 256.342 180.938V196.654H270.26V180.938C270.26 180.655 270.328 180.377 270.459 180.126L270.753 179.545H255.849ZM269.465 180.938V195.858H257.137V180.938C257.138 180.737 257.114 180.536 257.066 180.341H269.536C269.489 180.536 269.465 180.737 269.465 180.938ZM273.346 179.545L273.64 180.126C273.771 180.377 273.839 180.655 273.839 180.938V196.654H287.757V180.938C287.757 180.655 287.825 180.377 287.956 180.126L288.25 179.545H273.346ZM286.962 180.938V195.858H274.634V180.938C274.635 180.737 274.611 180.536 274.563 180.341H287.033C286.986 180.536 286.962 180.737 286.962 180.938ZM290.843 179.545L291.137 180.126C291.268 180.377 291.336 180.655 291.336 180.938V196.654H305.254V180.938C305.254 180.655 305.322 180.377 305.453 180.126L305.747 179.545H290.843ZM304.459 180.938V195.858H292.131V180.938C292.132 180.737 292.107 180.536 292.06 180.341H304.53C304.483 180.536 304.459 180.737 304.459 180.938ZM290.843 179.545L291.137 180.126C291.268 180.377 291.336 180.655 291.336 180.938V196.654H305.254V180.938C305.254 180.655 305.322 180.377 305.453 180.126L305.747 179.545H290.843ZM304.459 180.938V195.858H292.131V180.938C292.132 180.737 292.107 180.536 292.06 180.341H304.53C304.483 180.536 304.459 180.737 304.459 180.938ZM273.346 179.545L273.64 180.126C273.771 180.377 273.839 180.655 273.839 180.938V196.654H287.757V180.938C287.757 180.655 287.825 180.377 287.956 180.126L288.25 179.545H273.346ZM286.962 180.938V195.858H274.634V180.938C274.635 180.737 274.611 180.536 274.563 180.341H287.033C286.986 180.536 286.962 180.737 286.962 180.938ZM255.849 179.545L256.143 180.126C256.274 180.377 256.342 180.655 256.342 180.938V196.654H270.26V180.938C270.26 180.655 270.328 180.377 270.459 180.126L270.753 179.545H255.849ZM269.465 180.938V195.858H257.137V180.938C257.138 180.737 257.114 180.536 257.066 180.341H269.536C269.489 180.536 269.465 180.737 269.465 180.938ZM238.352 179.545L238.646 180.126C238.777 180.377 238.845 180.655 238.845 180.938V196.654H252.763V180.938C252.763 180.655 252.832 180.377 252.962 180.126L253.256 179.545H238.352ZM251.968 180.938V195.858H239.64V180.938C239.641 180.737 239.617 180.536 239.569 180.341H252.039C251.992 180.536 251.968 180.737 251.968 180.938ZM220.855 179.545L221.149 180.126C221.28 180.377 221.348 180.655 221.348 180.938V196.654H235.266V180.938C235.266 180.655 235.335 180.377 235.465 180.126L235.759 179.545H220.855ZM234.471 180.938V195.858H222.143V180.938C222.144 180.737 222.12 180.536 222.072 180.341H234.542C234.495 180.536 234.471 180.737 234.471 180.938ZM203.358 179.545L203.652 180.126C203.783 180.377 203.851 180.655 203.851 180.938V196.654H217.769V180.938C217.769 180.655 217.838 180.377 217.968 180.126L218.262 179.545H203.358ZM216.974 180.938V195.858H204.646V180.938C204.647 180.737 204.623 180.536 204.575 180.341H217.046C216.998 180.536 216.974 180.737 216.974 180.938ZM185.861 179.545L186.155 180.126C186.286 180.377 186.354 180.655 186.354 180.938V196.654H200.272V180.938C200.272 180.655 200.341 180.377 200.471 180.126L200.765 179.545H185.861ZM199.477 180.938V195.858H187.149V180.938C187.15 180.737 187.126 180.536 187.078 180.341H199.549C199.501 180.536 199.477 180.737 199.477 180.938ZM168.364 179.545L168.658 180.126C168.789 180.377 168.857 180.655 168.857 180.938V196.654H182.775V180.938C182.775 180.655 182.844 180.377 182.974 180.126L183.268 179.545H168.364ZM181.98 180.938V195.858H169.653V180.938C169.653 180.737 169.629 180.536 169.581 180.341H182.052C182.004 180.536 181.98 180.737 181.98 180.938ZM150.867 179.545L151.161 180.126C151.292 180.377 151.36 180.655 151.36 180.938V196.654H165.278V180.938C165.278 180.655 165.347 180.377 165.477 180.126L165.771 179.545H150.867ZM164.483 180.938V195.858H152.156V180.938C152.156 180.737 152.132 180.536 152.084 180.341H164.555C164.507 180.536 164.483 180.737 164.483 180.938ZM290.843 179.545L291.137 180.126C291.268 180.377 291.336 180.655 291.336 180.938V196.654H305.254V180.938C305.254 180.655 305.322 180.377 305.453 180.126L305.747 179.545H290.843ZM304.459 180.938V195.858H292.131V180.938C292.132 180.737 292.107 180.536 292.06 180.341H304.53C304.483 180.536 304.459 180.737 304.459 180.938ZM273.346 179.545L273.64 180.126C273.771 180.377 273.839 180.655 273.839 180.938V196.654H287.757V180.938C287.757 180.655 287.825 180.377 287.956 180.126L288.25 179.545H273.346ZM286.962 180.938V195.858H274.634V180.938C274.635 180.737 274.611 180.536 274.563 180.341H287.033C286.986 180.536 286.962 180.737 286.962 180.938ZM255.849 179.545L256.143 180.126C256.274 180.377 256.342 180.655 256.342 180.938V196.654H270.26V180.938C270.26 180.655 270.328 180.377 270.459 180.126L270.753 179.545H255.849ZM269.465 180.938V195.858H257.137V180.938C257.138 180.737 257.114 180.536 257.066 180.341H269.536C269.489 180.536 269.465 180.737 269.465 180.938ZM238.352 179.545L238.646 180.126C238.777 180.377 238.845 180.655 238.845 180.938V196.654H252.763V180.938C252.763 180.655 252.832 180.377 252.962 180.126L253.256 179.545H238.352ZM251.968 180.938V195.858H239.64V180.938C239.641 180.737 239.617 180.536 239.569 180.341H252.039C251.992 180.536 251.968 180.737 251.968 180.938ZM220.855 179.545L221.149 180.126C221.28 180.377 221.348 180.655 221.348 180.938V196.654H235.266V180.938C235.266 180.655 235.335 180.377 235.465 180.126L235.759 179.545H220.855ZM234.471 180.938V195.858H222.143V180.938C222.144 180.737 222.12 180.536 222.072 180.341H234.542C234.495 180.536 234.471 180.737 234.471 180.938ZM203.358 179.545L203.652 180.126C203.783 180.377 203.851 180.655 203.851 180.938V196.654H217.769V180.938C217.769 180.655 217.838 180.377 217.968 180.126L218.262 179.545H203.358ZM216.974 180.938V195.858H204.646V180.938C204.647 180.737 204.623 180.536 204.575 180.341H217.046C216.998 180.536 216.974 180.737 216.974 180.938ZM185.861 179.545L186.155 180.126C186.286 180.377 186.354 180.655 186.354 180.938V196.654H200.272V180.938C200.272 180.655 200.341 180.377 200.471 180.126L200.765 179.545H185.861ZM199.477 180.938V195.858H187.149V180.938C187.15 180.737 187.126 180.536 187.078 180.341H199.549C199.501 180.536 199.477 180.737 199.477 180.938ZM168.364 179.545L168.658 180.126C168.789 180.377 168.857 180.655 168.857 180.938V196.654H182.775V180.938C182.775 180.655 182.844 180.377 182.974 180.126L183.268 179.545H168.364ZM181.98 180.938V195.858H169.653V180.938C169.653 180.737 169.629 180.536 169.581 180.341H182.052C182.004 180.536 181.98 180.737 181.98 180.938ZM150.867 179.545L151.161 180.126C151.292 180.377 151.36 180.655 151.36 180.938V196.654H165.278V180.938C165.278 180.655 165.347 180.377 165.477 180.126L165.771 179.545H150.867ZM164.483 180.938V195.858H152.156V180.938C152.156 180.737 152.132 180.536 152.084 180.341H164.555C164.507 180.536 164.483 180.737 164.483 180.938ZM290.843 179.545L291.137 180.126C291.268 180.377 291.336 180.655 291.336 180.938V196.654H305.254V180.938C305.254 180.655 305.322 180.377 305.453 180.126L305.747 179.545H290.843ZM304.459 180.938V195.858H292.131V180.938C292.132 180.737 292.107 180.536 292.06 180.341H304.53C304.483 180.536 304.459 180.737 304.459 180.938ZM273.346 179.545L273.64 180.126C273.771 180.377 273.839 180.655 273.839 180.938V196.654H287.757V180.938C287.757 180.655 287.825 180.377 287.956 180.126L288.25 179.545H273.346ZM286.962 180.938V195.858H274.634V180.938C274.635 180.737 274.611 180.536 274.563 180.341H287.033C286.986 180.536 286.962 180.737 286.962 180.938ZM255.849 179.545L256.143 180.126C256.274 180.377 256.342 180.655 256.342 180.938V196.654H270.26V180.938C270.26 180.655 270.328 180.377 270.459 180.126L270.753 179.545H255.849ZM269.465 180.938V195.858H257.137V180.938C257.138 180.737 257.114 180.536 257.066 180.341H269.536C269.489 180.536 269.465 180.737 269.465 180.938ZM238.352 179.545L238.646 180.126C238.777 180.377 238.845 180.655 238.845 180.938V196.654H252.763V180.938C252.763 180.655 252.832 180.377 252.962 180.126L253.256 179.545H238.352ZM251.968 180.938V195.858H239.64V180.938C239.641 180.737 239.617 180.536 239.569 180.341H252.039C251.992 180.536 251.968 180.737 251.968 180.938ZM220.855 179.545L221.149 180.126C221.28 180.377 221.348 180.655 221.348 180.938V196.654H235.266V180.938C235.266 180.655 235.335 180.377 235.465 180.126L235.759 179.545H220.855ZM234.471 180.938V195.858H222.143V180.938C222.144 180.737 222.12 180.536 222.072 180.341H234.542C234.495 180.536 234.471 180.737 234.471 180.938ZM203.358 179.545L203.652 180.126C203.783 180.377 203.851 180.655 203.851 180.938V196.654H217.769V180.938C217.769 180.655 217.838 180.377 217.968 180.126L218.262 179.545H203.358ZM216.974 180.938V195.858H204.646V180.938C204.647 180.737 204.623 180.536 204.575 180.341H217.046C216.998 180.536 216.974 180.737 216.974 180.938ZM185.861 179.545L186.155 180.126C186.286 180.377 186.354 180.655 186.354 180.938V196.654H200.272V180.938C200.272 180.655 200.341 180.377 200.471 180.126L200.765 179.545H185.861ZM199.477 180.938V195.858H187.149V180.938C187.15 180.737 187.126 180.536 187.078 180.341H199.549C199.501 180.536 199.477 180.737 199.477 180.938ZM168.364 179.545L168.658 180.126C168.789 180.377 168.857 180.655 168.857 180.938V196.654H182.775V180.938C182.775 180.655 182.844 180.377 182.974 180.126L183.268 179.545H168.364ZM181.98 180.938V195.858H169.653V180.938C169.653 180.737 169.629 180.536 169.581 180.341H182.052C182.004 180.536 181.98 180.737 181.98 180.938ZM150.867 179.545L151.161 180.126C151.292 180.377 151.36 180.655 151.36 180.938V196.654H165.278V180.938C165.278 180.655 165.347 180.377 165.477 180.126L165.771 179.545H150.867ZM164.483 180.938V195.858H152.156V180.938C152.156 180.737 152.132 180.536 152.084 180.341H164.555C164.507 180.536 164.483 180.737 164.483 180.938ZM290.843 179.545L291.137 180.126C291.268 180.377 291.336 180.655 291.336 180.938V196.654H305.254V180.938C305.254 180.655 305.322 180.377 305.453 180.126L305.747 179.545H290.843ZM304.459 180.938V195.858H292.131V180.938C292.132 180.737 292.107 180.536 292.06 180.341H304.53C304.483 180.536 304.459 180.737 304.459 180.938ZM273.346 179.545L273.64 180.126C273.771 180.377 273.839 180.655 273.839 180.938V196.654H287.757V180.938C287.757 180.655 287.825 180.377 287.956 180.126L288.25 179.545H273.346ZM286.962 180.938V195.858H274.634V180.938C274.635 180.737 274.611 180.536 274.563 180.341H287.033C286.986 180.536 286.962 180.737 286.962 180.938ZM255.849 179.545L256.143 180.126C256.274 180.377 256.342 180.655 256.342 180.938V196.654H270.26V180.938C270.26 180.655 270.328 180.377 270.459 180.126L270.753 179.545H255.849ZM269.465 180.938V195.858H257.137V180.938C257.138 180.737 257.114 180.536 257.066 180.341H269.536C269.489 180.536 269.465 180.737 269.465 180.938ZM238.352 179.545L238.646 180.126C238.777 180.377 238.845 180.655 238.845 180.938V196.654H252.763V180.938C252.763 180.655 252.832 180.377 252.962 180.126L253.256 179.545H238.352ZM251.968 180.938V195.858H239.64V180.938C239.641 180.737 239.617 180.536 239.569 180.341H252.039C251.992 180.536 251.968 180.737 251.968 180.938ZM220.855 179.545L221.149 180.126C221.28 180.377 221.348 180.655 221.348 180.938V196.654H235.266V180.938C235.266 180.655 235.335 180.377 235.465 180.126L235.759 179.545H220.855ZM234.471 180.938V195.858H222.143V180.938C222.144 180.737 222.12 180.536 222.072 180.341H234.542C234.495 180.536 234.471 180.737 234.471 180.938ZM203.358 179.545L203.652 180.126C203.783 180.377 203.851 180.655 203.851 180.938V196.654H217.769V180.938C217.769 180.655 217.838 180.377 217.968 180.126L218.262 179.545H203.358ZM216.974 180.938V195.858H204.646V180.938C204.647 180.737 204.623 180.536 204.575 180.341H217.046C216.998 180.536 216.974 180.737 216.974 180.938ZM185.861 179.545L186.155 180.126C186.286 180.377 186.354 180.655 186.354 180.938V196.654H200.272V180.938C200.272 180.655 200.341 180.377 200.471 180.126L200.765 179.545H185.861ZM199.477 180.938V195.858H187.149V180.938C187.15 180.737 187.126 180.536 187.078 180.341H199.549C199.501 180.536 199.477 180.737 199.477 180.938ZM168.364 179.545L168.658 180.126C168.789 180.377 168.857 180.655 168.857 180.938V196.654H182.775V180.938C182.775 180.655 182.844 180.377 182.974 180.126L183.268 179.545H168.364ZM181.98 180.938V195.858H169.653V180.938C169.653 180.737 169.629 180.536 169.581 180.341H182.052C182.004 180.536 181.98 180.737 181.98 180.938ZM150.867 179.545L151.161 180.126C151.292 180.377 151.36 180.655 151.36 180.938V196.654H165.278V180.938C165.278 180.655 165.347 180.377 165.477 180.126L165.771 179.545H150.867ZM164.483 180.938V195.858H152.156V180.938C152.156 180.737 152.132 180.536 152.084 180.341H164.555C164.507 180.536 164.483 180.737 164.483 180.938ZM290.843 179.545L291.137 180.126C291.268 180.377 291.336 180.655 291.336 180.938V196.654H305.254V180.938C305.254 180.655 305.322 180.377 305.453 180.126L305.747 179.545H290.843ZM304.459 180.938V195.858H292.131V180.938C292.132 180.737 292.107 180.536 292.06 180.341H304.53C304.483 180.536 304.459 180.737 304.459 180.938ZM273.64 180.126C273.771 180.377 273.839 180.655 273.839 180.938V196.654H287.757V180.938C287.757 180.655 287.825 180.377 287.956 180.126L288.25 179.545H273.346L273.64 180.126ZM287.033 180.341C286.986 180.536 286.962 180.737 286.962 180.938V195.858H274.634V180.938C274.635 180.737 274.611 180.536 274.563 180.341H287.033ZM256.143 180.126C256.274 180.377 256.342 180.655 256.342 180.938V196.654H270.26V180.938C270.26 180.655 270.328 180.377 270.459 180.126L270.753 179.545H255.849L256.143 180.126ZM269.536 180.341C269.489 180.536 269.465 180.737 269.465 180.938V195.858H257.137V180.938C257.138 180.737 257.114 180.536 257.066 180.341H269.536ZM238.646 180.126C238.777 180.377 238.845 180.655 238.845 180.938V196.654H252.763V180.938C252.763 180.655 252.832 180.377 252.962 180.126L253.256 179.545H238.352L238.646 180.126ZM252.039 180.341C251.992 180.536 251.968 180.737 251.968 180.938V195.858H239.64V180.938C239.641 180.737 239.617 180.536 239.569 180.341H252.039ZM221.149 180.126C221.28 180.377 221.348 180.655 221.348 180.938V196.654H235.266V180.938C235.266 180.655 235.335 180.377 235.465 180.126L235.759 179.545H220.855L221.149 180.126ZM234.542 180.341C234.495 180.536 234.471 180.737 234.471 180.938V195.858H222.143V180.938C222.144 180.737 222.12 180.536 222.072 180.341H234.542ZM203.652 180.126C203.783 180.377 203.851 180.655 203.851 180.938V196.654H217.769V180.938C217.769 180.655 217.838 180.377 217.968 180.126L218.262 179.545H203.358L203.652 180.126ZM217.046 180.341C216.998 180.536 216.974 180.737 216.974 180.938V195.858H204.646V180.938C204.647 180.737 204.623 180.536 204.575 180.341H217.046ZM186.155 180.126C186.286 180.377 186.354 180.655 186.354 180.938V196.654H200.272V180.938C200.272 180.655 200.341 180.377 200.471 180.126L200.765 179.545H185.861L186.155 180.126ZM199.549 180.341C199.501 180.536 199.477 180.737 199.477 180.938V195.858H187.149V180.938C187.15 180.737 187.126 180.536 187.078 180.341H199.549ZM168.658 180.126C168.789 180.377 168.857 180.655 168.857 180.938V196.654H182.775V180.938C182.775 180.655 182.844 180.377 182.974 180.126L183.268 179.545H168.364L168.658 180.126ZM182.052 180.341C182.004 180.536 181.98 180.737 181.98 180.938V195.858H169.653V180.938C169.653 180.737 169.629 180.536 169.581 180.341H182.052ZM151.161 180.126C151.292 180.377 151.36 180.655 151.36 180.938V196.654H165.278V180.938C165.278 180.655 165.347 180.377 165.477 180.126L165.771 179.545H150.867L151.161 180.126ZM164.555 180.341C164.507 180.536 164.483 180.737 164.483 180.938V195.858H152.156V180.938C152.156 180.737 152.132 180.536 152.084 180.341H164.555ZM291.137 180.126C291.268 180.377 291.336 180.655 291.336 180.938V196.654H305.254V180.938C305.254 180.655 305.322 180.377 305.453 180.126L305.747 179.545H290.843L291.137 180.126ZM304.53 180.341C304.483 180.536 304.459 180.737 304.459 180.938V195.858H292.131V180.938C292.132 180.737 292.107 180.536 292.06 180.341H304.53ZM273.64 180.126C273.771 180.377 273.839 180.655 273.839 180.938V196.654H287.757V180.938C287.757 180.655 287.825 180.377 287.956 180.126L288.25 179.545H273.346L273.64 180.126ZM287.033 180.341C286.986 180.536 286.962 180.737 286.962 180.938V195.858H274.634V180.938C274.635 180.737 274.611 180.536 274.563 180.341H287.033ZM256.143 180.126C256.274 180.377 256.342 180.655 256.342 180.938V196.654H270.26V180.938C270.26 180.655 270.328 180.377 270.459 180.126L270.753 179.545H255.849L256.143 180.126ZM269.536 180.341C269.489 180.536 269.465 180.737 269.465 180.938V195.858H257.137V180.938C257.138 180.737 257.114 180.536 257.066 180.341H269.536ZM238.646 180.126C238.777 180.377 238.845 180.655 238.845 180.938V196.654H252.763V180.938C252.763 180.655 252.832 180.377 252.962 180.126L253.256 179.545H238.352L238.646 180.126ZM252.039 180.341C251.992 180.536 251.968 180.737 251.968 180.938V195.858H239.64V180.938C239.641 180.737 239.617 180.536 239.569 180.341H252.039ZM221.149 180.126C221.28 180.377 221.348 180.655 221.348 180.938V196.654H235.266V180.938C235.266 180.655 235.335 180.377 235.465 180.126L235.759 179.545H220.855L221.149 180.126ZM234.542 180.341C234.495 180.536 234.471 180.737 234.471 180.938V195.858H222.143V180.938C222.144 180.737 222.12 180.536 222.072 180.341H234.542ZM203.652 180.126C203.783 180.377 203.851 180.655 203.851 180.938V196.654H217.769V180.938C217.769 180.655 217.838 180.377 217.968 180.126L218.262 179.545H203.358L203.652 180.126ZM217.046 180.341C216.998 180.536 216.974 180.737 216.974 180.938V195.858H204.646V180.938C204.647 180.737 204.623 180.536 204.575 180.341H217.046ZM186.155 180.126C186.286 180.377 186.354 180.655 186.354 180.938V196.654H200.272V180.938C200.272 180.655 200.341 180.377 200.471 180.126L200.765 179.545H185.861L186.155 180.126ZM199.549 180.341C199.501 180.536 199.477 180.737 199.477 180.938V195.858H187.149V180.938C187.15 180.737 187.126 180.536 187.078 180.341H199.549ZM168.658 180.126C168.789 180.377 168.857 180.655 168.857 180.938V196.654H182.775V180.938C182.775 180.655 182.844 180.377 182.974 180.126L183.268 179.545H168.364L168.658 180.126ZM182.052 180.341C182.004 180.536 181.98 180.737 181.98 180.938V195.858H169.653V180.938C169.653 180.737 169.629 180.536 169.581 180.341H182.052ZM151.161 180.126C151.292 180.377 151.36 180.655 151.36 180.938V196.654H165.278V180.938C165.278 180.655 165.347 180.377 165.477 180.126L165.771 179.545H150.867L151.161 180.126ZM164.555 180.341C164.507 180.536 164.483 180.737 164.483 180.938V195.858H152.156V180.938C152.156 180.737 152.132 180.536 152.084 180.341H164.555ZM321.16 199.041H316.42C316.159 198.126 315.607 197.321 314.848 196.746C314.089 196.172 313.164 195.861 312.213 195.858H309.628V180.938C309.629 180.617 309.569 180.3 309.449 180.003C309.9 179.737 310.251 179.331 310.447 178.846C310.644 178.361 310.676 177.825 310.538 177.321C310.4 176.816 310.1 176.371 309.684 176.054C309.268 175.737 308.759 175.565 308.236 175.566H148.378C147.855 175.565 147.346 175.737 146.93 176.054C146.514 176.371 146.214 176.816 146.076 177.321C145.938 177.825 145.97 178.361 146.167 178.846C146.364 179.331 146.714 179.737 147.165 180.003C147.046 180.3 146.985 180.617 146.986 180.938V195.858H144.401C143.45 195.861 142.525 196.172 141.766 196.746C141.007 197.321 140.455 198.126 140.194 199.041H135.056C134.107 199.043 133.198 199.42 132.527 200.092C131.856 200.763 131.479 201.673 131.477 202.622V412.703C131.479 413.652 131.857 414.562 132.528 415.233C133.199 415.904 134.108 416.282 135.056 416.284H321.16C322.109 416.282 323.019 415.905 323.69 415.233C324.36 414.562 324.738 413.652 324.739 412.703V202.622C324.738 201.673 324.36 200.763 323.689 200.092C323.019 199.42 322.109 199.043 321.16 199.041ZM323.944 412.703C323.943 413.271 323.769 413.826 323.444 414.293C323.119 414.759 322.66 415.115 322.127 415.313C321.818 415.43 321.491 415.49 321.16 415.488H135.056C134.726 415.49 134.398 415.43 134.09 415.313C133.557 415.115 133.097 414.759 132.773 414.293C132.448 413.826 132.273 413.271 132.273 412.703V202.622C132.273 201.884 132.567 201.176 133.089 200.654C133.611 200.132 134.318 199.838 135.056 199.837H140.83L140.894 199.519C141.061 198.711 141.501 197.985 142.14 197.464C142.778 196.942 143.577 196.656 144.401 196.654H147.781V180.938C147.781 180.614 147.869 180.296 148.036 180.019L148.282 179.609L147.833 179.442C147.482 179.314 147.187 179.067 147 178.744C146.813 178.42 146.746 178.041 146.811 177.673C146.877 177.305 147.069 176.972 147.356 176.732C147.642 176.492 148.004 176.361 148.378 176.362H308.236C308.61 176.361 308.972 176.492 309.258 176.732C309.545 176.972 309.738 177.305 309.803 177.673C309.868 178.041 309.801 178.42 309.614 178.744C309.427 179.067 309.132 179.314 308.781 179.442L308.332 179.609L308.578 180.019C308.745 180.296 308.833 180.614 308.833 180.938V196.654H312.213C313.037 196.656 313.836 196.942 314.475 197.464C315.113 197.985 315.553 198.711 315.72 199.519L315.784 199.837H321.16C321.898 199.838 322.606 200.132 323.128 200.654C323.65 201.176 323.943 201.884 323.944 202.622L323.944 412.703ZM150.867 179.545L151.161 180.126C151.292 180.377 151.36 180.655 151.36 180.938V196.654H165.278V180.938C165.278 180.655 165.347 180.377 165.477 180.126L165.771 179.545H150.867ZM164.483 180.938V195.858H152.156V180.938C152.156 180.737 152.132 180.536 152.084 180.341H164.555C164.507 180.536 164.483 180.737 164.483 180.938ZM168.364 179.545L168.658 180.126C168.789 180.377 168.857 180.655 168.857 180.938V196.654H182.775V180.938C182.775 180.655 182.844 180.377 182.974 180.126L183.268 179.545H168.364ZM181.98 180.938V195.858H169.653V180.938C169.653 180.737 169.629 180.536 169.581 180.341H182.052C182.004 180.536 181.98 180.737 181.98 180.938ZM185.861 179.545L186.155 180.126C186.286 180.377 186.354 180.655 186.354 180.938V196.654H200.272V180.938C200.272 180.655 200.341 180.377 200.471 180.126L200.765 179.545H185.861ZM199.477 180.938V195.858H187.149V180.938C187.15 180.737 187.126 180.536 187.078 180.341H199.549C199.501 180.536 199.477 180.737 199.477 180.938ZM203.358 179.545L203.652 180.126C203.783 180.377 203.851 180.655 203.851 180.938V196.654H217.769V180.938C217.769 180.655 217.838 180.377 217.968 180.126L218.262 179.545H203.358ZM216.974 180.938V195.858H204.646V180.938C204.647 180.737 204.623 180.536 204.575 180.341H217.046C216.998 180.536 216.974 180.737 216.974 180.938ZM220.855 179.545L221.149 180.126C221.28 180.377 221.348 180.655 221.348 180.938V196.654H235.266V180.938C235.266 180.655 235.335 180.377 235.465 180.126L235.759 179.545H220.855ZM234.471 180.938V195.858H222.143V180.938C222.144 180.737 222.12 180.536 222.072 180.341H234.542C234.495 180.536 234.471 180.737 234.471 180.938ZM238.352 179.545L238.646 180.126C238.777 180.377 238.845 180.655 238.845 180.938V196.654H252.763V180.938C252.763 180.655 252.832 180.377 252.962 180.126L253.256 179.545H238.352ZM251.968 180.938V195.858H239.64V180.938C239.641 180.737 239.617 180.536 239.569 180.341H252.039C251.992 180.536 251.968 180.737 251.968 180.938ZM255.849 179.545L256.143 180.126C256.274 180.377 256.342 180.655 256.342 180.938V196.654H270.26V180.938C270.26 180.655 270.328 180.377 270.459 180.126L270.753 179.545H255.849ZM269.465 180.938V195.858H257.137V180.938C257.138 180.737 257.114 180.536 257.066 180.341H269.536C269.489 180.536 269.465 180.737 269.465 180.938ZM273.346 179.545L273.64 180.126C273.771 180.377 273.839 180.655 273.839 180.938V196.654H287.757V180.938C287.757 180.655 287.825 180.377 287.956 180.126L288.25 179.545H273.346ZM286.962 180.938V195.858H274.634V180.938C274.635 180.737 274.611 180.536 274.563 180.341H287.033C286.986 180.536 286.962 180.737 286.962 180.938ZM290.843 179.545L291.137 180.126C291.268 180.377 291.336 180.655 291.336 180.938V196.654H305.254V180.938C305.254 180.655 305.322 180.377 305.453 180.126L305.747 179.545H290.843ZM304.459 180.938V195.858H292.131V180.938C292.132 180.737 292.107 180.536 292.06 180.341H304.53C304.483 180.536 304.459 180.737 304.459 180.938ZM150.867 179.545L151.161 180.126C151.292 180.377 151.36 180.655 151.36 180.938V196.654H165.278V180.938C165.278 180.655 165.347 180.377 165.477 180.126L165.771 179.545H150.867ZM164.483 180.938V195.858H152.156V180.938C152.156 180.737 152.132 180.536 152.084 180.341H164.555C164.507 180.536 164.483 180.737 164.483 180.938ZM168.364 179.545L168.658 180.126C168.789 180.377 168.857 180.655 168.857 180.938V196.654H182.775V180.938C182.775 180.655 182.844 180.377 182.974 180.126L183.268 179.545H168.364ZM181.98 180.938V195.858H169.653V180.938C169.653 180.737 169.629 180.536 169.581 180.341H182.052C182.004 180.536 181.98 180.737 181.98 180.938ZM185.861 179.545L186.155 180.126C186.286 180.377 186.354 180.655 186.354 180.938V196.654H200.272V180.938C200.272 180.655 200.341 180.377 200.471 180.126L200.765 179.545H185.861ZM199.477 180.938V195.858H187.149V180.938C187.15 180.737 187.126 180.536 187.078 180.341H199.549C199.501 180.536 199.477 180.737 199.477 180.938ZM203.358 179.545L203.652 180.126C203.783 180.377 203.851 180.655 203.851 180.938V196.654H217.769V180.938C217.769 180.655 217.838 180.377 217.968 180.126L218.262 179.545H203.358ZM216.974 180.938V195.858H204.646V180.938C204.647 180.737 204.623 180.536 204.575 180.341H217.046C216.998 180.536 216.974 180.737 216.974 180.938ZM220.855 179.545L221.149 180.126C221.28 180.377 221.348 180.655 221.348 180.938V196.654H235.266V180.938C235.266 180.655 235.335 180.377 235.465 180.126L235.759 179.545H220.855ZM234.471 180.938V195.858H222.143V180.938C222.144 180.737 222.12 180.536 222.072 180.341H234.542C234.495 180.536 234.471 180.737 234.471 180.938ZM238.352 179.545L238.646 180.126C238.777 180.377 238.845 180.655 238.845 180.938V196.654H252.763V180.938C252.763 180.655 252.832 180.377 252.962 180.126L253.256 179.545H238.352ZM251.968 180.938V195.858H239.64V180.938C239.641 180.737 239.617 180.536 239.569 180.341H252.039C251.992 180.536 251.968 180.737 251.968 180.938ZM255.849 179.545L256.143 180.126C256.274 180.377 256.342 180.655 256.342 180.938V196.654H270.26V180.938C270.26 180.655 270.328 180.377 270.459 180.126L270.753 179.545H255.849ZM269.465 180.938V195.858H257.137V180.938C257.138 180.737 257.114 180.536 257.066 180.341H269.536C269.489 180.536 269.465 180.737 269.465 180.938ZM273.346 179.545L273.64 180.126C273.771 180.377 273.839 180.655 273.839 180.938V196.654H287.757V180.938C287.757 180.655 287.825 180.377 287.956 180.126L288.25 179.545H273.346ZM286.962 180.938V195.858H274.634V180.938C274.635 180.737 274.611 180.536 274.563 180.341H287.033C286.986 180.536 286.962 180.737 286.962 180.938ZM290.843 179.545L291.137 180.126C291.268 180.377 291.336 180.655 291.336 180.938V196.654H305.254V180.938C305.254 180.655 305.322 180.377 305.453 180.126L305.747 179.545H290.843ZM304.459 180.938V195.858H292.131V180.938C292.132 180.737 292.107 180.536 292.06 180.341H304.53C304.483 180.536 304.459 180.737 304.459 180.938ZM150.867 179.545L151.161 180.126C151.292 180.377 151.36 180.655 151.36 180.938V196.654H165.278V180.938C165.278 180.655 165.347 180.377 165.477 180.126L165.771 179.545H150.867ZM164.483 180.938V195.858H152.156V180.938C152.156 180.737 152.132 180.536 152.084 180.341H164.555C164.507 180.536 164.483 180.737 164.483 180.938ZM168.364 179.545L168.658 180.126C168.789 180.377 168.857 180.655 168.857 180.938V196.654H182.775V180.938C182.775 180.655 182.844 180.377 182.974 180.126L183.268 179.545H168.364ZM181.98 180.938V195.858H169.653V180.938C169.653 180.737 169.629 180.536 169.581 180.341H182.052C182.004 180.536 181.98 180.737 181.98 180.938ZM185.861 179.545L186.155 180.126C186.286 180.377 186.354 180.655 186.354 180.938V196.654H200.272V180.938C200.272 180.655 200.341 180.377 200.471 180.126L200.765 179.545H185.861ZM199.477 180.938V195.858H187.149V180.938C187.15 180.737 187.126 180.536 187.078 180.341H199.549C199.501 180.536 199.477 180.737 199.477 180.938ZM203.358 179.545L203.652 180.126C203.783 180.377 203.851 180.655 203.851 180.938V196.654H217.769V180.938C217.769 180.655 217.838 180.377 217.968 180.126L218.262 179.545H203.358ZM216.974 180.938V195.858H204.646V180.938C204.647 180.737 204.623 180.536 204.575 180.341H217.046C216.998 180.536 216.974 180.737 216.974 180.938ZM220.855 179.545L221.149 180.126C221.28 180.377 221.348 180.655 221.348 180.938V196.654H235.266V180.938C235.266 180.655 235.335 180.377 235.465 180.126L235.759 179.545H220.855ZM234.471 180.938V195.858H222.143V180.938C222.144 180.737 222.12 180.536 222.072 180.341H234.542C234.495 180.536 234.471 180.737 234.471 180.938ZM238.352 179.545L238.646 180.126C238.777 180.377 238.845 180.655 238.845 180.938V196.654H252.763V180.938C252.763 180.655 252.832 180.377 252.962 180.126L253.256 179.545H238.352ZM251.968 180.938V195.858H239.64V180.938C239.641 180.737 239.617 180.536 239.569 180.341H252.039C251.992 180.536 251.968 180.737 251.968 180.938ZM255.849 179.545L256.143 180.126C256.274 180.377 256.342 180.655 256.342 180.938V196.654H270.26V180.938C270.26 180.655 270.328 180.377 270.459 180.126L270.753 179.545H255.849ZM269.465 180.938V195.858H257.137V180.938C257.138 180.737 257.114 180.536 257.066 180.341H269.536C269.489 180.536 269.465 180.737 269.465 180.938ZM273.346 179.545L273.64 180.126C273.771 180.377 273.839 180.655 273.839 180.938V196.654H287.757V180.938C287.757 180.655 287.825 180.377 287.956 180.126L288.25 179.545H273.346ZM286.962 180.938V195.858H274.634V180.938C274.635 180.737 274.611 180.536 274.563 180.341H287.033C286.986 180.536 286.962 180.737 286.962 180.938ZM290.843 179.545L291.137 180.126C291.268 180.377 291.336 180.655 291.336 180.938V196.654H305.254V180.938C305.254 180.655 305.322 180.377 305.453 180.126L305.747 179.545H290.843ZM304.459 180.938V195.858H292.131V180.938C292.132 180.737 292.107 180.536 292.06 180.341H304.53C304.483 180.536 304.459 180.737 304.459 180.938ZM150.867 179.545L151.161 180.126C151.292 180.377 151.36 180.655 151.36 180.938V196.654H165.278V180.938C165.278 180.655 165.347 180.377 165.477 180.126L165.771 179.545H150.867ZM164.483 180.938V195.858H152.156V180.938C152.156 180.737 152.132 180.536 152.084 180.341H164.555C164.507 180.536 164.483 180.737 164.483 180.938ZM168.364 179.545L168.658 180.126C168.789 180.377 168.857 180.655 168.857 180.938V196.654H182.775V180.938C182.775 180.655 182.844 180.377 182.974 180.126L183.268 179.545H168.364ZM181.98 180.938V195.858H169.653V180.938C169.653 180.737 169.629 180.536 169.581 180.341H182.052C182.004 180.536 181.98 180.737 181.98 180.938ZM185.861 179.545L186.155 180.126C186.286 180.377 186.354 180.655 186.354 180.938V196.654H200.272V180.938C200.272 180.655 200.341 180.377 200.471 180.126L200.765 179.545H185.861ZM199.477 180.938V195.858H187.149V180.938C187.15 180.737 187.126 180.536 187.078 180.341H199.549C199.501 180.536 199.477 180.737 199.477 180.938ZM203.358 179.545L203.652 180.126C203.783 180.377 203.851 180.655 203.851 180.938V196.654H217.769V180.938C217.769 180.655 217.838 180.377 217.968 180.126L218.262 179.545H203.358ZM216.974 180.938V195.858H204.646V180.938C204.647 180.737 204.623 180.536 204.575 180.341H217.046C216.998 180.536 216.974 180.737 216.974 180.938ZM220.855 179.545L221.149 180.126C221.28 180.377 221.348 180.655 221.348 180.938V196.654H235.266V180.938C235.266 180.655 235.335 180.377 235.465 180.126L235.759 179.545H220.855ZM234.471 180.938V195.858H222.143V180.938C222.144 180.737 222.12 180.536 222.072 180.341H234.542C234.495 180.536 234.471 180.737 234.471 180.938ZM238.352 179.545L238.646 180.126C238.777 180.377 238.845 180.655 238.845 180.938V196.654H252.763V180.938C252.763 180.655 252.832 180.377 252.962 180.126L253.256 179.545H238.352ZM251.968 180.938V195.858H239.64V180.938C239.641 180.737 239.617 180.536 239.569 180.341H252.039C251.992 180.536 251.968 180.737 251.968 180.938ZM255.849 179.545L256.143 180.126C256.274 180.377 256.342 180.655 256.342 180.938V196.654H270.26V180.938C270.26 180.655 270.328 180.377 270.459 180.126L270.753 179.545H255.849ZM269.465 180.938V195.858H257.137V180.938C257.138 180.737 257.114 180.536 257.066 180.341H269.536C269.489 180.536 269.465 180.737 269.465 180.938ZM273.346 179.545L273.64 180.126C273.771 180.377 273.839 180.655 273.839 180.938V196.654H287.757V180.938C287.757 180.655 287.825 180.377 287.956 180.126L288.25 179.545H273.346ZM286.962 180.938V195.858H274.634V180.938C274.635 180.737 274.611 180.536 274.563 180.341H287.033C286.986 180.536 286.962 180.737 286.962 180.938ZM290.843 179.545L291.137 180.126C291.268 180.377 291.336 180.655 291.336 180.938V196.654H305.254V180.938C305.254 180.655 305.322 180.377 305.453 180.126L305.747 179.545H290.843ZM304.459 180.938V195.858H292.131V180.938C292.132 180.737 292.107 180.536 292.06 180.341H304.53C304.483 180.536 304.459 180.737 304.459 180.938Z" fill="#3F3D56"/>
<path d="M198.146 249.174H168.821C168.203 249.174 167.611 248.928 167.175 248.491C166.738 248.054 166.492 247.461 166.491 246.843V231.213C166.492 230.595 166.738 230.003 167.175 229.566C167.611 229.129 168.203 228.883 168.821 228.882H198.146C198.763 228.883 199.355 229.129 199.792 229.566C200.229 230.003 200.474 230.595 200.475 231.213V246.843C200.474 247.461 200.229 248.054 199.792 248.491C199.355 248.928 198.763 249.174 198.146 249.174Z" fill="#FE4400"/>
<path d="M242.771 249.174H213.446C212.828 249.174 212.236 248.928 211.8 248.491C211.363 248.054 211.117 247.461 211.116 246.843V231.213C211.117 230.595 211.363 230.003 211.8 229.566C212.236 229.129 212.828 228.883 213.446 228.882H242.771C243.388 228.883 243.98 229.129 244.417 229.566C244.854 230.003 245.099 230.595 245.1 231.213V246.843C245.099 247.461 244.854 248.054 244.417 248.491C243.98 248.928 243.388 249.174 242.771 249.174Z" fill="#FE4400"/>
<path d="M287.396 249.174H258.071C257.453 249.174 256.861 248.928 256.425 248.491C255.988 248.054 255.742 247.461 255.741 246.843V231.213C255.742 230.595 255.988 230.003 256.425 229.566C256.861 229.129 257.453 228.883 258.071 228.882H287.396C288.013 228.883 288.605 229.129 289.042 229.566C289.479 230.003 289.724 230.595 289.725 231.213V246.843C289.724 247.461 289.479 248.054 289.042 248.491C288.605 248.928 288.013 249.174 287.396 249.174Z" fill="#FE4400"/>
<path d="M198.146 301.297H168.821C168.203 301.296 167.611 301.05 167.175 300.613C166.738 300.176 166.492 299.584 166.491 298.966V283.335C166.492 282.717 166.738 282.125 167.175 281.688C167.611 281.251 168.203 281.005 168.821 281.005H198.146C198.763 281.005 199.355 281.251 199.792 281.688C200.229 282.125 200.474 282.717 200.475 283.335V298.966C200.474 299.584 200.229 300.176 199.792 300.613C199.355 301.05 198.763 301.296 198.146 301.297Z" fill="#FE4400"/>
<path d="M242.771 301.297H213.446C212.828 301.296 212.236 301.05 211.8 300.613C211.363 300.176 211.117 299.584 211.116 298.966V283.335C211.117 282.717 211.363 282.125 211.8 281.688C212.236 281.251 212.828 281.005 213.446 281.005H242.771C243.388 281.005 243.98 281.251 244.417 281.688C244.854 282.125 245.099 282.717 245.1 283.335V298.966C245.099 299.584 244.854 300.176 244.417 300.613C243.98 301.05 243.388 301.296 242.771 301.297Z" fill="#FE4400"/>
<path d="M287.396 301.297H258.071C257.453 301.296 256.861 301.05 256.425 300.613C255.988 300.176 255.742 299.584 255.741 298.966V283.335C255.742 282.717 255.988 282.125 256.425 281.688C256.861 281.251 257.453 281.005 258.071 281.005H287.396C288.013 281.005 288.605 281.251 289.042 281.688C289.479 282.125 289.724 282.717 289.725 283.335V298.966C289.724 299.584 289.479 300.176 289.042 300.613C288.605 301.05 288.013 301.296 287.396 301.297Z" fill="#FE4400"/>
<path d="M198.146 353.419H168.821C168.203 353.418 167.611 353.172 167.175 352.735C166.738 352.298 166.492 351.706 166.491 351.088V335.458C166.492 334.84 166.738 334.247 167.175 333.81C167.611 333.373 168.203 333.128 168.821 333.127H198.146C198.763 333.128 199.355 333.373 199.792 333.81C200.229 334.247 200.474 334.84 200.475 335.458V351.088C200.474 351.706 200.229 352.298 199.792 352.735C199.355 353.172 198.763 353.418 198.146 353.419Z" fill="#FE4400"/>
<path d="M242.771 353.419H213.446C212.828 353.418 212.236 353.172 211.8 352.735C211.363 352.298 211.117 351.706 211.116 351.088V335.458C211.117 334.84 211.363 334.247 211.8 333.81C212.236 333.373 212.828 333.128 213.446 333.127H242.771C243.388 333.128 243.98 333.373 244.417 333.81C244.854 334.247 245.099 334.84 245.1 335.458V351.088C245.099 351.706 244.854 352.298 244.417 352.735C243.98 353.172 243.388 353.418 242.771 353.419Z" fill="#FE4400"/>
<path d="M287.396 353.419H258.071C257.453 353.418 256.861 353.172 256.425 352.735C255.988 352.298 255.742 351.706 255.741 351.088V335.458C255.742 334.84 255.988 334.247 256.425 333.81C256.861 333.373 257.453 333.128 258.071 333.127H287.396C288.013 333.128 288.605 333.373 289.042 333.81C289.479 334.247 289.724 334.84 289.725 335.458V351.088C289.724 351.706 289.479 352.298 289.042 352.735C288.605 353.172 288.013 353.418 287.396 353.419Z" fill="#FE4400"/>
<path d="M193.398 251.18H159.427C158.606 251.179 157.819 250.852 157.239 250.271C156.658 249.691 156.332 248.903 156.331 248.082V229.975C156.332 229.154 156.658 228.366 157.239 227.785C157.819 227.205 158.606 226.878 159.427 226.877H193.398C194.219 226.878 195.006 227.205 195.586 227.785C196.167 228.366 196.493 229.154 196.494 229.975V248.082C196.493 248.903 196.167 249.691 195.586 250.271C195.006 250.852 194.219 251.179 193.398 251.18ZM159.427 227.673C158.817 227.673 158.232 227.916 157.801 228.348C157.369 228.779 157.127 229.365 157.126 229.975V248.082C157.127 248.692 157.369 249.277 157.801 249.709C158.232 250.141 158.817 250.383 159.427 250.384H193.398C194.008 250.383 194.593 250.141 195.024 249.709C195.456 249.277 195.698 248.692 195.699 248.082V229.975C195.698 229.365 195.456 228.779 195.024 228.348C194.593 227.916 194.008 227.673 193.398 227.673H159.427Z" fill="#3F3D56"/>
<path d="M245.094 251.18H211.123C210.302 251.179 209.515 250.852 208.935 250.271C208.354 249.691 208.028 248.903 208.027 248.082V229.975C208.028 229.154 208.354 228.366 208.935 227.785C209.515 227.205 210.302 226.878 211.123 226.877H245.094C245.915 226.878 246.702 227.205 247.282 227.785C247.863 228.366 248.189 229.154 248.19 229.975V248.082C248.189 248.903 247.863 249.691 247.282 250.271C246.702 250.852 245.915 251.179 245.094 251.18ZM211.123 227.673C210.513 227.673 209.928 227.916 209.497 228.348C209.065 228.779 208.823 229.365 208.822 229.975V248.082C208.823 248.692 209.065 249.277 209.497 249.709C209.928 250.141 210.513 250.383 211.123 250.384H245.094C245.704 250.383 246.289 250.141 246.72 249.709C247.152 249.277 247.394 248.692 247.395 248.082V229.975C247.394 229.365 247.152 228.779 246.72 228.348C246.289 227.916 245.704 227.673 245.094 227.673H211.123Z" fill="#3F3D56"/>
<path d="M296.789 251.18H262.818C261.998 251.179 261.211 250.852 260.63 250.271C260.05 249.691 259.723 248.903 259.722 248.082V229.975C259.723 229.154 260.05 228.366 260.63 227.785C261.211 227.205 261.998 226.878 262.818 226.877H296.789C297.61 226.878 298.397 227.205 298.978 227.785C299.558 228.366 299.885 229.154 299.886 229.975V248.082C299.885 248.903 299.558 249.691 298.978 250.271C298.397 250.852 297.61 251.179 296.789 251.18ZM262.818 227.673C262.208 227.673 261.624 227.916 261.192 228.348C260.761 228.779 260.518 229.365 260.517 229.975V248.082C260.518 248.692 260.761 249.277 261.192 249.709C261.624 250.141 262.208 250.383 262.818 250.384H296.789C297.399 250.383 297.984 250.141 298.416 249.709C298.847 249.277 299.09 248.692 299.09 248.082V229.975C299.09 229.365 298.847 228.779 298.416 228.348C297.984 227.916 297.399 227.673 296.789 227.673H262.818Z" fill="#3F3D56"/>
<path d="M193.398 303.302H159.427C158.606 303.301 157.819 302.974 157.239 302.394C156.658 301.813 156.332 301.025 156.331 300.204V282.097C156.332 281.276 156.658 280.489 157.239 279.908C157.819 279.327 158.606 279 159.427 278.999H193.398C194.219 279 195.006 279.327 195.586 279.908C196.167 280.489 196.493 281.276 196.494 282.097V300.204C196.493 301.025 196.167 301.813 195.586 302.394C195.006 302.975 194.219 303.301 193.398 303.302ZM159.427 279.795C158.817 279.796 158.232 280.039 157.801 280.47C157.369 280.902 157.127 281.487 157.126 282.097V300.204C157.127 300.814 157.369 301.4 157.801 301.831C158.232 302.263 158.817 302.506 159.427 302.506H193.398C194.008 302.506 194.593 302.263 195.024 301.831C195.456 301.4 195.698 300.814 195.699 300.204V282.097C195.698 281.487 195.456 280.902 195.024 280.47C194.593 280.039 194.008 279.796 193.398 279.795H159.427Z" fill="#3F3D56"/>
<path d="M245.094 303.302H211.123C210.302 303.301 209.515 302.975 208.935 302.394C208.354 301.813 208.028 301.025 208.027 300.204V282.097C208.028 281.276 208.354 280.489 208.935 279.908C209.515 279.327 210.302 279 211.123 278.999H245.094C245.915 279 246.702 279.327 247.282 279.908C247.863 280.489 248.189 281.276 248.19 282.097V300.204C248.189 301.025 247.863 301.813 247.282 302.394C246.702 302.974 245.915 303.301 245.094 303.302ZM211.123 279.795C210.513 279.796 209.928 280.039 209.497 280.47C209.065 280.902 208.823 281.487 208.822 282.097V300.204C208.823 300.814 209.065 301.4 209.497 301.831C209.928 302.263 210.513 302.506 211.123 302.506H245.094C245.704 302.506 246.289 302.263 246.72 301.831C247.152 301.4 247.394 300.814 247.395 300.204V282.097C247.394 281.487 247.152 280.902 246.72 280.47C246.289 280.039 245.704 279.796 245.094 279.795H211.123Z" fill="#3F3D56"/>
<path d="M296.789 303.302H262.818C261.998 303.301 261.211 302.975 260.63 302.394C260.05 301.813 259.723 301.025 259.722 300.204V282.097C259.723 281.276 260.05 280.489 260.63 279.908C261.211 279.327 261.998 279 262.818 278.999H296.789C297.61 279 298.397 279.327 298.978 279.908C299.558 280.489 299.885 281.276 299.886 282.097V300.204C299.885 301.025 299.558 301.813 298.978 302.394C298.397 302.974 297.61 303.301 296.789 303.302ZM262.818 279.795C262.208 279.796 261.624 280.039 261.192 280.47C260.761 280.902 260.518 281.487 260.517 282.097V300.204C260.518 300.814 260.761 301.4 261.192 301.831C261.624 302.263 262.208 302.506 262.818 302.506H296.789C297.399 302.506 297.984 302.263 298.416 301.831C298.847 301.4 299.09 300.814 299.09 300.204V282.097C299.09 281.487 298.847 280.902 298.416 280.47C297.984 280.039 297.399 279.796 296.789 279.795H262.818Z" fill="#3F3D56"/>
<path d="M193.398 355.424H159.427C158.606 355.423 157.819 355.097 157.239 354.516C156.658 353.935 156.332 353.147 156.331 352.326V334.219C156.332 333.398 156.658 332.611 157.239 332.03C157.819 331.449 158.606 331.122 159.427 331.121H193.398C194.219 331.122 195.006 331.449 195.586 332.03C196.167 332.611 196.493 333.398 196.494 334.219V352.326C196.493 353.147 196.167 353.935 195.586 354.516C195.006 355.097 194.219 355.423 193.398 355.424ZM159.427 331.917C158.817 331.918 158.232 332.161 157.801 332.592C157.369 333.024 157.127 333.609 157.126 334.219V352.326C157.127 352.937 157.369 353.522 157.801 353.953C158.232 354.385 158.817 354.628 159.427 354.628H193.398C194.008 354.628 194.593 354.385 195.024 353.953C195.456 353.522 195.698 352.937 195.699 352.326V334.219C195.698 333.609 195.456 333.024 195.024 332.592C194.593 332.161 194.008 331.918 193.398 331.917H159.427Z" fill="#3F3D56"/>
<path d="M245.094 355.424H211.123C210.302 355.423 209.515 355.097 208.935 354.516C208.354 353.935 208.028 353.147 208.027 352.326V334.219C208.028 333.398 208.354 332.611 208.935 332.03C209.515 331.449 210.302 331.122 211.123 331.121H245.094C245.915 331.122 246.702 331.449 247.282 332.03C247.863 332.611 248.189 333.398 248.19 334.219V352.326C248.189 353.147 247.863 353.935 247.282 354.516C246.702 355.097 245.915 355.423 245.094 355.424ZM211.123 331.917C210.513 331.918 209.928 332.161 209.497 332.592C209.065 333.024 208.823 333.609 208.822 334.219V352.326C208.823 352.937 209.065 353.522 209.497 353.953C209.928 354.385 210.513 354.628 211.123 354.628H245.094C245.704 354.628 246.289 354.385 246.72 353.953C247.152 353.522 247.394 352.937 247.395 352.326V334.219C247.394 333.609 247.152 333.024 246.72 332.592C246.289 332.161 245.704 331.918 245.094 331.917H211.123Z" fill="#3F3D56"/>
<path d="M296.789 355.424H262.818C261.998 355.423 261.211 355.097 260.63 354.516C260.05 353.935 259.723 353.147 259.722 352.326V334.219C259.723 333.398 260.05 332.611 260.63 332.03C261.211 331.449 261.998 331.122 262.818 331.121H296.789C297.61 331.122 298.397 331.449 298.978 332.03C299.558 332.611 299.885 333.398 299.886 334.219V352.326C299.885 353.147 299.558 353.935 298.978 354.516C298.397 355.097 297.61 355.423 296.789 355.424ZM262.818 331.917C262.208 331.918 261.624 332.161 261.192 332.592C260.761 333.024 260.518 333.609 260.517 334.219V352.326C260.518 352.937 260.761 353.522 261.192 353.953C261.624 354.385 262.208 354.628 262.818 354.628H296.789C297.399 354.628 297.984 354.385 298.416 353.953C298.847 353.522 299.09 352.937 299.09 352.326V334.219C299.09 333.609 298.847 333.024 298.416 332.592C297.984 332.161 297.399 331.918 296.789 331.917H262.818Z" fill="#3F3D56"/>
<path d="M435.18 416.881H34.3405C34.2351 416.881 34.1339 416.839 34.0593 416.764C33.9848 416.69 33.9429 416.588 33.9429 416.483C33.9429 416.377 33.9848 416.276 34.0593 416.202C34.1339 416.127 34.2351 416.085 34.3405 416.085H435.18C435.286 416.085 435.387 416.127 435.462 416.202C435.536 416.276 435.578 416.377 435.578 416.483C435.578 416.588 435.536 416.69 435.462 416.764C435.387 416.839 435.286 416.881 435.18 416.881Z" fill="#3F3D56"/>
<path d="M248.19 378.37C248.201 377.462 247.851 376.587 247.217 375.937C246.583 375.287 245.717 374.916 244.81 374.904H228.108V416.085H248.19V378.37Z" fill="#3F3D56"/>
<path d="M228.506 415.687H207.629V378.485C207.63 377.483 208.028 376.522 208.736 375.814C209.445 375.105 210.405 374.706 211.406 374.705H228.506V415.687ZM208.424 414.891H227.71V375.501H211.406C210.616 375.502 209.858 375.817 209.298 376.376C208.739 376.936 208.425 377.694 208.424 378.485V414.891Z" fill="#3F3D56"/>
<path d="M210.214 397.981C210.873 397.981 211.407 397.447 211.407 396.788C211.407 396.128 210.873 395.594 210.214 395.594C209.555 395.594 209.021 396.128 209.021 396.788C209.021 397.447 209.555 397.981 210.214 397.981Z" fill="#3F3D56"/>
<g clip-path="url(#clip1)">
<path d="M473.312 369.59C473.629 369.314 473.931 369.02 474.216 368.709L475.859 369.808C475.25 371.114 474.488 372.343 473.588 373.468C474.306 377.265 476.309 380.706 479.265 383.208C482.312 385.788 486.177 387.205 490.171 387.205C492.435 387.196 494.675 386.735 496.759 385.849C498.844 384.963 500.73 383.67 502.308 382.046L473.312 369.59ZM473.312 369.59C473.369 368.266 473.58 366.953 473.942 365.676M473.312 369.59L473.942 365.676M473.942 365.676C476.062 358.229 476.419 350.248 475.022 341.964M473.942 365.676L475.022 341.964M475.022 341.964C474.796 340.621 474.682 339.262 474.682 337.901L475.022 341.964ZM521.645 329.56C519.755 324.416 516.17 320.056 511.469 317.206C506.549 314.223 500.727 313.089 495.047 314.005C489.366 314.922 484.197 317.83 480.466 322.208C476.735 326.586 474.685 332.149 474.682 337.901L521.645 329.56ZM521.645 329.56C520.681 329.9 519.677 330.116 518.656 330.204L518.518 332.175C519.84 332.479 521.192 332.634 522.547 332.636C522.93 334.364 523.123 336.128 523.123 337.898C523.123 337.899 523.123 337.9 523.123 337.9L523.122 338.12L523.122 338.121C523.117 339.843 523.475 341.547 524.173 343.122C524.871 344.696 525.892 346.105 527.17 347.258C528.973 348.897 530.398 350.907 531.349 353.15C532.3 355.393 532.754 357.815 532.679 360.25C532.605 362.685 532.003 365.075 530.916 367.256C529.903 369.288 528.49 371.093 526.764 372.565C524.782 371.619 523.371 370.616 522.342 369.477L520.695 370.572C521.41 372.097 522.331 373.514 523.429 374.786C521.072 375.978 518.463 376.602 515.812 376.601C515.812 376.601 515.812 376.601 515.811 376.601L515.729 376.601C515.728 376.601 515.727 376.601 515.726 376.601C515.691 376.601 515.656 376.601 515.625 376.601C510.534 376.601 505.682 378.568 502.308 382.045L521.645 329.56ZM523.177 331.66L523.176 331.626L523.177 331.66ZM523.177 331.66L523.333 331.621L522.401 332.015L522.363 331.864L523.177 331.66Z" stroke="#3F3D56" stroke-width="2"/>
<path d="M483.846 416.36C483.769 416.36 483.694 416.332 483.635 416.281C483.576 416.23 483.538 416.16 483.527 416.083C483.514 415.987 482.171 406.308 483.377 393.444C484.49 381.564 488.066 364.452 498.779 350.399C498.805 350.365 498.837 350.337 498.874 350.316C498.91 350.294 498.951 350.281 498.993 350.275C499.035 350.269 499.077 350.272 499.118 350.283C499.159 350.294 499.198 350.312 499.231 350.338C499.265 350.364 499.293 350.396 499.315 350.432C499.336 350.469 499.35 350.509 499.356 350.551C499.361 350.593 499.359 350.636 499.348 350.677C499.337 350.718 499.318 350.756 499.293 350.79C488.672 364.722 485.125 381.708 484.019 393.504C482.82 406.293 484.152 415.896 484.166 415.992C484.173 416.038 484.169 416.084 484.156 416.129C484.143 416.173 484.12 416.214 484.09 416.249C484.06 416.284 484.022 416.312 483.98 416.331C483.938 416.35 483.892 416.36 483.846 416.36Z" fill="#CCCCCC"/>
<path d="M489.202 368.981C489.133 368.981 489.067 368.96 489.012 368.92C488.957 368.88 488.916 368.823 488.894 368.759C488.873 368.694 488.873 368.624 488.894 368.559C488.915 368.495 488.956 368.438 489.012 368.398C492.064 366.333 495.362 364.655 498.828 363.403C504.245 361.421 512.481 359.624 520.959 362.321C521 362.334 521.037 362.355 521.07 362.382C521.102 362.409 521.129 362.443 521.148 362.48C521.168 362.518 521.18 362.559 521.183 362.601C521.187 362.644 521.182 362.686 521.169 362.726C521.156 362.767 521.136 362.804 521.108 362.837C521.081 362.869 521.047 362.896 521.01 362.915C520.972 362.934 520.931 362.946 520.889 362.95C520.847 362.953 520.804 362.949 520.764 362.936C512.459 360.294 504.372 362.061 499.05 364.009C495.639 365.239 492.395 366.889 489.391 368.92C489.336 368.96 489.27 368.981 489.202 368.981Z" fill="#CCCCCC"/>
<path d="M358.122 392.41C355.112 392.404 350.374 392.647 347.792 394.009C345.809 395.056 344.003 396.409 342.44 398.017C341.837 398.639 341.267 399.292 340.73 399.971C339.246 394.895 339.073 389.526 340.228 384.365C340.309 384.018 340.282 383.654 340.151 383.322C340.02 382.99 339.791 382.706 339.495 382.508C339.198 382.31 338.848 382.206 338.491 382.212C338.134 382.218 337.787 382.332 337.497 382.54C333.304 385.596 330.623 390.776 329.971 396.017C329.141 402.694 331.097 409.422 333.815 415.579L333.814 415.582C333.809 415.61 333.802 415.64 333.794 415.67C333.784 415.716 333.772 415.761 333.761 415.806C333.744 415.884 333.724 415.964 333.706 416.042L334.146 416.022C334.171 416.035 334.197 416.045 334.222 416.057H345.247C345.393 415.898 345.529 415.73 345.654 415.555C346.874 413.883 347.38 411.617 347.996 409.573C348.443 408.093 349.001 406.649 349.667 405.253C351.342 401.748 353.655 398.584 356.486 395.922C356.576 395.837 356.669 395.751 356.763 395.668C357.237 395.233 357.972 394.65 358.69 394.102C358.847 393.983 358.963 393.818 359.021 393.629C359.079 393.441 359.076 393.239 359.013 393.052C358.951 392.865 358.831 392.703 358.671 392.588C358.511 392.472 358.319 392.41 358.122 392.41Z" fill="#F2F2F2"/>
<path d="M432.562 288.499C432.821 289.224 432.785 290.022 432.462 290.72C432.138 291.419 431.553 291.962 430.832 292.233C430.672 292.293 430.508 292.338 430.341 292.369L428.674 302.566L424.766 298.959L426.947 289.828C426.867 289.059 427.092 288.289 427.575 287.684C428.058 287.079 428.759 286.689 429.528 286.597C430.174 286.523 430.827 286.671 431.378 287.017C431.93 287.362 432.347 287.885 432.562 288.499L432.562 288.499Z" fill="#9E616A"/>
<path d="M403.717 311.606C403.717 311.606 406.751 307.6 417.759 307.71L424.007 305.44L425.435 292.357L430.432 293.546L429.718 309.722L419.009 315.907L404.968 318.762L403.717 311.606Z" fill="#FE4400"/>
<path d="M386.803 410.24L389.686 411.468L395.799 400.935L391.543 399.122L386.803 410.24Z" fill="#9E616A"/>
<path d="M410.632 412.967L413.766 412.967L415.257 400.882L410.631 400.882L410.632 412.967Z" fill="#9E616A"/>
<path d="M410.521 416.236L420.16 416.235V416.114C420.16 415.119 419.765 414.165 419.061 413.462C418.358 412.759 417.404 412.364 416.409 412.363H416.408L414.648 411.028L411.363 412.364L410.521 412.364L410.521 416.236Z" fill="#2F2E41"/>
<path d="M385.049 412.332L393.917 416.109L393.964 415.997C394.354 415.082 394.365 414.05 393.994 413.127C393.622 412.205 392.899 411.467 391.984 411.077L391.984 411.077L390.888 409.159L387.342 409.1L386.568 408.77L385.049 412.332Z" fill="#2F2E41"/>
<path d="M413.707 341.444L418.47 370.438L417.174 374.759L418.875 377.819L416.377 404.693L417.391 406.925L414.557 408.671H408.792L408.486 384.342L407.062 380.77V378.801L404.163 363.966L403.629 380.936L402.786 384.514L403.494 387.061L402.568 388.845L394.636 405.871H388.171L388.671 402.021C387.513 401.435 390.41 399.721 390.688 398.454L389.736 396.313L390.688 392.269L391.561 384.367L390.641 367.686L391.074 345.224L398.637 339.444L413.707 341.444Z" fill="#2F2E41"/>
<path d="M402.106 303.26C405.714 303.26 408.639 300.336 408.639 296.729C408.639 293.122 405.714 290.198 402.106 290.198C398.497 290.198 395.572 293.122 395.572 296.729C395.572 300.336 398.497 303.26 402.106 303.26Z" fill="#9E616A"/>
<path d="M390.753 353.471C390.936 353.142 391.045 352.778 391.072 352.404C391.099 352.029 391.044 351.653 390.91 351.302C390.776 350.951 390.566 350.633 390.296 350.372C390.026 350.111 389.702 349.912 389.347 349.789L389.331 340.657L385.372 343.276L385.994 351.547C385.827 352.157 385.891 352.807 386.172 353.374C386.453 353.941 386.932 354.385 387.519 354.622C388.105 354.859 388.759 354.873 389.355 354.661C389.951 354.448 390.449 354.025 390.753 353.471Z" fill="#9E616A"/>
<path d="M390.387 313.062L388.619 311.358L387.319 312.296C387.319 312.296 386.041 313.829 385.018 318.429C383.995 323.029 385.018 348.33 385.018 348.33L390.643 347.563L389.876 334.274L392.177 323.029L390.387 313.062Z" fill="#FE4400"/>
<path d="M387.776 311.774L393.735 308.928L397.78 305.178L405.158 305.122L407.538 308.215L413.821 310.348L412.774 332.003L413.487 333.669C413.487 333.669 412.99 334.118 412.763 334.369C412.536 334.62 413.077 336.723 413.077 336.723L413.382 339.011L412.536 339.616L413.636 340.915L413.909 342.963C413.909 342.963 394.7 338.191 391.07 346.097C390.879 346.515 391.351 342.432 391.351 342.432L391.823 339.444L391.355 336.761L390.641 336.048L391.838 334.851L391.07 329.171L387.776 311.774Z" fill="#FE4400"/>
<path d="M449.975 410.112H446.439L444.756 396.478H449.975V410.112Z" fill="#FFB6B6"/>
<path d="M451.841 416.236H449.305L448.853 413.842L447.693 416.236H440.967C440.645 416.236 440.331 416.133 440.071 415.942C439.812 415.751 439.62 415.482 439.524 415.174C439.428 414.866 439.433 414.536 439.538 414.232C439.643 413.927 439.843 413.664 440.108 413.481L445.48 409.773V407.353L451.129 407.69L451.841 416.236Z" fill="#2F2E41"/>
<path d="M484.366 403.098L481.325 404.901L472.92 394.032L477.409 391.371L484.366 403.098Z" fill="#FFB6B6"/>
<path d="M489.097 407.414L486.916 408.707L485.305 406.88L485.529 409.529L479.744 412.959C479.467 413.123 479.144 413.195 478.823 413.163C478.502 413.131 478.2 412.997 477.961 412.782C477.721 412.566 477.557 412.279 477.492 411.964C477.427 411.648 477.464 411.32 477.599 411.027L480.327 405.099L479.092 403.018L484.123 400.427L489.097 407.414Z" fill="#2F2E41"/>
<path d="M448.397 322.937L446.678 333.887L463.004 334.102L460.855 323.581L448.397 322.937Z" fill="#FFB6B6"/>
<path d="M446.615 333.749L441.953 345.052L441.613 375.281L445.592 404.143H449.995L451.8 375.751L456.237 356.325L460.614 376.643L474.222 396.53H480.909L468.615 374.615L467.192 350.742C467.192 350.742 468.079 340.615 463.54 334.639L462.436 331.448L446.615 333.749Z" fill="#2F2E41"/>
<path d="M469.455 342.002C469 341.878 468.579 341.656 468.219 341.351C467.86 341.047 467.571 340.667 467.374 340.24C467.178 339.812 467.077 339.346 467.08 338.875C467.082 338.404 467.188 337.94 467.39 337.514L460.445 314.881L465.554 313.869L471.905 336.054C472.598 336.44 473.125 337.067 473.386 337.816C473.648 338.564 473.625 339.383 473.323 340.116C473.021 340.849 472.46 341.446 471.747 341.793C471.035 342.141 470.219 342.215 469.455 342.002V342.002Z" fill="#FFB6B6"/>
<path d="M461.216 330.887L449.011 325.199C448.689 325.192 448.379 325.08 448.127 324.88C447.875 324.68 447.695 324.403 447.616 324.091C447.013 321.704 445.686 319.05 446.39 312.852C446.529 311.652 446.907 310.491 447.503 309.439C448.098 308.388 448.899 307.466 449.857 306.729C450.815 305.992 451.911 305.454 453.081 305.148C454.25 304.842 455.47 304.773 456.666 304.946C457.929 305.127 459.138 305.572 460.216 306.253C461.294 306.934 462.216 307.835 462.921 308.897C463.626 309.959 464.099 311.158 464.308 312.416C464.517 313.673 464.457 314.96 464.133 316.193C462.717 321.57 462.869 327.32 462.707 329.53C462.683 329.85 462.555 330.153 462.343 330.393C462.131 330.633 461.845 330.797 461.531 330.86C461.438 330.878 461.343 330.888 461.247 330.888C461.237 330.888 461.226 330.888 461.216 330.887Z" fill="#FE4400"/>
<path d="M434.937 292.876C434.869 293.027 434.789 293.173 434.699 293.312L440.535 306.991L444.122 307.431L444.166 312.929L437.739 312.767C437.22 312.754 436.719 312.573 436.312 312.251C435.904 311.93 435.612 311.484 435.479 310.982L431.154 294.626C430.541 294.443 429.998 294.078 429.598 293.58C429.198 293.082 428.959 292.473 428.913 291.835C428.867 291.198 429.017 290.562 429.341 290.011C429.666 289.46 430.151 289.022 430.731 288.753C431.312 288.485 431.96 288.399 432.59 288.508C433.22 288.617 433.802 288.915 434.259 289.363C434.715 289.81 435.025 290.386 435.146 291.014C435.267 291.641 435.194 292.291 434.937 292.876V292.876Z" fill="#FFB6B6"/>
<path d="M441.123 306.503C441.268 306.375 441.439 306.279 441.625 306.223C441.81 306.166 442.006 306.15 442.198 306.177L448.912 307.085C449.905 307.072 450.862 307.453 451.574 308.145C452.285 308.836 452.694 309.781 452.709 310.773C452.725 311.765 452.346 312.723 451.657 313.436C450.967 314.15 450.022 314.561 449.03 314.579L442.319 315.66C442.128 315.691 441.932 315.68 441.745 315.629C441.558 315.577 441.384 315.486 441.236 315.361C441.087 315.236 440.967 315.081 440.884 314.906C440.801 314.73 440.757 314.539 440.755 314.345L440.668 307.531C440.665 307.337 440.704 307.145 440.783 306.967C440.862 306.79 440.977 306.632 441.123 306.503Z" fill="#FE4400"/>
<path d="M460.134 320.614C459.962 320.524 459.812 320.398 459.694 320.244C459.575 320.091 459.491 319.913 459.448 319.724L457.923 313.126C457.56 312.203 457.578 311.173 457.973 310.263C458.368 309.353 459.108 308.637 460.031 308.272C460.954 307.906 461.984 307.921 462.895 308.314C463.807 308.706 464.525 309.444 464.893 310.365L468.279 316.256C468.376 316.425 468.435 316.612 468.453 316.805C468.471 316.998 468.447 317.192 468.382 317.375C468.318 317.558 468.215 317.725 468.081 317.865C467.946 318.005 467.783 318.113 467.602 318.184L461.256 320.676C461.076 320.747 460.882 320.779 460.688 320.768C460.495 320.757 460.306 320.705 460.134 320.614Z" fill="#FE4400"/>
<path d="M459.863 302.619C463.209 300.792 464.438 296.599 462.609 293.256C460.781 289.912 456.587 288.683 453.242 290.511C449.897 292.339 448.667 296.531 450.496 299.875C452.324 303.218 456.518 304.447 459.863 302.619Z" fill="#FFB6B6"/>
<path d="M451.804 293.792C450.323 293.783 448.842 293.775 447.361 293.767C447.256 292.758 447.705 291.754 448.36 290.979C449.014 290.204 449.862 289.62 450.699 289.046C451.548 288.463 452.428 287.867 453.438 287.664C454.284 287.493 455.159 287.612 456.014 287.73C457.149 287.888 458.283 288.046 459.417 288.203C460.661 288.376 461.964 288.572 462.975 289.318C464.342 290.327 463.993 292.657 465.305 293.737C469.267 296.999 467.663 299.848 467.737 302.821C462.948 303.323 458.16 303.825 453.372 304.327C452.852 304.416 452.32 304.401 451.806 304.281C451.304 304.128 450.842 303.712 450.805 303.187C450.764 302.602 451.229 302.123 451.606 301.673C452.506 300.558 453.047 299.196 453.156 297.767C453.265 296.338 452.937 294.91 452.217 293.671L451.804 293.792Z" fill="#2F2E41"/>
<path d="M400.435 302.941C400.407 302.879 400.379 302.817 400.351 302.755C400.361 302.755 400.372 302.757 400.383 302.757L400.435 302.941Z" fill="#2F2E41"/>
<path d="M395.39 290.496C395.701 290.203 396.104 290.029 396.53 290.003C396.952 290.017 397.38 290.398 397.293 290.812C398.069 289.438 399.304 288.382 400.782 287.828C402.259 287.274 403.885 287.258 405.373 287.783C406.423 288.154 407.452 288.894 407.694 289.981C407.717 290.266 407.802 290.543 407.943 290.792C408.065 290.925 408.223 291.02 408.399 291.064C408.574 291.109 408.758 291.101 408.929 291.042L408.939 291.039C408.998 291.019 409.061 291.017 409.121 291.033C409.18 291.049 409.234 291.083 409.274 291.13C409.314 291.177 409.339 291.235 409.346 291.296C409.353 291.358 409.341 291.42 409.312 291.474L409.015 292.028C409.39 292.112 409.779 292.103 410.15 292.004C410.211 291.988 410.276 291.991 410.336 292.014C410.395 292.036 410.447 292.076 410.483 292.129C410.519 292.181 410.537 292.243 410.536 292.307C410.535 292.371 410.515 292.432 410.477 292.484C409.983 293.159 409.339 293.71 408.595 294.092C407.85 294.475 407.027 294.678 406.191 294.686C405.003 294.679 403.804 294.27 402.649 294.543C402.202 294.649 401.784 294.853 401.427 295.141C401.069 295.429 400.78 295.793 400.582 296.207C400.383 296.621 400.28 297.074 400.28 297.533C400.28 297.992 400.382 298.446 400.58 298.86C400.225 298.472 399.539 298.564 399.176 298.944C399.008 299.148 398.885 299.384 398.813 299.637C398.74 299.89 398.721 300.156 398.755 300.417C398.852 301.217 399.09 301.993 399.457 302.711C398.053 302.668 396.697 302.195 395.57 301.356C394.444 300.518 393.602 299.354 393.159 298.022C392.715 296.69 392.691 295.254 393.091 293.908C393.49 292.562 394.292 291.371 395.39 290.496V290.496Z" fill="#2F2E41"/>
<mask id="path-73-outside-1" maskUnits="userSpaceOnUse" x="319.415" y="414.901" width="208" height="3" fill="black">
<rect fill="white" x="319.415" y="414.901" width="208" height="3"/>
<path d="M525.198 416.468H320.697C320.622 416.468 320.55 416.438 320.498 416.385C320.445 416.332 320.415 416.26 320.415 416.185C320.415 416.11 320.445 416.038 320.498 415.985C320.55 415.932 320.622 415.902 320.697 415.901H525.198C525.236 415.901 525.273 415.909 525.307 415.923C525.342 415.937 525.373 415.958 525.399 415.984C525.426 416.01 525.447 416.042 525.461 416.076C525.475 416.11 525.483 416.147 525.483 416.185C525.483 416.222 525.475 416.259 525.461 416.293C525.447 416.328 525.426 416.359 525.399 416.385C525.373 416.412 525.342 416.432 525.307 416.447C525.273 416.461 525.236 416.468 525.198 416.468Z"/>
</mask>
<path d="M525.198 416.468H320.697C320.622 416.468 320.55 416.438 320.498 416.385C320.445 416.332 320.415 416.26 320.415 416.185C320.415 416.11 320.445 416.038 320.498 415.985C320.55 415.932 320.622 415.902 320.697 415.901H525.198C525.236 415.901 525.273 415.909 525.307 415.923C525.342 415.937 525.373 415.958 525.399 415.984C525.426 416.01 525.447 416.042 525.461 416.076C525.475 416.11 525.483 416.147 525.483 416.185C525.483 416.222 525.475 416.259 525.461 416.293C525.447 416.328 525.426 416.359 525.399 416.385C525.373 416.412 525.342 416.432 525.307 416.447C525.273 416.461 525.236 416.468 525.198 416.468Z" fill="#3F3D56"/>
<path d="M320.697 416.468L320.694 417.468H320.697V416.468ZM320.697 415.901V414.901L320.694 414.901L320.697 415.901ZM525.198 415.901V416.901L525.201 416.901L525.198 415.901ZM525.198 415.468H320.697V417.468H525.198V415.468ZM320.7 415.468C320.89 415.468 321.071 415.544 321.205 415.678L319.79 417.091C320.03 417.331 320.355 417.467 320.694 417.468L320.7 415.468ZM321.205 415.678C321.339 415.813 321.415 415.995 321.415 416.185H319.415C319.415 416.524 319.55 416.85 319.79 417.091L321.205 415.678ZM321.415 416.185C321.415 416.375 321.339 416.557 321.205 416.691L319.79 415.278C319.55 415.519 319.415 415.845 319.415 416.185H321.415ZM321.205 416.691C321.072 416.825 320.89 416.901 320.7 416.901L320.694 414.901C320.355 414.902 320.029 415.038 319.79 415.278L321.205 416.691ZM320.697 416.901H525.198V414.901H320.697V416.901ZM525.201 416.901C525.107 416.902 525.014 416.883 524.927 416.847L525.688 414.998C525.532 414.934 525.364 414.901 525.195 414.901L525.201 416.901ZM524.927 416.847C524.839 416.812 524.76 416.759 524.693 416.692L526.105 415.276C525.986 415.157 525.844 415.062 525.688 414.998L524.927 416.847ZM524.693 416.692C524.626 416.626 524.573 416.547 524.537 416.46L526.384 415.693C526.32 415.537 526.225 415.395 526.105 415.276L524.693 416.692ZM524.537 416.46C524.501 416.373 524.483 416.279 524.483 416.185H526.483C526.483 416.016 526.449 415.848 526.384 415.693L524.537 416.46ZM524.483 416.185C524.483 416.09 524.501 415.997 524.537 415.91L526.384 416.677C526.449 416.521 526.483 416.354 526.483 416.185H524.483ZM524.537 415.91C524.573 415.823 524.626 415.744 524.693 415.677L526.105 417.093C526.225 416.974 526.32 416.833 526.384 416.677L524.537 415.91ZM524.693 415.677C524.76 415.61 524.839 415.558 524.927 415.522L525.688 417.371C525.844 417.307 525.986 417.213 526.105 417.093L524.693 415.677ZM524.927 415.522C525.014 415.486 525.107 415.468 525.201 415.468L525.195 417.468C525.364 417.468 525.531 417.436 525.688 417.371L524.927 415.522Z" fill="#3F3D56" mask="url(#path-73-outside-1)"/>
</g>
<path d="M463.422 184.455C457.54 183.66 450.824 186.838 449.3 192.572C448.915 191.553 448.217 190.682 447.305 190.085C446.393 189.488 445.315 189.197 444.226 189.253C443.138 189.309 442.095 189.709 441.249 190.396C440.403 191.083 439.798 192.021 439.52 193.074L440.193 193.556C452.799 196.281 465.848 196.222 478.428 193.383C474.336 189.085 469.304 185.25 463.422 184.455Z" fill="#F0F0F0"/>
<path d="M388.526 204.602C382.644 203.808 375.928 206.986 374.404 212.72C374.019 211.7 373.321 210.829 372.409 210.233C371.497 209.636 370.419 209.344 369.33 209.4C368.242 209.456 367.199 209.856 366.353 210.543C365.507 211.23 364.902 212.168 364.624 213.222L365.297 213.704C377.903 216.428 390.952 216.37 403.532 213.531C399.44 209.233 394.408 205.397 388.526 204.602Z" fill="#F0F0F0"/>
</g>
<defs>
<clipPath id="clip0">
<rect width="506.314" height="308.344" fill="white" transform="translate(33.9429 110.314)"/>
</clipPath>
<clipPath id="clip1">
<rect width="213.3" height="152.858" fill="white" transform="translate(320.387 264.048)"/>
</clipPath>
</defs>
</svg>
