<svg width="304" height="251" viewBox="0 0 304 251" fill="none" xmlns="http://www.w3.org/2000/svg">
<path d="M82.0406 163.194C64.6515 163.194 50.5548 134.604 50.5548 99.3357C50.5548 64.0675 64.6515 35.4771 82.0406 35.4771C99.4298 35.4771 113.527 64.0675 113.527 99.3357C113.527 134.604 99.4298 163.194 82.0406 163.194Z" fill="#E6E6E6"/>
<path d="M82.7237 99.8722C81.1837 72.2047 78.0808 53.5162 78.0497 53.3306L78.7229 53.2156C78.7541 53.4013 81.8624 72.1198 83.4049 99.8229C84.8284 125.391 85.1718 164.065 78.7231 203.106L78.0495 202.993C84.4872 164.018 84.1446 125.403 82.7237 99.8722Z" fill="#3F3D56"/>
<path d="M40.0833 92.6463L68.2093 107.695L67.8846 108.302L39.7586 93.2528L40.0833 92.6463Z" fill="#3F3D56"/>
<path d="M111.768 93.9803L112.092 94.5869L83.9622 109.628L83.6377 109.022L111.768 93.9803Z" fill="#3F3D56"/>
<path d="M262.836 164.07C285.048 164.07 303.055 127.341 303.055 82.0349C303.055 36.7283 285.048 0 262.836 0C240.625 0 222.618 36.7283 222.618 82.0349C222.618 127.341 240.625 164.07 262.836 164.07Z" fill="#E6E6E6"/>
<path d="M262.348 82.8752C264.354 47.1602 268.397 23.0361 268.438 22.7965L267.797 22.688C267.757 22.9277 263.708 47.0801 261.699 82.8287C259.845 115.823 259.398 165.728 267.797 216.105L268.438 215.999C260.05 165.683 260.496 115.834 262.348 82.8752Z" fill="#3F3D56"/>
<path d="M298.839 65.5038L262.475 84.9604L262.782 85.5335L299.145 66.0768L298.839 65.5038Z" fill="#3F3D56"/>
<path d="M224.394 75.2553L224.087 75.8284L260.456 95.2752L260.763 94.7021L224.394 75.2553Z" fill="#3F3D56"/>
<path d="M206.672 183.627C214.971 183.627 221.699 169.905 221.699 152.977C221.699 136.049 214.971 122.327 206.672 122.327C198.373 122.327 191.646 136.049 191.646 152.977C191.646 169.905 198.373 183.627 206.672 183.627Z" fill="#E6E6E6"/>
<path d="M206.659 154.298L206.748 154.464L220.334 147.194L220.028 146.621L206.687 153.759C207.426 140.176 208.935 131.058 208.966 130.878L208.325 130.77C208.292 130.966 206.498 141.794 205.861 157.462L192.406 150.263L192.1 150.836L205.686 158.105L205.848 157.802C205.339 170.734 205.624 186.904 208.325 203.103L208.966 202.996C206.022 185.335 205.957 167.706 206.659 154.298Z" fill="#3F3D56"/>
<path d="M282.81 220.175C202.773 194.846 130.198 196.195 83.4082 201.788C32.7178 207.846 0.552193 220.046 0.233334 220.168L2.28882e-05 219.562C0.319835 219.439 32.5612 207.21 83.3311 201.142C113.195 197.577 143.327 196.807 173.334 198.841C210.585 201.361 247.403 208.315 283.007 219.555L282.81 220.175Z" fill="#3F3D56"/>
<path d="M5.32159 213.749C5.32159 213.749 5.07407 209.777 3.19481e-05 210.239L5.32159 213.749Z" fill="#3F3D56"/>
<path d="M6.20848 209.315C4.73898 209.315 3.5477 208.322 3.5477 207.097C3.5477 205.873 4.73898 204.88 6.20848 204.88C7.67799 204.88 8.86926 205.873 8.86926 207.097C8.86926 208.322 7.67799 209.315 6.20848 209.315Z" fill="#FE4400"/>
<path d="M186.744 213.991C186.744 213.991 186.968 209.289 191.57 209.836L186.744 213.991Z" fill="#3F3D56"/>
<path d="M185.444 209.517C186.716 209.517 187.747 208.486 187.747 207.215C187.747 205.943 186.716 204.912 185.444 204.912C184.172 204.912 183.141 205.943 183.141 207.215C183.141 208.486 184.172 209.517 185.444 209.517Z" fill="#FE4400"/>
<path d="M185.719 211.092H185.069V215.641H185.719V211.092Z" fill="#3F3D56"/>
<path d="M59.424 206.654C59.424 206.654 59.2178 202.682 54.9894 203.143L59.424 206.654Z" fill="#3F3D56"/>
<path d="M60.7545 202.219C59.5299 202.219 58.5372 201.226 58.5372 200.002C58.5372 198.777 59.5299 197.784 60.7545 197.784C61.9791 197.784 62.9718 198.777 62.9718 200.002C62.9718 201.226 61.9791 202.219 60.7545 202.219Z" fill="#FE4400"/>
<path d="M60.311 203.993H61.1979V208.428H60.311V203.993Z" fill="#3F3D56"/>
<path d="M23.947 200.445C23.947 200.445 23.6995 196.473 18.6255 196.935L23.947 200.445Z" fill="#3F3D56"/>
<path d="M25.2774 196.011C24.0528 196.011 23.0601 195.018 23.0601 193.793C23.0601 192.569 24.0528 191.576 25.2774 191.576C26.502 191.576 27.4947 192.569 27.4947 193.793C27.4947 195.018 26.502 196.011 25.2774 196.011Z" fill="#FE4400"/>
<path d="M24.834 197.784H25.7209V202.219H24.834V197.784Z" fill="#3F3D56"/>
<path d="M172.767 208.467C172.767 208.467 172.991 203.765 177.593 204.312L172.767 208.467Z" fill="#3F3D56"/>
<path d="M171.467 203.993C172.739 203.993 173.77 202.962 173.77 201.691C173.77 200.419 172.739 199.388 171.467 199.388C170.195 199.388 169.164 200.419 169.164 201.691C169.164 202.962 170.195 203.993 171.467 203.993Z" fill="#FE4400"/>
<path d="M171.742 205.568H171.092V210.117H171.742V205.568Z" fill="#3F3D56"/>
<path d="M272.72 199.042L286.098 218.872L273.643 231.324L272.028 228.096L274.796 221.639C274.796 221.639 274.335 215.644 272.72 214.03C271.105 212.416 263.955 202.731 263.955 202.731L272.72 199.042Z" fill="#FFB8B8"/>
<path d="M255.651 134.938C255.651 134.938 258.187 138.952 252.882 156.246C252.882 156.246 277.628 197.997 273.707 200.764C269.786 203.532 259.174 209.655 256.406 207.811C253.638 205.966 233.507 143.47 233.507 143.47L255.651 134.938Z" fill="#2F2E41"/>
<path d="M283.676 215.298L287.713 219.333C289.789 221.409 291.173 224.406 287.251 226.943C283.33 229.479 269.721 238.933 265.108 235.936C260.495 232.938 270.644 230.171 270.644 230.171C270.644 230.171 272.322 223.951 273.213 225.331C274.104 226.712 274.104 229.479 274.104 229.479L283.676 215.298Z" fill="#2F2E41"/>
<path d="M234.891 209.879C234.891 209.879 227.51 223.484 227.51 225.098C227.51 226.712 227.971 231.324 227.971 231.324L213.901 234.783L209.057 232.477L210.671 228.326C210.671 228.326 219.437 225.329 221.282 219.564C223.127 213.799 225.203 207.804 225.203 207.804L234.891 209.879Z" fill="#FFB8B8"/>
<path d="M243.426 74.5237C248.776 74.5237 253.113 70.1877 253.113 64.839C253.113 59.4903 248.776 55.1543 243.426 55.1543C238.075 55.1543 233.738 59.4903 233.738 64.839C233.738 70.1877 238.075 74.5237 243.426 74.5237Z" fill="#FFB8B8"/>
<path d="M240.888 73.1403L245.514 86.4257L255.651 81.9027C255.651 81.9027 248.731 71.2956 248.731 69.9121L240.888 73.1403Z" fill="#FFB8B8"/>
<path d="M239.505 120.411H251.73C251.73 120.411 260.495 133.785 255.42 147.851C254.643 150.005 253.872 153.022 253.102 156.589C251.331 164.793 249.568 175.906 247.761 186.118C245.224 200.461 242.6 213.027 239.747 213.255C233.981 213.716 222.767 213.639 222.767 211.334C222.767 209.028 230.278 142.317 230.278 142.317L231.893 139.55L232.198 127.497C232.246 125.595 233.038 123.788 234.404 122.463C235.77 121.138 237.601 120.401 239.505 120.411Z" fill="#2F2E41"/>
<path d="M227.395 224.983C227.395 224.983 230.047 229.479 229.355 232.708C228.663 235.936 227.51 235.475 222.435 235.936C217.361 236.397 200.061 236.397 200.061 233.169C200.061 229.941 213.556 225.748 213.613 227.037C213.67 228.326 214.132 230.863 212.748 231.324C211.364 231.785 212.632 231.439 212.632 231.439L227.395 224.983Z" fill="#2F2E41"/>
<path d="M240.89 149.192C240.89 149.192 239.887 165.572 233.195 160.696C226.502 155.819 235.803 147.011 235.803 147.011L240.89 149.192Z" fill="white"/>
<path d="M254.247 127.619C254.569 127.764 254.924 127.819 255.275 127.777C255.625 127.736 255.957 127.6 256.236 127.384C256.641 127.066 256.911 126.607 256.991 126.099C257.958 120.523 259.136 105.064 259.815 97.2469C260.666 87.4382 256.414 79.8411 256.378 79.7948L253.872 76.3498C253.611 75.9899 253.237 75.7286 252.809 75.6086C252.381 75.4885 251.925 75.5168 251.516 75.6888C251.516 75.6888 243.691 83.8041 243.663 84.1174C243.54 85.4629 242.609 88.4446 237.755 93.2968C232.444 98.606 232.414 103.24 232.532 104.534C232.54 104.619 232.544 104.704 232.544 104.789C232.534 105.369 232.613 105.947 232.778 106.504C235.002 113.515 233.26 121.908 230.463 130.67C230.357 131.066 230.376 131.485 230.519 131.869C230.662 132.253 230.921 132.583 231.259 132.814C232.076 133.37 231.097 132.545 231.388 132.902C233.316 135.264 236.091 131.972 239.264 128.381C240.37 127.13 241.623 125.712 243.1 124.235C245.13 122.205 249.01 126.837 250.814 126.837C252.001 126.852 253.171 127.118 254.247 127.619Z" fill="#FE4400"/>
<path d="M255.323 83.3716C255.323 83.3716 260.39 87.6434 257.512 93.1835C254.633 98.7237 255.016 102.81 255.016 102.81C255.016 102.81 254.249 140.869 245.254 139.02L241.163 150.312L233.773 147.646L238.046 137.686C238.046 137.686 234.624 137.473 235.624 135.142C236.326 133.504 240.111 115.737 242.301 105.305C243.229 100.884 243.871 97.781 243.871 97.781C243.871 97.781 246.783 82.2189 255.323 83.3716Z" fill="#FE4400"/>
<path opacity="0.2" d="M256.386 102.713L253.537 121.4L255.074 101.418L256.386 102.713Z" fill="black"/>
<path d="M232.856 60.5479C232.856 60.5479 231.227 47.8766 244.516 52.0318C244.516 52.0318 254.008 50.2909 257.12 62.1591L260.272 74.6L258.736 73.7642L258.02 75.329L255.531 75.9591L254.466 73.8458L253.951 76.4122L233.565 78.4438C233.565 78.4438 242.695 73.0459 242.84 63.3714L241.101 65.2086L232.856 60.5479Z" fill="#2F2E41"/>
<path opacity="0.2" d="M248.016 186.846L252.562 156.566L248.865 189.255L248.016 186.846Z" fill="black"/>
<path d="M255.445 57.2803C258.276 57.2803 260.571 54.9861 260.571 52.1559C260.571 49.3258 258.276 47.0315 255.445 47.0315C252.614 47.0315 250.319 49.3258 250.319 52.1559C250.319 54.9861 252.614 57.2803 255.445 57.2803Z" fill="#2F2E41"/>
<path d="M250.163 50.9014C250.248 49.6012 250.824 48.3821 251.776 47.4922C252.728 46.6024 253.984 46.1087 255.287 46.1119C255.181 46.0984 255.076 46.0821 254.968 46.0752C254.296 46.0316 253.622 46.1209 252.985 46.3378C252.347 46.5547 251.759 46.8951 251.253 47.3395C250.747 47.7838 250.334 48.3234 250.037 48.9275C249.74 49.5316 249.564 50.1883 249.521 50.8601C249.478 51.5319 249.568 52.2056 249.785 52.8428C250.002 53.4799 250.343 54.068 250.788 54.5735C251.233 55.0789 251.773 55.4918 252.377 55.7886C252.982 56.0853 253.639 56.2601 254.311 56.3029C254.419 56.3099 254.525 56.3071 254.631 56.3073C253.338 56.1436 252.157 55.4933 251.326 54.4889C250.496 53.4845 250.08 52.2016 250.163 50.9014Z" fill="#2F2E41"/>
<path opacity="0.2" d="M240.817 108.536L236.307 132.7L242.152 106.01L240.817 108.536Z" fill="black"/>
<path d="M241.098 71.8183L238.469 73.7995C235.762 72.4376 233.732 69.2866 232.994 66.2791L235.858 64.8342C236.083 67.9017 238.261 69.9411 241.098 71.8183Z" fill="white"/>
<path d="M242.19 65.2707H235.64C235.582 65.2707 235.527 65.2477 235.486 65.2068C235.445 65.1659 235.422 65.1104 235.422 65.0525C235.422 64.9946 235.445 64.9391 235.486 64.8982C235.527 64.8572 235.582 64.8342 235.64 64.8342H242.19C242.248 64.8342 242.303 64.8572 242.344 64.8982C242.385 64.9391 242.408 64.9946 242.408 65.0525C242.408 65.1104 242.385 65.1659 242.344 65.2068C242.303 65.2477 242.248 65.2707 242.19 65.2707Z" fill="white"/>
<path d="M240.88 71.8182C240.844 71.8182 240.809 71.8095 240.778 71.7927C240.746 71.776 240.719 71.7518 240.699 71.7223C240.679 71.6928 240.667 71.6588 240.663 71.6233C240.659 71.5879 240.664 71.552 240.677 71.5189L242.424 67.1539C242.435 67.1272 242.45 67.1029 242.47 67.0823C242.49 67.0617 242.514 67.0452 242.541 67.0339C242.567 67.0225 242.595 67.0165 242.624 67.0161C242.653 67.0158 242.681 67.0211 242.708 67.0317C242.735 67.0424 242.759 67.0582 242.779 67.0782C242.8 67.0983 242.816 67.1222 242.827 67.1486C242.839 67.175 242.845 67.2034 242.845 67.2321C242.845 67.2608 242.84 67.2893 242.829 67.3159L241.083 71.6809C241.066 71.7214 241.038 71.7562 241.002 71.7806C240.966 71.8051 240.924 71.8182 240.88 71.8182Z" fill="white"/>
<path d="M242.63 67.8496C243.515 67.8496 244.232 66.8459 244.232 65.6077C244.232 64.3695 243.515 63.3657 242.63 63.3657C241.746 63.3657 241.029 64.3695 241.029 65.6077C241.029 66.8459 241.746 67.8496 242.63 67.8496Z" fill="#FFB8B8"/>
<path d="M60.7472 193.484C60.7472 193.484 60.7472 224.634 68.0752 232.805C68.0752 232.805 69.6455 236.89 70.1689 238.422C70.4616 239.294 70.8113 240.147 71.2158 240.975V243.018C71.2158 243.018 85.3484 241.486 86.9187 237.911L84.3016 234.847C84.3016 234.847 83.7781 234.337 84.3016 232.805C84.825 231.273 83.2547 231.273 83.2547 231.273L79.5907 223.102L80.1141 189.399L77.497 142.93L54.9894 141.908L60.7472 193.484Z" fill="#2F2E41"/>
<path d="M72.5281 239.692C72.5281 239.692 68.9866 250.168 72.5281 250.667C76.0695 251.166 106.931 251.665 106.425 247.674C105.919 243.683 95.8006 244.182 95.8006 244.182L85.1762 237.696L72.5281 239.692Z" fill="#2F2E41"/>
<path d="M40.4677 142.795C40.4677 142.795 39.4484 149.459 43.5256 156.635C47.6028 163.811 45.0546 187.902 45.0546 187.902L8.86929 219.682C8.86929 219.682 16.0044 231.984 18.5527 231.472C21.1009 230.959 61.3634 198.154 61.3634 198.154L77.1626 144.845L40.4677 142.795Z" fill="#2F2E41"/>
<path d="M9.71058 218.184C9.71058 218.184 -1.35632 220.854 0.138933 224.084C1.63418 227.313 18.0205 253.391 21.2253 250.822C24.4302 248.254 18.4799 240.06 18.4799 240.06L18.3449 227.689L9.71058 218.184Z" fill="#2F2E41"/>
<path d="M48.781 47.894C48.777 50.535 49.6848 53.0963 51.3511 55.1452C52.6687 56.7781 54.4078 58.0195 56.3803 58.7349C58.3528 59.4503 60.4834 59.6125 62.5414 59.2039C63.5719 59.0047 64.5692 58.6616 65.504 58.1844C66.9888 57.4361 68.2939 56.3753 69.33 55.0749C70.366 53.7745 71.1083 52.2653 71.506 50.6509C71.73 49.7491 71.8425 48.8232 71.841 47.894C71.841 44.8361 70.6262 41.9034 68.4639 39.7411C66.3016 37.5788 63.3689 36.364 60.311 36.364C57.253 36.364 54.3203 37.5788 52.158 39.7411C49.9957 41.9034 48.781 44.8361 48.781 47.894Z" fill="#A0616A"/>
<path d="M51.4417 52.3286L51.9444 67.13L61.5068 70.9541C61.5068 70.9541 62.4445 55.7984 63.7683 54.9582C65.092 54.118 51.4417 52.3286 51.4417 52.3286Z" fill="#A0616A"/>
<path d="M63.8996 72.6985C63.8996 72.6985 50.3081 58.9279 46.7844 59.4379C43.2607 59.9479 43.2607 61.478 43.2607 62.498C43.2607 63.5181 44.2675 64.0281 43.2607 64.5381C42.2539 65.0482 41.2472 64.5382 41.2472 66.0682C41.2472 67.5983 32.1862 82.8991 35.2065 99.7299C38.2268 116.561 41.7505 124.721 40.2404 133.902C38.7302 143.082 39.737 145.122 39.737 145.122C39.737 145.122 77.4911 148.182 77.9944 144.612C78.4978 141.042 76.4843 143.082 79.0012 140.532C81.5182 137.982 80.5114 137.982 80.5114 136.452C80.5114 134.922 69.4369 72.6985 63.8996 72.6985Z" fill="#FE4400"/>
<path d="M56.7632 142.2C56.7632 142.2 62.9271 157.428 67.5499 153.752C72.1728 150.077 65.4953 137.473 65.4953 137.473L56.7632 142.2Z" fill="white"/>
<path d="M42.2354 73.7077C42.2354 73.7077 30.2308 75.079 34.7003 97.0791C39.1698 119.079 56.5417 144.569 56.5417 144.569L68.2933 138.961L52.9651 108.883L56.5417 90.0211C56.5417 90.0211 58.5854 72.1784 42.2354 73.7077Z" fill="#FE4400"/>
<path opacity="0.2" d="M52.3286 109.092L69.1802 137.687L67.6482 139.247L52.3286 109.092Z" fill="black"/>
<path opacity="0.2" d="M43.4594 122.396L56.7633 144.569H52.2393L43.4594 122.396Z" fill="black"/>
<path opacity="0.2" d="M74.1753 162.634L74.8539 162.893L61.4218 198.1L60.7432 197.841L74.1753 162.634Z" fill="black"/>
<path d="M63.8587 75.3886C63.3689 75.3886 62.9718 75.1901 62.9718 74.9452C62.9718 74.7003 63.3689 74.5017 63.8587 74.5017C64.3485 74.5017 64.7456 74.7003 64.7456 74.9452C64.7456 75.1901 64.3485 75.3886 63.8587 75.3886Z" fill="#D0CDE1"/>
<path d="M70.5809 94.901C70.5011 94.901 70.4234 94.8765 70.3593 94.8311C70.2951 94.7857 70.2477 94.7217 70.2242 94.6487L63.8756 74.9659C63.861 74.9209 63.8558 74.8737 63.8603 74.8269C63.8647 74.78 63.8788 74.7345 63.9017 74.6928C63.9245 74.6512 63.9557 74.6143 63.9935 74.5843C64.0312 74.5542 64.0748 74.5316 64.1217 74.5177C64.1686 74.5038 64.2179 74.4989 64.2668 74.5033C64.3157 74.5076 64.3632 74.5212 64.4065 74.5432C64.4499 74.5652 64.4884 74.5952 64.5197 74.6314C64.551 74.6676 64.5745 74.7094 64.5889 74.7544L70.9376 94.4376C70.9548 94.4911 70.9586 94.5477 70.9488 94.6029C70.939 94.6581 70.9158 94.7104 70.8811 94.7554C70.8465 94.8005 70.8012 94.8371 70.7491 94.8624C70.697 94.8877 70.6394 94.9009 70.5809 94.901V94.901Z" fill="#D0CDE1"/>
<path d="M62.9718 56.6187L65.9233 59.4241C68.9631 57.8958 71.8993 53.7775 72.7279 50.4024L68.8553 48.781C68.6025 52.2234 66.1568 54.512 62.9718 56.6187Z" fill="white"/>
<path d="M62.3209 50.5549C62.3322 50.5549 62.3435 50.5539 62.3547 50.552L68.9769 49.3694C69.0077 49.364 69.0373 49.351 69.064 49.3312C69.0908 49.3115 69.1141 49.2853 69.1328 49.2543C69.1514 49.2233 69.165 49.1879 69.1728 49.1503C69.1805 49.1127 69.1822 49.0736 69.1779 49.0351C69.1735 48.9967 69.1631 48.9597 69.1473 48.9263C69.1315 48.8928 69.1106 48.8636 69.0857 48.8403C69.0609 48.817 69.0326 48.8 69.0026 48.7903C68.9725 48.7806 68.9412 48.7785 68.9104 48.7839L62.2881 49.9665C62.2289 49.977 62.1751 50.0151 62.1374 50.0732C62.0998 50.1314 62.0812 50.2052 62.0854 50.2798C62.0895 50.3543 62.1161 50.4242 62.1599 50.4752C62.2036 50.5263 62.2611 50.5547 62.3209 50.5549Z" fill="white"/>
<path d="M62.7358 56.7632C62.777 56.7633 62.8175 56.7524 62.8533 56.7316C62.889 56.7108 62.9188 56.6808 62.9396 56.6447C62.9604 56.6086 62.9715 56.5676 62.9718 56.5258C62.9721 56.484 62.9616 56.4428 62.9413 56.4064L60.7527 52.4512C60.7375 52.4237 60.7172 52.3995 60.6928 52.38C60.6685 52.3605 60.6406 52.3461 60.6107 52.3376C60.5808 52.329 60.5496 52.3266 60.5188 52.3303C60.488 52.3341 60.4582 52.3439 60.4312 52.3594C60.4041 52.3748 60.3803 52.3955 60.3612 52.4203C60.3421 52.4451 60.3279 52.4735 60.3196 52.5038C60.3113 52.5342 60.309 52.5659 60.3128 52.5972C60.3165 52.6284 60.3264 52.6586 60.3417 52.686L62.5303 56.6412C62.5508 56.6782 62.5806 56.7091 62.6168 56.7305C62.6529 56.752 62.694 56.7633 62.7358 56.7632Z" fill="white"/>
<path d="M55.0357 54.8249C55.9807 54.3323 57.0785 54.2308 58.1014 53.9246C61.7609 52.8291 64.2125 48.7506 63.4298 45.0598C63.2852 44.5864 63.2202 44.0928 63.2376 43.5988C63.3744 42.5057 64.5089 41.8004 65.5968 41.5499C66.6847 41.2994 67.8422 41.3358 68.8819 40.9331C70.4874 40.3112 71.5538 38.6846 71.785 36.9994C72.0162 35.3142 71.509 33.5955 70.684 32.102L70.2911 33.2168C69.6918 32.7167 69.2469 32.0607 69.0071 31.3236C68.5605 31.3976 68.1407 31.5833 67.7878 31.8631C67.4349 32.1429 67.1608 32.5073 66.9917 32.9215C66.3609 33.2882 66.27 31.7823 65.5733 31.5601C65.2816 31.4671 64.9816 31.6438 64.7037 31.7716C63.2998 32.4171 61.6687 31.8652 60.1627 31.5074C57.5549 30.8907 54.8365 30.8875 52.2273 31.4981C50.4938 31.9058 48.778 32.6156 47.5375 33.8771C46.5188 34.9131 45.8841 36.2528 45.3437 37.5937C44.0132 40.8947 43.1343 44.4665 43.5735 47.9921C43.9393 50.8771 45.1635 53.5907 47.0918 55.7906C48.0964 56.9316 51.3737 60.9124 53.1708 60.2337C55.4287 59.3809 52.3752 56.2118 55.0357 54.8249Z" fill="#2F2E41"/>
<path d="M86.5652 74.1482C86.3699 74.3434 86.3699 74.66 86.5652 74.8553L89.7472 78.0372C89.9424 78.2325 90.259 78.2325 90.4543 78.0372C90.6495 77.842 90.6495 77.5254 90.4543 77.3301L87.6258 74.5017L90.4543 71.6733C90.6495 71.478 90.6495 71.1614 90.4543 70.9662C90.259 70.7709 89.9424 70.7709 89.7472 70.9662L86.5652 74.1482ZM220.311 74.8553C220.506 74.66 220.506 74.3434 220.311 74.1482L217.129 70.9662C216.934 70.7709 216.617 70.7709 216.422 70.9662C216.227 71.1614 216.227 71.478 216.422 71.6733L219.251 74.5017L216.422 77.3301C216.227 77.5254 216.227 77.842 216.422 78.0372C216.617 78.2325 216.934 78.2325 217.129 78.0372L220.311 74.8553ZM86.9187 75.0017H87.9266V74.0017H86.9187V75.0017ZM89.9423 75.0017H91.9581V74.0017H89.9423V75.0017ZM93.9738 75.0017H95.9896V74.0017H93.9738V75.0017ZM98.0053 75.0017H100.021V74.0017H98.0053V75.0017ZM102.037 75.0017H104.053V74.0017H102.037V75.0017ZM106.068 75.0017H108.084V74.0017H106.068V75.0017ZM110.1 75.0017H112.115V74.0017H110.1V75.0017ZM114.131 75.0017H116.147V74.0017H114.131V75.0017ZM118.163 75.0017H120.178V74.0017H118.163V75.0017ZM122.194 75.0017H124.21V74.0017H122.194V75.0017ZM126.226 75.0017H128.241V74.0017H126.226V75.0017ZM130.257 75.0017H132.273V74.0017H130.257V75.0017ZM134.289 75.0017H136.304V74.0017H134.289V75.0017ZM138.32 75.0017H140.336V74.0017H138.32V75.0017ZM142.352 75.0017H144.367V74.0017H142.352V75.0017ZM146.383 75.0017H148.399V74.0017H146.383V75.0017ZM150.415 75.0017H152.43V74.0017H150.415V75.0017ZM154.446 75.0017H156.462V74.0017H154.446V75.0017ZM158.478 75.0017H160.493V74.0017H158.478V75.0017ZM162.509 75.0017H164.525V74.0017H162.509V75.0017ZM166.54 75.0017H168.556V74.0017H166.54V75.0017ZM170.572 75.0017H172.588V74.0017H170.572V75.0017ZM174.603 75.0017H176.619V74.0017H174.603V75.0017ZM178.635 75.0017H180.651V74.0017H178.635V75.0017ZM182.666 75.0017H184.682V74.0017H182.666V75.0017ZM186.698 75.0017H188.714V74.0017H186.698V75.0017ZM190.729 75.0017H192.745V74.0017H190.729V75.0017ZM194.761 75.0017H196.777V74.0017H194.761V75.0017ZM198.792 75.0017H200.808V74.0017H198.792V75.0017ZM202.824 75.0017H204.84V74.0017H202.824V75.0017ZM206.855 75.0017H208.871V74.0017H206.855V75.0017ZM210.887 75.0017H212.902V74.0017H210.887V75.0017ZM214.918 75.0017H216.934V74.0017H214.918V75.0017ZM218.95 75.0017H219.958V74.0017H218.95V75.0017Z" fill="black"/>
</svg>
