<svg width="185" height="276" viewBox="0 0 185 276" fill="none" xmlns="http://www.w3.org/2000/svg">
<path d="M82.9995 67.0866L58.5296 71.2231C57.9251 71.3261 57.3038 71.2015 56.786 70.8736C56.2682 70.5456 55.8907 70.0376 55.7265 69.4478C53.9586 63.0782 50.2624 54.7688 53.851 50.5975C54.0339 48.8427 54.8877 47.2258 56.2346 46.0836C57.5816 44.9413 59.318 44.3616 61.0824 44.4652C65.4537 37.6346 72.7349 38.6602 77.656 42.9262C82.6087 44.6321 84.4759 47.6628 83.8229 51.7756C85.9625 53.6452 87.0842 55.751 87.3208 58.0623C87.4329 59.3485 87.269 60.6438 86.8399 61.8617C86.4108 63.0796 85.7264 64.1922 84.8324 65.1252L82.9995 67.0866Z" fill="#2F2E41"/>
<path d="M79.1951 86.3171L60.2255 85.2032C62.0845 80.9437 62.8271 76.8421 62.0852 72.9502H76.2195C76.1875 75.9384 77.6771 81.1074 79.1951 86.3171Z" fill="#9F616A"/>
<path d="M56.3609 261.296L55.5828 271.914C55.5476 272.394 55.6157 272.877 55.7826 273.329C55.9496 273.781 56.2114 274.192 56.5506 274.535C56.8898 274.878 57.2986 275.145 57.7494 275.317C58.2003 275.489 58.6828 275.563 59.1647 275.534L64.6281 275.204C64.8813 275.188 65.1279 275.118 65.3506 274.996C65.5732 274.875 65.7664 274.706 65.9163 274.502C66.0663 274.298 66.1693 274.063 66.2182 273.815C66.267 273.567 66.2605 273.31 66.199 273.065L63.1663 260.956L56.3609 261.296Z" fill="#E6E6E6"/>
<path d="M74.0484 260.956L71.0157 273.065C70.9542 273.31 70.9477 273.567 70.9965 273.815C71.0454 274.063 71.1484 274.298 71.2984 274.502C71.4483 274.706 71.6415 274.875 71.8641 274.996C72.0867 275.118 72.3334 275.188 72.5865 275.204L78.05 275.534C78.5319 275.563 79.0144 275.489 79.4652 275.317C79.9161 275.145 80.3248 274.878 80.664 274.535C81.0033 274.192 81.2651 273.781 81.432 273.329C81.599 272.877 81.6671 272.394 81.6319 271.914L80.8538 261.296L74.0484 260.956Z" fill="#E6E6E6"/>
<path d="M81.2065 262.77L73.8338 262.031L66.4935 183.708L63.7194 261.778L56.4759 261.519L44.2672 153.395H90.911L81.2065 262.77Z" fill="#FE4400"/>
<path d="M69.5252 77.4578C77.3053 77.4578 83.6123 71.1618 83.6123 63.3954C83.6123 55.629 77.3053 49.333 69.5252 49.333C61.7452 49.333 55.4382 55.629 55.4382 63.3954C55.4382 71.1618 61.7452 77.4578 69.5252 77.4578Z" fill="#9F616A"/>
<path d="M85.402 56.6775C79.6845 55.6835 74.0632 55.547 68.5987 56.8078C65.1178 57.9453 60.9376 57.8405 56.2887 56.9032V47.4202L81.3864 47.8717L85.402 56.6775Z" fill="#2F2E41"/>
<path d="M78.9003 74.6787C72.7377 77.2376 66.2758 77.1337 59.5497 74.6787C61.5068 71.3439 58.5813 68.7321 57.0794 65.3656L82.1941 64.6206C80.2735 67.5451 77.4396 71.0003 78.9003 74.6787Z" fill="white"/>
<path d="M55.3501 63.4451L55.1031 63.741L57.5733 65.7958L57.8203 65.5L55.3501 63.4451Z" fill="white"/>
<path d="M82.6491 67.6L78.3251 74.3809L78.6504 74.5876L82.9745 67.8067L82.6491 67.6Z" fill="white"/>
<path d="M55.8006 67.5997L55.4752 67.8064L59.7982 74.5879L60.1236 74.3812L55.8006 67.5997Z" fill="white"/>
<path d="M42.7435 127.532L31.9568 120.848L41.156 93.9532C42.182 91.178 44.1472 88.8478 46.7118 87.3656L49.8107 85.5747L50.0801 112.707L42.7435 127.532Z" fill="#FE4400"/>
<path d="M89.3685 140.594L87.7726 126.949C87.6874 119.747 88.9148 112.784 91.8416 106.368L93.3294 86.3172L76.9634 79.6338C76.9132 79.9667 76.8706 80.2994 76.8227 80.6323L69.1524 84.4607L61.6719 82.7636L61.7133 80.3764L46.8351 87.0599C51.7553 109.894 49.0717 133.607 40.6107 161.615L60.2114 166.965L60.3743 157.57L77.8427 156.325C78.0227 159.373 78.1673 162.367 78.2512 165.295C88.1081 168.917 88.4467 168.857 97.4275 163.67C93.851 156.164 91.0192 148.353 89.3685 140.594Z" fill="#FE4400"/>
<path d="M114.531 124.19L104.488 120.848L88.4241 102.18L93.3292 86.3174L115.646 117.507L114.531 124.19Z" fill="#FE4400"/>
<path d="M83.0569 138.642C83.2213 139.362 83.6648 139.988 84.2904 140.381C84.9159 140.775 85.6724 140.905 86.394 140.743L94.919 138.816L93.6869 133.384L85.1617 135.311C84.4401 135.474 83.813 135.917 83.4183 136.542C83.0236 137.166 82.8936 137.922 83.0569 138.642V138.642Z" fill="#E6E6E6"/>
<path d="M90.7258 132.359L95.5612 141.27C103.694 139.006 110.743 131.867 117.506 123.447L115.647 117.507L104.116 120.477L90.7258 132.359Z" fill="#FE4400"/>
<path d="M27.6794 104.406L36.9621 106.061L58.1798 136.177L46.908 133.529L27.6794 104.406Z" fill="#E6E6E6"/>
<path d="M26.0328 104.038C25.8913 104.04 25.753 104.08 25.6324 104.153C25.5117 104.227 25.4132 104.332 25.3469 104.457C25.2807 104.582 25.2493 104.722 25.256 104.863C25.2627 105.004 25.3072 105.141 25.385 105.259L45.2179 135.297C45.3285 135.465 45.4995 135.584 45.6955 135.63L54.9232 137.798C55.0788 137.834 55.2418 137.823 55.3907 137.765C55.5396 137.707 55.6672 137.605 55.7567 137.472C55.8463 137.34 55.8934 137.184 55.8919 137.025C55.8905 136.865 55.8404 136.71 55.7485 136.579L33.9731 105.672C33.9141 105.587 33.839 105.516 33.7521 105.46C33.6653 105.405 33.5684 105.368 33.467 105.35L26.1815 104.051C26.1324 104.042 26.0827 104.038 26.0328 104.038Z" fill="#3F3D56"/>
<path d="M38.4047 125.515L38.9559 131.057L47.6539 130.195C48.3902 130.122 49.0673 129.761 49.5362 129.189C50.0051 128.618 50.2276 127.884 50.1545 127.149C50.0814 126.414 49.7189 125.738 49.1466 125.27C48.5743 124.802 47.8392 124.58 47.1029 124.653L38.4047 125.515Z" fill="#E6E6E6"/>
<path d="M30.8412 124.873C30.8539 126.763 31.6142 128.571 32.9566 129.904C34.299 131.236 36.1145 131.985 38.0077 131.988H39.438L40.4792 123.326L31.8579 120.227L30.8412 124.873Z" fill="#FE4400"/>
<path d="M81.5069 65.5787L81.2343 65.3066L81.6461 64.8955L84.1063 62.0293L84.399 62.2795L81.9287 65.1565L81.5069 65.5787Z" fill="white"/>
<path d="M172.247 275.081H0V275.851H172.247V275.081Z" fill="#3F3D56"/>
<path opacity="0.1" d="M121.816 5.51314C121.355 5.70422 120.881 5.94949 120.628 6.37941C120.359 6.83358 120.391 7.39755 120.441 7.92301C120.877 12.4804 122.024 17.3272 120.043 21.4553C119.081 23.4581 117.472 25.063 116.192 26.8818C114.912 28.7006 113.946 30.9715 114.54 33.1111C115.266 35.7256 117.974 37.1751 119.799 39.1871C120.994 40.5026 121.832 42.1011 122.946 43.485C124.061 44.8689 125.589 46.088 127.368 46.1693C129.928 46.287 132.01 44.0803 134.52 43.5691C137.09 43.0458 139.679 44.3776 141.764 45.9718C143.848 47.5661 145.744 49.4975 148.173 50.4928C150.855 51.593 153.879 51.4247 156.703 52.0856C159.274 52.6881 161.64 53.9693 164.193 54.6523C166.745 55.3354 169.736 55.294 171.714 53.5494C174.291 51.2678 174.088 47.2039 175.734 44.1858C177.263 41.3817 180.256 39.7076 182.271 37.2286C185.896 32.7668 185.777 25.9471 182.699 21.0946C179.621 16.2421 174.046 13.3039 168.345 12.5388C165.774 12.1945 163.127 12.2415 160.655 11.458C154.04 9.3618 150.103 1.85129 143.348 0.288437C139.055 -0.703316 134.88 1.01425 131.222 3.12823C128.048 4.96344 125.119 4.14494 121.816 5.51314Z" fill="#FE4400"/>
<path d="M128.262 20.2358C128.262 20.2358 125.825 22.5323 123.209 22.6008C122.111 22.6226 121.049 22.9996 120.183 23.6752C119.774 23.9982 119.395 24.3578 119.052 24.7497" stroke="#535461" stroke-width="2" stroke-miterlimit="10"/>
<path d="M117.402 24.8059C117.754 24.6277 119.095 24.746 119.095 24.746C119.095 24.746 118.399 25.8975 118.048 26.0757C117.964 26.1255 117.87 26.1575 117.773 26.1698C117.676 26.182 117.578 26.1742 117.484 26.1469C117.39 26.1195 117.303 26.0732 117.227 26.0108C117.152 25.9483 117.09 25.8712 117.046 25.784C117.002 25.6968 116.977 25.6015 116.971 25.504C116.965 25.4065 116.98 25.3089 117.013 25.2172C117.047 25.1255 117.099 25.0417 117.166 24.9709C117.234 24.9002 117.315 24.844 117.405 24.8059H117.402Z" fill="#FE4400"/>
<path d="M118.814 22.7703C119.206 22.8117 120.267 23.6387 120.267 23.6387C120.267 23.6387 119.053 24.2276 118.665 24.187C118.483 24.1596 118.319 24.0633 118.207 23.918C118.094 23.7728 118.042 23.59 118.061 23.4074C118.081 23.2249 118.17 23.0568 118.31 22.9382C118.45 22.8195 118.631 22.7594 118.814 22.7703Z" fill="#FE4400"/>
<path d="M122.162 21.1297C122.479 21.3628 122.977 22.612 122.977 22.612C122.977 22.612 121.634 22.51 121.317 22.2776C121.174 22.1623 121.081 21.9965 121.058 21.8145C121.034 21.6326 121.082 21.4486 121.19 21.3008C121.299 21.153 121.461 21.0527 121.642 21.0209C121.823 20.989 122.009 21.028 122.162 21.1297Z" fill="#FE4400"/>
<path d="M124.975 20.4587C125.327 20.6348 126.03 21.782 126.03 21.782C126.03 21.782 124.689 21.9082 124.337 21.7321C124.248 21.6934 124.168 21.637 124.101 21.5664C124.035 21.4958 123.984 21.4125 123.951 21.3215C123.918 21.2305 123.904 21.1338 123.909 21.0372C123.915 20.9405 123.94 20.8461 123.984 20.7596C124.027 20.673 124.088 20.5962 124.162 20.5338C124.236 20.4714 124.322 20.4247 124.415 20.3965C124.507 20.3684 124.605 20.3594 124.701 20.3701C124.798 20.3808 124.891 20.4109 124.975 20.4587Z" fill="#FE4400"/>
<path d="M121.014 24.937C121.131 24.5612 120.788 23.2607 120.788 23.2607C120.788 23.2607 119.768 24.1391 119.651 24.5149C119.618 24.6056 119.604 24.702 119.609 24.7983C119.615 24.8947 119.64 24.9889 119.683 25.0753C119.726 25.1618 119.786 25.2386 119.859 25.3011C119.933 25.3637 120.018 25.4107 120.111 25.4393C120.203 25.4679 120.3 25.4775 120.396 25.4675C120.492 25.4575 120.586 25.4281 120.67 25.3812C120.754 25.3342 120.828 25.2706 120.887 25.1943C120.947 25.1179 120.989 25.0304 121.014 24.937Z" fill="#FE4400"/>
<path d="M124.294 24.1079C124.294 23.7143 123.576 22.5764 123.576 22.5764C123.576 22.5764 122.866 23.7172 122.867 24.1122C122.868 24.3013 122.943 24.4824 123.078 24.6157C123.212 24.749 123.394 24.8236 123.583 24.823C123.773 24.8224 123.954 24.7468 124.088 24.6127C124.221 24.4786 124.296 24.297 124.295 24.1079H124.294Z" fill="#FE4400"/>
<path d="M127.371 22.8701C127.437 22.4822 126.923 21.2395 126.923 21.2395C126.923 21.2395 126.029 22.2462 125.964 22.6341C125.942 22.8161 125.991 22.9995 126.101 23.1463C126.211 23.293 126.373 23.3919 126.555 23.4224C126.736 23.4528 126.921 23.4125 127.073 23.3098C127.225 23.2071 127.332 23.0499 127.371 22.8708V22.8701Z" fill="#FE4400"/>
<path d="M131.429 14.154C131.429 14.154 128.493 12.5441 127.621 10.0779C127.262 9.04082 126.576 8.14791 125.666 7.53325C125.232 7.24469 124.772 6.99649 124.292 6.79175" stroke="#535461" stroke-width="2" stroke-miterlimit="10"/>
<path d="M123.735 5.24089C124.013 5.51967 124.312 6.83083 124.312 6.83083C124.312 6.83083 123.001 6.52425 122.723 6.24477C122.601 6.10875 122.535 5.93084 122.54 5.74788C122.545 5.56492 122.621 5.39092 122.751 5.26191C122.881 5.1329 123.055 5.05876 123.239 5.05485C123.422 5.05094 123.6 5.11755 123.735 5.24089Z" fill="#FE4400"/>
<path d="M126.11 5.95613C126.191 6.34114 125.729 7.60382 125.729 7.60382C125.729 7.60382 124.796 6.63489 124.714 6.24917C124.69 6.15588 124.685 6.05868 124.7 5.96342C124.714 5.86816 124.748 5.77683 124.799 5.69494C124.85 5.61305 124.917 5.5423 124.996 5.48697C125.075 5.43163 125.164 5.39286 125.258 5.37299C125.353 5.35312 125.45 5.35257 125.545 5.37136C125.64 5.39016 125.73 5.42792 125.809 5.48235C125.889 5.53679 125.957 5.60677 126.008 5.68808C126.06 5.76939 126.095 5.86033 126.11 5.95542L126.11 5.95613Z" fill="#FE4400"/>
<path d="M128.702 8.63616C128.578 9.00905 127.54 9.86676 127.54 9.86676C127.54 9.86676 127.225 8.55987 127.349 8.18627C127.409 8.00663 127.537 7.85805 127.707 7.77321C127.876 7.68837 128.073 7.67423 128.253 7.73389C128.433 7.79355 128.581 7.92212 128.666 8.09133C128.751 8.26054 128.765 8.45652 128.706 8.63616H128.702Z" fill="#FE4400"/>
<path d="M130.207 11.0996C130.148 11.4882 129.27 12.5085 129.27 12.5085C129.27 12.5085 128.738 11.2736 128.797 10.885C128.807 10.789 128.836 10.696 128.883 10.6116C128.93 10.5272 128.994 10.4532 129.07 10.3941C129.147 10.335 129.234 10.292 129.328 10.2678C129.422 10.2435 129.519 10.2385 129.615 10.253C129.71 10.2675 129.802 10.3012 129.884 10.3521C129.966 10.403 130.037 10.4701 130.093 10.5492C130.148 10.6283 130.187 10.7178 130.207 10.8123C130.226 10.9068 130.227 11.0043 130.207 11.0989V11.0996Z" fill="#FE4400"/>
<path d="M124.72 8.71264C125.114 8.70836 126.248 7.98255 126.248 7.98255C126.248 7.98255 125.098 7.28383 124.704 7.28811C124.514 7.29028 124.333 7.36748 124.201 7.50273C124.069 7.63798 123.996 7.82019 123.998 8.00929C124 8.19838 124.077 8.37886 124.213 8.51104C124.348 8.64321 124.531 8.71624 124.72 8.71407V8.71264Z" fill="#FE4400"/>
<path d="M126.517 11.5743C126.891 11.4524 127.756 10.4214 127.756 10.4214C127.756 10.4214 126.448 10.0985 126.074 10.2204C125.982 10.2467 125.896 10.2913 125.821 10.3516C125.746 10.4119 125.685 10.4866 125.639 10.5713C125.594 10.6559 125.567 10.7488 125.559 10.8443C125.55 10.9398 125.561 11.036 125.591 11.1272C125.621 11.2183 125.669 11.3025 125.732 11.3747C125.795 11.447 125.872 11.5058 125.959 11.5476C126.045 11.5894 126.139 11.6134 126.235 11.6181C126.331 11.6228 126.427 11.6082 126.517 11.575V11.5743Z" fill="#FE4400"/>
<path d="M128.645 14.1169C129.035 14.0599 130.062 13.1901 130.062 13.1901C130.062 13.1901 128.828 12.651 128.439 12.7081C128.343 12.7179 128.25 12.7471 128.166 12.7937C128.081 12.8404 128.007 12.9035 127.948 12.9795C127.889 13.0554 127.846 13.1425 127.821 13.2355C127.797 13.3286 127.791 13.4256 127.805 13.5208C127.819 13.616 127.852 13.7073 127.903 13.7894C127.953 13.8715 128.019 13.9425 128.098 13.9983C128.176 14.0541 128.265 14.0934 128.359 14.1139C128.454 14.1344 128.551 14.1357 128.646 14.1176L128.645 14.1169Z" fill="#FE4400"/>
<path d="M151.633 53.2166C165.91 53.2166 177.485 41.6611 177.485 27.4067C177.485 13.1524 165.91 1.59692 151.633 1.59692C137.355 1.59692 125.781 13.1524 125.781 27.4067C125.781 41.6611 137.355 53.2166 151.633 53.2166Z" fill="url(#paint0_linear)"/>
<path d="M151.633 52.7887C165.674 52.7887 177.056 41.4248 177.056 27.4067C177.056 13.3886 165.674 2.02466 151.633 2.02466C137.592 2.02466 126.21 13.3886 126.21 27.4067C126.21 41.4248 137.592 52.7887 151.633 52.7887Z" fill="#FE4400"/>
<path d="M151.633 47.5841C162.795 47.5841 171.843 38.5504 171.843 27.4068C171.843 16.2632 162.795 7.22949 151.633 7.22949C140.471 7.22949 131.423 16.2632 131.423 27.4068C131.423 38.5504 140.471 47.5841 151.633 47.5841Z" fill="#DDE1EC"/>
<path opacity="0.3" d="M152.204 10.7944H151.062V28.6189H152.204V10.7944Z" fill="#535461"/>
<g opacity="0.1">
<path opacity="0.1" d="M168.986 26.9792H152.847V28.4052H168.986V26.9792Z" fill="black"/>
<path opacity="0.1" d="M141.452 21.6442L140.79 22.9075L150.945 28.2168L151.607 26.9536L141.452 21.6442Z" fill="black"/>
<path opacity="0.1" d="M151.633 29.8311C152.816 29.8311 153.775 28.8735 153.775 27.6922C153.775 26.5109 152.816 25.5532 151.633 25.5532C150.45 25.5532 149.49 26.5109 149.49 27.6922C149.49 28.8735 150.45 29.8311 151.633 29.8311Z" fill="black"/>
</g>
<path d="M168.986 26.6938H152.847V28.1198H168.986V26.6938Z" fill="#535461"/>
<path d="M151.612 26.6697L141.457 21.3604L140.794 22.6236L150.95 27.933L151.612 26.6697Z" fill="#535461"/>
<path d="M151.633 29.5457C152.816 29.5457 153.775 28.5881 153.775 27.4068C153.775 26.2255 152.816 25.2678 151.633 25.2678C150.45 25.2678 149.49 26.2255 149.49 27.4068C149.49 28.5881 150.45 29.5457 151.633 29.5457Z" fill="#535461"/>
<g opacity="0.1">
<path opacity="0.1" d="M132.993 29.8309C132.993 18.6871 142.041 9.65362 153.203 9.65362C156.335 9.65085 159.426 10.3764 162.229 11.7728C165.033 13.1692 167.472 15.1982 169.353 17.6989C165.914 11.4589 159.273 7.22949 151.632 7.22949C140.47 7.22949 131.422 16.2629 131.422 27.4068C131.415 31.7846 132.841 36.0447 135.483 39.5388C133.845 36.5649 132.988 33.225 132.993 29.8309Z" fill="black"/>
</g>
<g opacity="0.1">
<path opacity="0.1" d="M159.574 34.0032C159.481 34.0912 159.406 34.1957 159.352 34.3112C158.844 34.0824 158.311 33.7936 158.116 33.6867L158.101 33.6788C158.198 33.557 158.309 33.4472 158.432 33.3516C158.432 33.3516 159.835 33.7751 159.574 34.0032Z" fill="black"/>
</g>
<g opacity="0.1">
<path opacity="0.1" d="M162.35 12.874C162.158 13.1241 161.901 13.3171 161.607 13.4319C161.313 13.5468 160.993 13.5792 160.682 13.5257C160.664 13.1606 160.588 12.7963 160.39 12.5738C159.868 11.9878 162.086 12.0855 162.086 12.0855C162.154 12.3546 162.242 12.6182 162.35 12.874Z" fill="black"/>
</g>
<g opacity="0.1">
<path opacity="0.1" d="M165.878 15.9493C165.638 16.0377 164.709 16.412 164.606 16.9475C164.543 16.7089 164.495 16.4665 164.464 16.2217L165.606 15.6028C165.715 15.7033 165.806 15.8202 165.878 15.9493Z" fill="black"/>
</g>
<g opacity="0.1">
<path opacity="0.1" d="M158.791 15.9941C158.702 16.2489 158.6 16.4988 158.484 16.7428C158.44 16.4205 158.258 15.5963 157.537 15.3304C157.68 15.1357 157.78 15.0181 157.78 15.0181L158.791 15.9941Z" fill="black"/>
</g>
<g opacity="0.1">
<path opacity="0.1" d="M163.815 24.0365C163.815 24.0365 162.332 23.9189 161.046 23.8633L160.917 23.8576C160.734 23.8504 160.56 23.8447 160.389 23.8404C159.141 23.8105 157.729 23.3749 157.489 23.2986C157.579 23.1593 157.676 23.0249 157.78 22.8958L159.738 23.3235C159.738 23.3235 160.046 23.4219 160.732 23.7249L159.607 22.8958L163.035 23.5146C163.035 23.5146 163.154 23.4996 163.785 23.8519L163.815 24.0365Z" fill="black"/>
</g>
<path opacity="0.05" d="M158.939 18.7456C158.939 18.7456 160.537 19.3317 161.581 18.8761L162.103 18.9089C162.103 18.9089 162.971 19.5163 163.888 19.2447" fill="black"/>
<path opacity="0.05" d="M166.506 17.7688C166.506 17.7688 166.245 18.3877 166.375 18.583L166.506 17.7688Z" fill="black"/>
<path opacity="0.05" d="M156.101 17.5732C156.101 17.5732 156.231 18.1921 156.101 18.3875V17.5732Z" fill="black"/>
<defs>
<linearGradient id="paint0_linear" x1="151.633" y1="53.2166" x2="151.633" y2="1.59692" gradientUnits="userSpaceOnUse">
<stop stop-color="#808080" stop-opacity="0.25"/>
<stop offset="0.54" stop-color="#808080" stop-opacity="0.12"/>
<stop offset="1" stop-color="#808080" stop-opacity="0.1"/>
</linearGradient>
</defs>
</svg>
