<svg width="48" height="48" viewBox="0 0 48 48" fill="none" xmlns="http://www.w3.org/2000/svg">
<path d="M36 25L37 25L37 23L36 23L36 25ZM11.2929 23.2929C10.9024 23.6834 10.9024 24.3166 11.2929 24.7071L17.6569 31.0711C18.0474 31.4616 18.6805 31.4616 19.0711 31.0711C19.4616 30.6805 19.4616 30.0474 19.0711 29.6569L13.4142 24L19.0711 18.3431C19.4616 17.9526 19.4616 17.3195 19.0711 16.9289C18.6805 16.5384 18.0474 16.5384 17.6569 16.9289L11.2929 23.2929ZM36 23L12 23L12 25L36 25L36 23Z" fill="#FE4400"/>
<path d="M24 46C11.8497 46 2 36.1503 2 24H-2C-2 38.3594 9.6406 50 24 50V46ZM46 24C46 36.1503 36.1503 46 24 46V50C38.3594 50 50 38.3594 50 24H46ZM24 2C36.1503 2 46 11.8497 46 24H50C50 9.6406 38.3594 -2 24 -2V2ZM24 -2C9.6406 -2 -2 9.6406 -2 24H2C2 11.8497 11.8497 2 24 2V-2Z" fill="#FE4400"/>
</svg>
